<svg width="512" height="512" viewBox="0 0 512 512" fill="none" xmlns="http://www.w3.org/2000/svg">
<rect x="57.0232" y="156.023" width="397.787" height="199.906" stroke="white" stroke-width="8.04639"/>
<path d="M178.308 319.721C172.601 319.721 169.748 316.807 169.748 310.979V207.895H138.422C132.594 207.895 129.68 205.284 129.68 200.063C129.68 194.842 132.594 192.232 138.422 192.232H217.829C223.536 192.232 226.389 194.842 226.389 200.063C226.389 205.284 223.536 207.895 217.829 207.895H186.503V310.979C186.503 316.807 183.771 319.721 178.308 319.721Z" fill="white"/>
<path d="M101.428 319.721C95.9643 319.721 93.2324 316.807 93.2324 310.979V200.974C93.2324 195.146 95.9643 192.232 101.428 192.232C107.013 192.232 109.806 195.146 109.806 200.974V310.979C109.806 316.807 107.013 319.721 101.428 319.721Z" fill="white"/>
<path d="M389.692 319.72C388.714 319.72 387.864 319.359 387.143 318.638C386.473 317.917 386.139 317.068 386.139 316.089V262.79C386.139 261.812 386.473 260.988 387.143 260.318C387.864 259.597 388.714 259.237 389.692 259.237C390.722 259.237 391.572 259.597 392.241 260.318C392.962 260.988 393.322 261.812 393.322 262.79V316.089C393.322 317.068 392.962 317.917 392.241 318.638C391.572 319.359 390.722 319.72 389.692 319.72ZM412.557 297.473C411.115 296.34 409.389 295.104 407.381 293.765C405.424 292.427 403.416 291.113 401.356 289.826C399.296 288.487 397.365 287.303 395.563 286.273C394.739 285.809 394.172 285.114 393.863 284.187C393.554 283.26 393.606 282.359 394.018 281.483C394.481 280.608 395.176 280.042 396.103 279.784C397.082 279.475 398.009 279.527 398.884 279.939C400.944 280.968 403.081 282.179 405.296 283.569C407.561 284.908 409.724 286.298 411.784 287.74C413.895 289.182 415.724 290.547 417.269 291.834C418.041 292.504 418.479 293.353 418.582 294.383C418.685 295.362 418.401 296.237 417.732 297.01C417.063 297.782 416.239 298.22 415.26 298.323C414.282 298.374 413.381 298.091 412.557 297.473Z" fill="white"/>
<path d="M308.893 292.761C307.915 292.761 307.065 292.427 306.344 291.757C305.675 291.036 305.34 290.187 305.34 289.208C305.34 288.178 305.675 287.328 306.344 286.659C307.065 285.99 307.915 285.655 308.893 285.655H357.017C357.995 285.655 358.819 285.99 359.489 286.659C360.21 287.328 360.57 288.178 360.57 289.208C360.57 290.187 360.21 291.036 359.489 291.757C358.819 292.427 357.995 292.761 357.017 292.761H308.893Z" fill="white"/>
<path d="M260.923 316.862C259.945 316.862 259.095 316.527 258.374 315.858C257.653 315.137 257.293 314.287 257.293 313.309C257.293 312.279 257.653 311.429 258.374 310.759C259.095 310.09 259.945 309.755 260.923 309.755C262.829 309.755 264.245 309.601 265.172 309.292C266.15 308.931 266.794 308.288 267.103 307.361C267.464 306.382 267.644 305.018 267.644 303.267V281.638H246.479C245.5 281.638 244.676 281.303 244.007 280.634C243.337 279.964 243.003 279.14 243.003 278.162C243.003 277.184 243.337 276.36 244.007 275.69C244.676 275.021 245.5 274.686 246.479 274.686H267.644V265.648C267.644 264.67 267.979 263.846 268.648 263.176C269.369 262.455 270.219 262.095 271.197 262.095C272.227 262.095 273.077 262.455 273.746 263.176C274.416 263.846 274.75 264.67 274.75 265.648V274.686H294.602C295.581 274.686 296.405 275.021 297.074 275.69C297.744 276.36 298.078 277.184 298.078 278.162C298.078 279.14 297.744 279.964 297.074 280.634C296.405 281.303 295.581 281.638 294.602 281.638H274.75V303.267C274.75 306.717 274.287 309.421 273.36 311.377C272.484 313.334 271.043 314.751 269.034 315.626C267.026 316.45 264.322 316.862 260.923 316.862ZM296.456 271.596C294.396 271.596 292.62 270.849 291.126 269.356C289.633 267.863 288.886 266.086 288.886 264.026C288.886 261.915 289.633 260.138 291.126 258.696C292.62 257.203 294.396 256.456 296.456 256.456C298.568 256.456 300.344 257.203 301.786 258.696C303.28 260.138 304.026 261.915 304.026 264.026C304.026 266.086 303.28 267.863 301.786 269.356C300.344 270.849 298.568 271.596 296.456 271.596ZM244.547 308.21C243.723 308.725 242.822 308.854 241.844 308.597C240.917 308.339 240.196 307.798 239.681 306.974C239.166 306.099 239.037 305.198 239.295 304.271C239.604 303.292 240.17 302.546 240.994 302.031C243.415 300.537 245.835 298.761 248.255 296.701C250.676 294.641 252.735 292.53 254.435 290.367C255.053 289.594 255.825 289.131 256.752 288.976C257.731 288.822 258.632 289.028 259.456 289.594C260.28 290.161 260.769 290.933 260.923 291.912C261.078 292.89 260.846 293.766 260.228 294.538C258.992 296.186 257.473 297.885 255.671 299.636C253.868 301.336 251.989 302.958 250.032 304.503C248.075 305.996 246.247 307.232 244.547 308.21ZM301.554 306.665C300.834 307.335 299.958 307.644 298.928 307.592C297.95 307.489 297.1 307.077 296.379 306.357C295.607 305.584 294.628 304.683 293.444 303.653C292.259 302.571 291.023 301.49 289.736 300.409C288.449 299.276 287.187 298.246 285.951 297.319C284.766 296.392 283.737 295.671 282.861 295.156C282.037 294.589 281.522 293.817 281.316 292.839C281.162 291.86 281.368 290.959 281.934 290.135C282.501 289.311 283.247 288.822 284.174 288.667C285.153 288.461 286.054 288.642 286.878 289.208C288.268 290.084 289.916 291.268 291.822 292.761C293.727 294.255 295.607 295.8 297.46 297.396C299.314 298.941 300.782 300.306 301.863 301.49C302.584 302.211 302.893 303.086 302.79 304.116C302.739 305.095 302.327 305.945 301.554 306.665ZM296.456 267.811C297.538 267.811 298.439 267.451 299.16 266.73C299.932 265.957 300.319 265.056 300.319 264.026C300.319 262.945 299.932 262.043 299.16 261.323C298.439 260.55 297.538 260.164 296.456 260.164C295.426 260.164 294.525 260.55 293.753 261.323C293.032 262.043 292.671 262.945 292.671 264.026C292.671 265.056 293.032 265.957 293.753 266.73C294.525 267.451 295.426 267.811 296.456 267.811Z" fill="white"/>
<path d="M389.692 319.72C388.714 319.72 387.864 319.359 387.143 318.638C386.473 317.917 386.139 317.068 386.139 316.089V262.79C386.139 261.812 386.473 260.988 387.143 260.318C387.864 259.597 388.714 259.237 389.692 259.237C390.722 259.237 391.572 259.597 392.241 260.318C392.962 260.988 393.322 261.812 393.322 262.79V316.089C393.322 317.068 392.962 317.917 392.241 318.638C391.572 319.359 390.722 319.72 389.692 319.72ZM412.557 297.473C411.115 296.34 409.389 295.104 407.381 293.765C405.424 292.427 403.416 291.113 401.356 289.826C399.296 288.487 397.365 287.303 395.563 286.273C394.739 285.809 394.172 285.114 393.863 284.187C393.554 283.26 393.606 282.359 394.018 281.483C394.481 280.608 395.176 280.042 396.103 279.784C397.082 279.475 398.009 279.527 398.884 279.939C400.944 280.968 403.081 282.179 405.296 283.569C407.561 284.908 409.724 286.298 411.784 287.74C413.895 289.182 415.724 290.547 417.269 291.834C418.041 292.504 418.479 293.353 418.582 294.383C418.685 295.362 418.401 296.237 417.732 297.01C417.063 297.782 416.239 298.22 415.26 298.323C414.282 298.374 413.381 298.091 412.557 297.473Z" fill="white"/>
<path d="M308.893 292.761C307.915 292.761 307.065 292.427 306.344 291.757C305.675 291.036 305.34 290.187 305.34 289.208C305.34 288.178 305.675 287.328 306.344 286.659C307.065 285.99 307.915 285.655 308.893 285.655H357.017C357.995 285.655 358.819 285.99 359.489 286.659C360.21 287.328 360.57 288.178 360.57 289.208C360.57 290.187 360.21 291.036 359.489 291.757C358.819 292.427 357.995 292.761 357.017 292.761H308.893Z" fill="white"/>
<path d="M260.923 316.862C259.945 316.862 259.095 316.527 258.374 315.858C257.653 315.137 257.293 314.287 257.293 313.309C257.293 312.279 257.653 311.429 258.374 310.759C259.095 310.09 259.945 309.755 260.923 309.755C262.829 309.755 264.245 309.601 265.172 309.292C266.15 308.931 266.794 308.288 267.103 307.361C267.464 306.382 267.644 305.018 267.644 303.267V281.638H246.479C245.5 281.638 244.676 281.303 244.007 280.634C243.337 279.964 243.003 279.14 243.003 278.162C243.003 277.184 243.337 276.36 244.007 275.69C244.676 275.021 245.5 274.686 246.479 274.686H267.644V265.648C267.644 264.67 267.979 263.846 268.648 263.176C269.369 262.455 270.219 262.095 271.197 262.095C272.227 262.095 273.077 262.455 273.746 263.176C274.416 263.846 274.75 264.67 274.75 265.648V274.686H294.602C295.581 274.686 296.405 275.021 297.074 275.69C297.744 276.36 298.078 277.184 298.078 278.162C298.078 279.14 297.744 279.964 297.074 280.634C296.405 281.303 295.581 281.638 294.602 281.638H274.75V303.267C274.75 306.717 274.287 309.421 273.36 311.377C272.484 313.334 271.043 314.751 269.034 315.626C267.026 316.45 264.322 316.862 260.923 316.862ZM296.456 271.596C294.396 271.596 292.62 270.849 291.126 269.356C289.633 267.863 288.886 266.086 288.886 264.026C288.886 261.915 289.633 260.138 291.126 258.696C292.62 257.203 294.396 256.456 296.456 256.456C298.568 256.456 300.344 257.203 301.786 258.696C303.28 260.138 304.026 261.915 304.026 264.026C304.026 266.086 303.28 267.863 301.786 269.356C300.344 270.849 298.568 271.596 296.456 271.596ZM244.547 308.21C243.723 308.725 242.822 308.854 241.844 308.597C240.917 308.339 240.196 307.798 239.681 306.974C239.166 306.099 239.037 305.198 239.295 304.271C239.604 303.292 240.17 302.546 240.994 302.031C243.415 300.537 245.835 298.761 248.255 296.701C250.676 294.641 252.735 292.53 254.435 290.367C255.053 289.594 255.825 289.131 256.752 288.976C257.731 288.822 258.632 289.028 259.456 289.594C260.28 290.161 260.769 290.933 260.923 291.912C261.078 292.89 260.846 293.766 260.228 294.538C258.992 296.186 257.473 297.885 255.671 299.636C253.868 301.336 251.989 302.958 250.032 304.503C248.075 305.996 246.247 307.232 244.547 308.21ZM301.554 306.665C300.834 307.335 299.958 307.644 298.928 307.592C297.95 307.489 297.1 307.077 296.379 306.357C295.607 305.584 294.628 304.683 293.444 303.653C292.259 302.571 291.023 301.49 289.736 300.409C288.449 299.276 287.187 298.246 285.951 297.319C284.766 296.392 283.737 295.671 282.861 295.156C282.037 294.589 281.522 293.817 281.316 292.839C281.162 291.86 281.368 290.959 281.934 290.135C282.501 289.311 283.247 288.822 284.174 288.667C285.153 288.461 286.054 288.642 286.878 289.208C288.268 290.084 289.916 291.268 291.822 292.761C293.727 294.255 295.607 295.8 297.46 297.396C299.314 298.941 300.782 300.306 301.863 301.49C302.584 302.211 302.893 303.086 302.79 304.116C302.739 305.095 302.327 305.945 301.554 306.665ZM296.456 267.811C297.538 267.811 298.439 267.451 299.16 266.73C299.932 265.957 300.319 265.056 300.319 264.026C300.319 262.945 299.932 262.043 299.16 261.323C298.439 260.55 297.538 260.164 296.456 260.164C295.426 260.164 294.525 260.55 293.753 261.323C293.032 262.043 292.671 262.945 292.671 264.026C292.671 265.056 293.032 265.957 293.753 266.73C294.525 267.451 295.426 267.811 296.456 267.811Z" fill="white"/>
<path d="M315.845 247.154C314.97 247.566 314.043 247.618 313.065 247.309C312.138 246.948 311.468 246.33 311.056 245.455C310.644 244.579 310.593 243.678 310.902 242.751C311.211 241.773 311.803 241.078 312.678 240.666C320.197 237.061 326.943 232.606 332.917 227.302C338.942 221.947 343.757 216.102 347.362 209.768C349.627 205.751 348.108 203.742 342.804 203.742H321.021C320.042 203.742 319.193 203.382 318.472 202.661C317.802 201.94 317.468 201.09 317.468 200.112C317.468 199.133 317.802 198.309 318.472 197.64C319.193 196.919 320.042 196.559 321.021 196.559H342.804C346.924 196.559 350.065 197.28 352.228 198.721C354.442 200.163 355.653 202.146 355.859 204.669C356.116 207.193 355.318 210.077 353.464 213.321C352.743 214.557 351.945 215.818 351.069 217.106C350.245 218.342 349.344 219.603 348.366 220.891C350.838 222.848 353.387 225.062 356.013 227.534C358.639 229.954 361.111 232.323 363.429 234.641C365.746 236.958 367.626 238.915 369.067 240.511C369.788 241.181 370.149 242.005 370.149 242.983C370.149 243.961 369.788 244.811 369.067 245.532C368.347 246.202 367.497 246.536 366.518 246.536C365.54 246.536 364.69 246.176 363.969 245.455C362.939 244.425 361.652 243.112 360.107 241.515C358.562 239.867 356.863 238.142 355.009 236.34C353.155 234.486 351.275 232.658 349.37 230.856C347.516 229.053 345.739 227.431 344.04 225.989C340.178 230.212 335.826 234.151 330.986 237.808C326.145 241.464 321.098 244.579 315.845 247.154Z" fill="white"/>
<path d="M242.461 236.031C241.637 236.597 240.736 236.803 239.757 236.649C238.83 236.494 238.084 236.005 237.517 235.181C236.951 234.357 236.745 233.456 236.899 232.478C237.054 231.499 237.543 230.727 238.367 230.16C241.148 228.203 243.877 225.835 246.555 223.054C249.233 220.273 251.653 217.415 253.816 214.48C255.979 211.544 257.653 208.866 258.837 206.446C259.249 205.571 259.918 204.978 260.845 204.669C261.824 204.309 262.751 204.335 263.626 204.747C264.502 205.159 265.094 205.854 265.403 206.832C265.763 207.759 265.712 208.66 265.248 209.536C264.321 211.441 263.008 213.604 261.309 216.024C259.661 218.445 257.781 220.891 255.67 223.363C253.61 225.835 251.447 228.178 249.181 230.392C246.915 232.606 244.675 234.486 242.461 236.031ZM302.094 235.413C301.27 235.928 300.369 236.057 299.391 235.799C298.412 235.542 297.666 234.975 297.151 234.1C296.224 232.503 295.013 230.701 293.52 228.693C292.027 226.633 290.379 224.521 288.576 222.359C286.774 220.196 284.92 218.11 283.015 216.102C281.109 214.042 279.281 212.214 277.53 210.617C276.809 209.948 276.423 209.124 276.372 208.145C276.372 207.116 276.706 206.266 277.376 205.596C278.097 204.875 278.946 204.489 279.925 204.438C280.903 204.386 281.753 204.721 282.474 205.442C284.276 207.141 286.156 209.047 288.113 211.158C290.07 213.269 292.001 215.458 293.906 217.724C295.812 219.938 297.588 222.153 299.236 224.367C300.884 226.581 302.249 228.641 303.33 230.547C303.845 231.371 303.974 232.272 303.716 233.25C303.51 234.177 302.97 234.898 302.094 235.413ZM298.387 207.373C296.327 207.373 294.55 206.626 293.057 205.133C291.563 203.639 290.816 201.863 290.816 199.803C290.816 197.692 291.563 195.915 293.057 194.473C294.55 192.98 296.327 192.233 298.387 192.233C300.498 192.233 302.275 192.98 303.716 194.473C305.21 195.915 305.957 197.692 305.957 199.803C305.957 201.863 305.21 203.639 303.716 205.133C302.275 206.626 300.498 207.373 298.387 207.373ZM298.387 203.588C299.468 203.588 300.369 203.227 301.09 202.507C301.863 201.734 302.249 200.833 302.249 199.803C302.249 198.722 301.863 197.82 301.09 197.099C300.369 196.327 299.468 195.941 298.387 195.941C297.357 195.941 296.455 196.327 295.683 197.099C294.962 197.82 294.602 198.722 294.602 199.803C294.602 200.833 294.962 201.734 295.683 202.507C296.455 203.227 297.357 203.588 298.387 203.588Z" fill="white"/>
<path d="M158.862 442.974C156.951 442.974 155.15 442.629 153.456 441.939C151.763 441.249 150.265 440.064 148.963 438.382C147.703 436.701 146.727 434.416 146.032 431.527C145.381 428.595 145.098 424.909 145.185 420.468C145.359 412.103 146.727 405.981 149.288 402.101C151.85 398.177 155.497 396.215 160.23 396.215C162.01 396.215 163.638 396.56 165.114 397.25C166.634 397.94 168.001 398.845 169.217 399.966C169.999 400.613 170.368 401.303 170.324 402.036C170.281 402.769 169.933 403.394 169.282 403.911C168.587 404.429 167.936 404.623 167.328 404.493C166.72 404.364 166.047 404.019 165.309 403.459C164.615 402.812 163.855 402.316 163.03 401.971C162.248 401.626 161.337 401.454 160.295 401.454C157.907 401.454 155.996 402.251 154.563 403.847C153.174 405.399 152.176 407.598 151.568 410.443C150.96 413.246 150.634 416.501 150.591 420.209C151.416 418.786 152.566 417.687 154.042 416.911C155.562 416.092 157.19 415.682 158.927 415.682C161.272 415.682 163.377 416.221 165.244 417.299C167.111 418.377 168.587 419.907 169.673 421.891C170.758 423.831 171.301 426.181 171.301 428.94C171.301 431.656 170.78 434.071 169.738 436.183C168.696 438.296 167.241 439.956 165.375 441.163C163.508 442.37 161.337 442.974 158.862 442.974ZM158.536 437.671C160.837 437.671 162.596 436.83 163.811 435.149C165.027 433.467 165.635 431.398 165.635 428.94C165.635 426.482 165.005 424.521 163.746 423.055C162.487 421.546 160.837 420.791 158.797 420.791C156.539 420.791 154.694 421.61 153.261 423.249C151.828 424.844 151.22 426.892 151.437 429.393C151.654 432.066 152.371 434.114 153.587 435.537C154.802 436.959 156.452 437.671 158.536 437.671Z" fill="white"/>
<path d="M118.009 442.263C115.925 442.263 114.883 441.659 114.883 440.452C114.883 437.261 115.795 434.2 117.618 431.268C119.485 428.336 122.177 425.211 125.694 421.891C127.17 420.468 128.538 419.067 129.797 417.687C131.099 416.264 132.163 414.863 132.988 413.483C133.813 412.104 134.247 410.767 134.291 409.473C134.377 406.93 133.791 405.033 132.532 403.782C131.273 402.532 129.493 401.907 127.192 401.907C125.585 401.907 124.239 402.381 123.154 403.33C122.068 404.235 121.352 405.55 121.005 407.275C120.744 408.223 120.397 408.956 119.963 409.473C119.529 409.991 118.856 410.25 117.944 410.25C117.075 410.25 116.381 409.969 115.86 409.409C115.382 408.805 115.23 407.986 115.404 406.951C115.968 403.761 117.293 401.238 119.377 399.384C121.504 397.53 124.109 396.604 127.192 396.604C129.71 396.604 131.924 397.121 133.835 398.156C135.788 399.147 137.286 400.613 138.328 402.553C139.414 404.494 139.913 406.843 139.826 409.603C139.783 411.629 139.284 413.526 138.328 415.294C137.373 417.019 136.136 418.7 134.616 420.339C133.097 421.977 131.403 423.702 129.536 425.512C127.452 427.625 125.542 429.673 123.805 431.656C122.112 433.597 121.113 435.429 120.809 437.154H136.049C138.133 437.154 139.175 437.994 139.175 439.676C139.175 441.4 138.133 442.263 136.049 442.263H118.009Z" fill="white"/>
<path d="M96.4564 442.974C91.5067 442.974 88.0767 441.055 86.1664 437.218C84.256 433.381 83.3008 427.517 83.3008 419.627C83.3008 411.737 84.256 405.873 86.1664 402.036C88.0767 398.156 91.5067 396.215 96.4564 396.215C101.363 396.215 104.771 398.156 106.681 402.036C108.592 405.873 109.547 411.737 109.547 419.627C109.547 427.517 108.592 433.381 106.681 437.218C104.771 441.055 101.363 442.974 96.4564 442.974ZM96.4564 437.606C98.2799 437.606 99.7344 437.067 100.82 435.989C101.949 434.868 102.752 432.993 103.23 430.363C103.751 427.733 104.011 424.154 104.011 419.627C104.011 415.057 103.751 411.457 103.23 408.827C102.752 406.197 101.949 404.343 100.82 403.265C99.7344 402.144 98.2799 401.583 96.4564 401.583C94.6762 401.583 93.2217 402.144 92.0929 403.265C90.964 404.343 90.1391 406.197 89.6181 408.827C89.0971 411.457 88.8366 415.057 88.8366 419.627C88.8366 424.154 89.0971 427.733 89.6181 430.363C90.1391 432.993 90.964 434.868 92.0929 435.989C93.2217 437.067 94.6762 437.606 96.4564 437.606Z" fill="white"/>
<path d="M56.1261 442.263C54.042 442.263 53 441.659 53 440.452C53 437.261 53.9118 434.2 55.7353 431.268C57.6023 428.336 60.2942 425.211 63.811 421.891C65.2872 420.468 66.6549 419.067 67.914 417.687C69.2165 416.264 70.2803 414.863 71.1052 413.483C71.9302 412.104 72.3643 410.767 72.4078 409.473C72.4946 406.93 71.9084 405.033 70.6493 403.782C69.3902 402.532 67.6101 401.907 65.3089 401.907C63.7025 401.907 62.3565 402.381 61.2711 403.33C60.1856 404.235 59.4693 405.55 59.1219 407.275C58.8614 408.223 58.5141 408.956 58.0799 409.473C57.6457 409.991 56.9727 410.25 56.061 410.25C55.1926 410.25 54.4979 409.969 53.9769 409.409C53.4993 408.805 53.3473 407.986 53.521 406.951C54.0854 403.761 55.4097 401.238 57.4937 399.384C59.6212 397.53 62.2263 396.604 65.3089 396.604C67.8272 396.604 70.0415 397.121 71.9519 398.156C73.9057 399.147 75.4036 400.613 76.4456 402.553C77.5311 404.494 78.0304 406.843 77.9435 409.603C77.9001 411.629 77.4008 413.526 76.4456 415.294C75.4904 417.019 74.253 418.7 72.7334 420.339C71.2138 421.977 69.5205 423.702 67.6535 425.512C65.5694 427.625 63.6591 429.673 61.9224 431.656C60.2291 433.597 59.2305 435.429 58.9265 437.154H74.1662C76.2502 437.154 77.2923 437.994 77.2923 439.676C77.2923 441.4 76.2502 442.263 74.1662 442.263H56.1261Z" fill="white"/>
<path d="M436.338 443.11C435.707 443.11 435.175 442.895 434.744 442.467C434.312 442.071 434.096 441.543 434.096 440.884V432.228C432.635 433.349 430.908 434.486 428.916 435.641C426.923 436.795 424.848 437.85 422.689 438.806C420.531 439.763 418.472 440.554 416.513 441.181C415.882 441.378 415.317 441.378 414.819 441.181C414.321 440.983 413.956 440.604 413.723 440.043C413.524 439.581 413.524 439.103 413.723 438.608C413.923 438.114 414.288 437.801 414.819 437.669C416.513 437.174 418.273 436.564 420.099 435.838C421.959 435.08 423.769 434.272 425.529 433.415C427.322 432.524 428.949 431.634 430.41 430.744H415.467C415.035 430.744 414.653 430.579 414.321 430.249C413.989 429.919 413.823 429.54 413.823 429.111C413.823 428.65 413.989 428.27 414.321 427.974C414.653 427.644 415.035 427.479 415.467 427.479H434.096V424.462H428.069C425.346 424.462 423.453 424 422.391 423.077C421.328 422.153 420.797 420.505 420.797 418.13V409.078C420.066 409.903 419.302 410.694 418.505 411.453C417.742 412.178 416.978 412.871 416.214 413.53C415.782 413.893 415.268 414.107 414.67 414.173C414.072 414.206 413.541 414.008 413.076 413.58C412.711 413.217 412.511 412.755 412.478 412.195C412.445 411.634 412.644 411.189 413.076 410.859C414.504 409.705 415.899 408.402 417.26 406.952C418.622 405.468 419.9 403.934 421.095 402.351C422.324 400.736 423.37 399.186 424.234 397.702C424.532 397.174 424.947 396.828 425.479 396.663C426.043 396.498 426.591 396.548 427.123 396.811C427.654 397.042 428.003 397.438 428.169 397.999C428.335 398.559 428.268 399.07 427.969 399.532C427.637 400.06 427.272 400.62 426.874 401.214C426.508 401.774 426.126 402.335 425.728 402.895H434.544C434.81 402.236 435.126 401.461 435.491 400.571C435.856 399.647 436.155 398.889 436.387 398.295C436.653 397.636 437.085 397.207 437.682 397.009C438.28 396.778 438.861 396.762 439.426 396.96C440.057 397.191 440.488 397.537 440.721 397.999C440.953 398.46 440.937 398.971 440.671 399.532C440.439 400.027 440.19 400.587 439.924 401.214C439.658 401.807 439.393 402.368 439.127 402.895H453.522C453.987 402.895 454.369 403.06 454.668 403.39C455 403.72 455.166 404.149 455.166 404.676C455.166 405.171 455 405.583 454.668 405.913C454.369 406.243 453.987 406.407 453.522 406.407H438.579V409.029H450.882C451.347 409.029 451.713 409.21 451.978 409.573C452.244 409.903 452.377 410.282 452.377 410.711C452.377 411.139 452.244 411.535 451.978 411.898C451.713 412.228 451.347 412.393 450.882 412.393H438.579V415.014H450.882C451.347 415.014 451.713 415.196 451.978 415.558C452.244 415.888 452.377 416.267 452.377 416.696C452.377 417.125 452.244 417.52 451.978 417.883C451.713 418.213 451.347 418.378 450.882 418.378H438.579V420.999H454.07C454.535 420.999 454.917 421.164 455.216 421.494C455.548 421.791 455.714 422.186 455.714 422.681C455.714 423.176 455.548 423.604 455.216 423.967C454.917 424.297 454.535 424.462 454.07 424.462H438.579V427.479H456.959C457.424 427.479 457.806 427.644 458.105 427.974C458.437 428.27 458.603 428.65 458.603 429.111C458.603 429.54 458.437 429.919 458.105 430.249C457.806 430.579 457.424 430.744 456.959 430.744H442.215C443.676 431.634 445.287 432.508 447.047 433.365C448.807 434.223 450.6 435.014 452.426 435.74C454.286 436.432 456.063 437.026 457.756 437.52C458.288 437.685 458.653 438.031 458.852 438.559C459.051 439.054 459.051 439.548 458.852 440.043C458.62 440.571 458.238 440.933 457.706 441.131C457.175 441.362 456.594 441.378 455.963 441.181C454.07 440.554 452.045 439.763 449.886 438.806C447.761 437.85 445.702 436.811 443.71 435.69C441.75 434.536 440.04 433.398 438.579 432.277V440.884C438.579 441.543 438.363 442.071 437.932 442.467C437.5 442.895 436.969 443.11 436.338 443.11ZM425.08 415.014H434.096V412.393H425.08V415.014ZM425.08 409.029H434.096V406.407H425.08V409.029ZM428.766 420.999H434.096V418.378H425.13C425.197 419.4 425.479 420.092 425.977 420.455C426.508 420.818 427.438 420.999 428.766 420.999Z" fill="white"/>
<path d="M396.191 428.617C394.099 428.617 392.471 428.402 391.309 427.974C390.147 427.545 389.333 426.836 388.868 425.847C388.437 424.857 388.221 423.538 388.221 421.889V412.739C388.221 410.562 388.619 408.979 389.416 407.99C390.213 406.968 391.741 406.358 393.999 406.16C394.165 405.632 394.348 405.039 394.547 404.379C394.746 403.72 394.912 403.159 395.045 402.697H387.225C386.693 402.697 386.245 402.533 385.88 402.203C385.548 401.84 385.382 401.411 385.382 400.917C385.382 400.389 385.548 399.96 385.88 399.631C386.245 399.268 386.693 399.087 387.225 399.087H407.199C407.697 399.087 408.129 399.268 408.494 399.631C408.859 399.96 409.042 400.389 409.042 400.917C409.042 401.411 408.859 401.84 408.494 402.203C408.129 402.533 407.697 402.697 407.199 402.697H399.478C399.345 403.159 399.163 403.72 398.93 404.379C398.731 405.006 398.548 405.566 398.382 406.061H398.532C400.657 406.061 402.284 406.275 403.413 406.704C404.575 407.1 405.372 407.792 405.804 408.782C406.269 409.738 406.502 411.057 406.502 412.739V421.889C406.502 423.538 406.269 424.857 405.804 425.847C405.372 426.836 404.575 427.545 403.413 427.974C402.284 428.402 400.657 428.617 398.532 428.617H396.191ZM363.913 441.725C363.382 441.461 363.033 441.065 362.867 440.537C362.734 440.043 362.801 439.565 363.066 439.103C363.83 437.817 364.528 436.382 365.158 434.8C365.823 433.184 366.387 431.551 366.852 429.903C367.317 428.221 367.649 426.622 367.848 425.105C367.915 424.544 368.164 424.132 368.595 423.868C369.06 423.604 369.558 423.505 370.09 423.571C370.654 423.637 371.086 423.868 371.385 424.264C371.717 424.626 371.85 425.088 371.783 425.649C371.684 426.374 371.551 427.1 371.385 427.825C371.252 428.551 371.103 429.276 370.937 430.002C371.999 431.354 373.128 432.508 374.324 433.464V421.692H365.557C365.026 421.692 364.577 421.51 364.212 421.148C363.847 420.785 363.664 420.34 363.664 419.812C363.664 419.284 363.847 418.839 364.212 418.476C364.577 418.114 365.026 417.932 365.557 417.932H384.684C385.216 417.932 385.664 418.114 386.029 418.476C386.395 418.839 386.577 419.284 386.577 419.812C386.577 420.34 386.395 420.785 386.029 421.148C385.664 421.51 385.216 421.692 384.684 421.692H378.358V426.143H383.638C384.17 426.143 384.618 426.325 384.983 426.687C385.348 427.05 385.531 427.495 385.531 428.023C385.531 428.551 385.348 428.996 384.983 429.359C384.618 429.721 384.17 429.903 383.638 429.903H378.358V435.739C379.952 436.366 381.795 436.828 383.887 437.124C385.979 437.421 388.437 437.57 391.259 437.57C391.757 437.57 392.554 437.57 393.65 437.57C394.779 437.57 396.025 437.57 397.386 437.57C398.781 437.537 400.142 437.52 401.471 437.52C402.799 437.52 403.961 437.52 404.957 437.52C405.954 437.487 406.618 437.471 406.95 437.471C407.614 437.405 408.162 437.553 408.594 437.916C409.058 438.279 409.258 438.806 409.191 439.499C409.158 440.851 408.311 441.527 406.651 441.527H391.259C387.706 441.527 384.618 441.279 381.995 440.785C379.371 440.29 377.063 439.499 375.071 438.41C373.112 437.289 371.335 435.822 369.741 434.008C369.309 435.228 368.844 436.399 368.346 437.52C367.848 438.641 367.317 439.713 366.752 440.735C366.487 441.263 366.072 441.609 365.507 441.774C364.976 441.972 364.445 441.955 363.913 441.725ZM375.021 415.459C371.999 415.459 369.907 414.948 368.745 413.926C367.616 412.904 367.051 411.172 367.051 408.732V405.27C367.051 402.796 367.616 401.065 368.745 400.076C369.907 399.054 371.999 398.542 375.021 398.542H375.967C379.023 398.542 381.115 399.054 382.244 400.076C383.373 401.065 383.937 402.796 383.937 405.27V408.732C383.937 411.172 383.373 412.904 382.244 413.926C381.115 414.948 379.023 415.459 375.967 415.459H375.021ZM405.306 436.185C404.808 435.888 404.194 435.509 403.463 435.047C402.732 434.552 402.019 434.058 401.321 433.563C400.624 433.035 400.043 432.59 399.578 432.227C399.146 431.865 398.914 431.42 398.88 430.892C398.847 430.364 398.997 429.903 399.329 429.507C399.694 429.111 400.142 428.897 400.674 428.864C401.205 428.831 401.686 428.963 402.118 429.26C402.583 429.589 403.164 429.985 403.862 430.447C404.559 430.908 405.273 431.37 406.003 431.832C406.734 432.26 407.348 432.623 407.846 432.92C408.311 433.184 408.594 433.596 408.693 434.157C408.826 434.717 408.743 435.228 408.444 435.69C408.112 436.218 407.631 436.514 407 436.58C406.402 436.613 405.837 436.481 405.306 436.185ZM389.267 436.185C388.736 436.514 388.155 436.663 387.524 436.63C386.926 436.597 386.444 436.316 386.079 435.789C385.78 435.327 385.664 434.833 385.73 434.305C385.83 433.744 386.162 433.316 386.727 433.019C387.225 432.722 387.822 432.359 388.52 431.931C389.25 431.469 389.964 431.007 390.662 430.546C391.392 430.051 391.99 429.639 392.455 429.309C392.887 428.979 393.368 428.847 393.899 428.913C394.431 428.946 394.862 429.177 395.194 429.606C395.527 430.035 395.676 430.496 395.643 430.991C395.61 431.485 395.394 431.914 394.995 432.277C394.564 432.64 393.999 433.068 393.302 433.563C392.604 434.058 391.89 434.536 391.16 434.997C390.462 435.459 389.831 435.855 389.267 436.185ZM392.305 418.823H402.417V415.706H392.305V418.823ZM396.191 425.055H398.532C400.159 425.055 401.205 424.874 401.67 424.511C402.168 424.148 402.417 423.307 402.417 421.988H392.305C392.305 423.307 392.538 424.148 393.003 424.511C393.501 424.874 394.564 425.055 396.191 425.055ZM392.305 412.59H402.417C402.417 411.304 402.168 410.496 401.67 410.167C401.172 409.804 400.126 409.622 398.532 409.622H396.191C394.597 409.622 393.551 409.804 393.053 410.167C392.554 410.496 392.305 411.304 392.305 412.59ZM375.021 411.898H375.967C377.595 411.898 378.641 411.716 379.106 411.354C379.604 410.958 379.853 410.084 379.853 408.732V408.633H371.136V408.732C371.136 410.084 371.368 410.958 371.833 411.354C372.331 411.716 373.394 411.898 375.021 411.898ZM371.136 405.369H379.853V405.27C379.853 403.918 379.604 403.06 379.106 402.697C378.641 402.302 377.595 402.104 375.967 402.104H375.021C373.394 402.104 372.331 402.302 371.833 402.697C371.368 403.06 371.136 403.918 371.136 405.27V405.369Z" fill="white"/>
<path d="M349.667 442.615C348.937 442.615 348.356 442.401 347.924 441.972C347.525 441.543 347.293 440.999 347.227 440.34C347.193 439.713 347.376 439.169 347.774 438.707C348.173 438.213 348.737 437.949 349.468 437.916C350.531 437.817 351.311 437.685 351.809 437.52C352.307 437.322 352.623 437.026 352.756 436.63C352.922 436.234 353.005 435.657 353.005 434.899V414.965H346.43C343.607 414.965 341.598 414.487 340.402 413.53C339.207 412.541 338.609 410.727 338.609 408.089V405.665C338.609 403.027 339.207 401.181 340.402 400.125C341.598 399.037 343.607 398.493 346.43 398.493H349.568C352.357 398.493 354.35 399.037 355.545 400.125C356.74 401.181 357.338 403.027 357.338 405.665V435.789C357.338 438.229 356.74 439.977 355.545 441.032C354.383 442.087 352.423 442.615 349.667 442.615ZM318.037 442.862C317.44 442.862 316.925 442.665 316.493 442.269C316.062 441.873 315.846 441.345 315.846 440.686V405.616C315.846 402.978 316.443 401.131 317.639 400.076C318.834 399.021 320.843 398.493 323.666 398.493H326.555C329.378 398.493 331.37 399.021 332.532 400.076C333.728 401.131 334.326 402.978 334.326 405.616V408.089C334.326 410.727 333.728 412.541 332.532 413.53C331.37 414.487 329.378 414.965 326.555 414.965H320.229V440.686C320.229 441.345 320.013 441.873 319.582 442.269C319.15 442.665 318.635 442.862 318.037 442.862ZM336.418 434.503C334.126 434.503 332.317 434.239 330.988 433.712C329.693 433.184 328.78 432.376 328.249 431.288C327.717 430.167 327.452 428.716 327.452 426.935C327.452 425.154 327.717 423.72 328.249 422.632C328.78 421.51 329.693 420.702 330.988 420.208C332.317 419.68 334.126 419.416 336.418 419.416C338.742 419.416 340.552 419.68 341.847 420.208C343.142 420.702 344.055 421.51 344.587 422.632C345.151 423.72 345.433 425.154 345.433 426.935C345.433 428.716 345.151 430.167 344.587 431.288C344.055 432.376 343.142 433.184 341.847 433.712C340.552 434.239 338.742 434.503 336.418 434.503ZM336.418 430.694C338.277 430.694 339.506 430.447 340.104 429.952C340.735 429.425 341.05 428.419 341.05 426.935C341.05 425.484 340.735 424.511 340.104 424.017C339.506 423.489 338.277 423.225 336.418 423.225C334.591 423.225 333.363 423.489 332.732 424.017C332.134 424.511 331.835 425.484 331.835 426.935C331.835 428.419 332.134 429.425 332.732 429.952C333.363 430.447 334.591 430.694 336.418 430.694ZM346.828 411.205H353.005V408.386H342.893C342.993 409.507 343.325 410.266 343.889 410.661C344.454 411.024 345.433 411.205 346.828 411.205ZM320.229 411.205H326.157C327.551 411.205 328.531 411.024 329.095 410.661C329.66 410.266 329.975 409.507 330.042 408.386H320.229V411.205ZM342.893 404.923H352.955C352.855 403.835 352.523 403.11 351.959 402.747C351.394 402.384 350.414 402.203 349.02 402.203H346.828C345.467 402.203 344.487 402.384 343.889 402.747C343.325 403.11 342.993 403.835 342.893 404.923ZM320.229 404.923H330.042C329.975 403.835 329.643 403.11 329.046 402.747C328.481 402.384 327.518 402.203 326.157 402.203H324.164C322.803 402.203 321.823 402.384 321.225 402.747C320.661 403.11 320.329 403.835 320.229 404.923Z" fill="white"/>
<path d="M306.63 441.576C306.033 441.972 305.385 442.104 304.688 441.972C303.99 441.873 303.459 441.543 303.094 440.983C302.728 440.422 302.297 439.812 301.799 439.152C301.334 438.526 300.836 437.866 300.304 437.174C298.81 437.405 297 437.669 294.875 437.965C292.75 438.229 290.475 438.493 288.051 438.757C285.627 439.054 283.203 439.334 280.778 439.598C278.388 439.861 276.146 440.092 274.054 440.29C271.962 440.521 270.185 440.686 268.724 440.785C267.927 440.851 267.28 440.686 266.782 440.29C266.317 439.894 266.051 439.334 265.985 438.608C265.951 437.916 266.151 437.355 266.582 436.927C267.014 436.498 267.595 436.251 268.326 436.185C269.123 436.119 270.036 436.053 271.065 435.987C272.095 435.888 273.224 435.772 274.452 435.641C275.15 434.552 275.93 433.217 276.794 431.634C277.69 430.018 278.57 428.369 279.434 426.688C280.33 425.006 281.077 423.522 281.675 422.236H265.935C265.337 422.236 264.822 422.038 264.391 421.642C263.992 421.214 263.793 420.702 263.793 420.109C263.793 419.515 263.992 419.021 264.391 418.625C264.822 418.196 265.337 417.982 265.935 417.982H284.315V409.771H270.169C269.604 409.771 269.106 409.573 268.674 409.177C268.276 408.749 268.077 408.254 268.077 407.693C268.077 407.133 268.276 406.655 268.674 406.259C269.106 405.83 269.604 405.616 270.169 405.616H284.315V399.581C284.315 398.856 284.547 398.279 285.012 397.85C285.477 397.421 286.042 397.207 286.706 397.207C287.37 397.207 287.935 397.421 288.4 397.85C288.864 398.279 289.097 398.856 289.097 399.581V405.616H303.343C303.907 405.616 304.389 405.83 304.787 406.259C305.219 406.655 305.435 407.133 305.435 407.693C305.435 408.254 305.219 408.749 304.787 409.177C304.389 409.573 303.907 409.771 303.343 409.771H289.097V417.982H307.477C308.042 417.982 308.54 418.196 308.971 418.625C309.403 419.021 309.619 419.515 309.619 420.109C309.619 420.702 309.403 421.214 308.971 421.642C308.54 422.038 308.042 422.236 307.477 422.236H287.154C286.623 423.357 285.959 424.676 285.162 426.193C284.398 427.677 283.568 429.21 282.671 430.793C281.808 432.343 280.978 433.777 280.181 435.096C282.206 434.899 284.249 434.701 286.307 434.503C288.4 434.272 290.375 434.058 292.235 433.86C294.128 433.662 295.805 433.481 297.266 433.316C296.535 432.359 295.805 431.469 295.074 430.645C294.344 429.787 293.679 429.045 293.082 428.419C292.65 427.924 292.434 427.38 292.434 426.786C292.434 426.16 292.7 425.616 293.231 425.154C293.729 424.693 294.31 424.478 294.975 424.511C295.639 424.544 296.203 424.808 296.668 425.303C297.432 426.127 298.295 427.1 299.258 428.221C300.221 429.342 301.218 430.513 302.247 431.733C303.276 432.953 304.223 434.124 305.086 435.245C305.983 436.333 306.697 437.256 307.228 438.015C307.627 438.575 307.776 439.185 307.676 439.845C307.61 440.537 307.261 441.115 306.63 441.576Z" fill="white"/>
<path d="M230.768 435.195C230.203 435.195 229.705 434.998 229.273 434.602C228.842 434.206 228.626 433.695 228.626 433.069V420.455C228.626 418.477 228.941 416.96 229.572 415.905C230.236 414.816 231.282 414.091 232.71 413.728V405.27C232.71 402.928 233.308 401.247 234.504 400.224C235.699 399.169 237.592 398.642 240.182 398.642H245.96C248.55 398.642 250.443 399.169 251.638 400.224C252.867 401.247 253.481 402.928 253.481 405.27V413.778C254.909 414.14 255.922 414.849 256.52 415.905C257.151 416.96 257.466 418.477 257.466 420.455V429.012C257.466 431.222 256.985 432.805 256.022 433.761C255.059 434.684 253.398 435.163 251.041 435.195C250.343 435.195 249.795 435.014 249.397 434.651C249.032 434.289 248.816 433.794 248.749 433.167C248.716 432.574 248.866 432.063 249.198 431.634C249.563 431.205 250.011 430.958 250.543 430.892C251.705 430.76 252.435 430.579 252.734 430.348C253.066 430.117 253.232 429.54 253.232 428.617V420.999C253.232 419.548 252.917 418.526 252.286 417.933C251.688 417.339 250.626 417.042 249.098 417.042H237.044C235.516 417.042 234.437 417.339 233.806 417.933C233.208 418.526 232.91 419.548 232.91 420.999V433.069C232.91 433.695 232.694 434.206 232.262 434.602C231.864 434.998 231.365 435.195 230.768 435.195ZM243.22 441.428C239.833 441.428 236.894 441.28 234.404 440.983C231.913 440.686 229.771 440.175 227.978 439.449C226.218 438.757 224.674 437.801 223.346 436.58C222.815 436.943 222.167 437.388 221.403 437.916C220.673 438.444 219.975 438.938 219.311 439.4C218.647 439.895 218.149 440.257 217.817 440.488C217.286 440.818 216.688 440.933 216.024 440.834C215.36 440.735 214.861 440.406 214.529 439.845C214.197 439.285 214.114 438.707 214.28 438.114C214.446 437.487 214.812 437.042 215.376 436.778C215.907 436.482 216.704 436.036 217.767 435.443C218.863 434.849 219.843 434.289 220.706 433.761V422.186C220.706 421.329 220.556 420.752 220.258 420.455C219.959 420.125 219.378 419.961 218.514 419.961H216.024C215.426 419.961 214.944 419.763 214.579 419.367C214.214 418.938 214.031 418.46 214.031 417.933C214.031 417.372 214.214 416.894 214.579 416.498C214.944 416.102 215.426 415.905 216.024 415.905H219.909C223.163 415.905 224.79 417.537 224.79 420.801V433.118C226.085 434.272 227.497 435.179 229.024 435.839C230.552 436.465 232.445 436.91 234.703 437.174C236.961 437.405 239.8 437.52 243.22 437.52C246.309 437.52 249.032 437.487 251.389 437.421C253.78 437.355 255.856 437.256 257.616 437.125C258.313 437.059 258.894 437.224 259.359 437.619C259.824 438.015 260.056 438.526 260.056 439.153C260.056 439.779 259.857 440.29 259.459 440.686C259.06 441.082 258.479 441.296 257.715 441.329C256.52 441.329 255.059 441.329 253.332 441.329C251.638 441.362 249.895 441.378 248.102 441.378C246.342 441.411 244.715 441.428 243.22 441.428ZM243.071 430.942C241.444 430.942 240.149 430.777 239.186 430.447C238.223 430.117 237.542 429.54 237.143 428.716C236.745 427.858 236.546 426.655 236.546 425.105C236.546 423.555 236.745 422.368 237.143 421.543C237.542 420.719 238.223 420.142 239.186 419.812C240.149 419.482 241.444 419.318 243.071 419.318C244.731 419.318 246.026 419.482 246.956 419.812C247.919 420.142 248.6 420.719 248.998 421.543C249.397 422.368 249.596 423.555 249.596 425.105C249.596 426.655 249.397 427.858 248.998 428.716C248.6 429.54 247.919 430.117 246.956 430.447C246.026 430.777 244.731 430.942 243.071 430.942ZM236.745 413.382H240.63V410.315C240.63 408.501 241.045 407.215 241.876 406.457C242.739 405.665 244.084 405.27 245.91 405.27H249.347C249.314 404.05 248.998 403.225 248.401 402.797C247.836 402.368 246.906 402.154 245.611 402.154H240.531C239.169 402.154 238.19 402.401 237.592 402.896C237.027 403.39 236.745 404.313 236.745 405.665V413.382ZM225.289 408.139C224.857 408.567 224.325 408.782 223.695 408.782C223.097 408.749 222.599 408.518 222.2 408.089C221.769 407.562 221.221 406.952 220.556 406.259C219.892 405.567 219.212 404.891 218.514 404.231C217.85 403.539 217.252 402.978 216.721 402.549C216.323 402.187 216.123 401.741 216.123 401.214C216.157 400.686 216.356 400.224 216.721 399.829C217.12 399.4 217.601 399.169 218.166 399.136C218.73 399.07 219.228 399.219 219.66 399.581C220.191 400.01 220.822 400.571 221.553 401.263C222.283 401.956 222.997 402.648 223.695 403.341C224.392 404 224.956 404.577 225.388 405.072C225.82 405.501 226.019 406.012 225.986 406.605C225.986 407.199 225.753 407.71 225.289 408.139ZM243.071 427.628C244.233 427.628 244.98 427.479 245.312 427.182C245.645 426.853 245.811 426.16 245.811 425.105C245.811 424.05 245.645 423.374 245.312 423.077C244.98 422.747 244.233 422.582 243.071 422.582C241.942 422.582 241.211 422.747 240.879 423.077C240.547 423.374 240.381 424.05 240.381 425.105C240.381 426.16 240.547 426.853 240.879 427.182C241.211 427.479 241.942 427.628 243.071 427.628ZM244.665 413.382H249.397V408.782H247.006C246.076 408.782 245.445 408.947 245.113 409.276C244.814 409.573 244.665 410.2 244.665 411.156V413.382Z" fill="white"/>
<path d="M194.272 418.661C193.95 418.661 193.67 418.551 193.432 418.332C193.195 418.113 193.076 417.827 193.076 417.473V412.623H182.086C181.798 412.623 181.552 412.522 181.348 412.32C181.145 412.101 181.043 411.856 181.043 411.587C181.043 411.301 181.145 411.056 181.348 410.854C181.552 410.652 181.798 410.551 182.086 410.551H185.953V408.151C185.953 407.208 186.08 406.459 186.335 405.903C186.606 405.33 187.055 404.926 187.683 404.69C188.327 404.438 189.209 404.311 190.329 404.311H193.076V400.875H187.301C186.182 402.526 184.944 403.983 183.587 405.246C183.35 405.465 183.061 405.6 182.722 405.65C182.4 405.684 182.103 405.583 181.832 405.347C181.594 405.145 181.467 404.884 181.45 404.564C181.45 404.227 181.577 403.949 181.832 403.73C182.629 403.023 183.392 402.214 184.121 401.305C184.851 400.395 185.512 399.452 186.106 398.475C186.716 397.499 187.225 396.555 187.632 395.646C187.768 395.36 187.988 395.166 188.293 395.065C188.616 394.964 188.912 394.981 189.184 395.115C189.472 395.25 189.667 395.452 189.769 395.722C189.871 395.991 189.854 396.269 189.718 396.555C189.548 396.926 189.37 397.297 189.184 397.667C188.997 398.038 188.802 398.408 188.599 398.779H202.489C202.777 398.779 203.023 398.888 203.227 399.107C203.43 399.309 203.532 399.553 203.532 399.84C203.532 400.126 203.43 400.37 203.227 400.572C203.023 400.774 202.777 400.875 202.489 400.875H195.493V404.311H200.963C201.251 404.311 201.497 404.421 201.7 404.64C201.904 404.842 202.006 405.086 202.006 405.372C202.006 405.659 201.904 405.911 201.7 406.13C201.497 406.349 201.251 406.459 200.963 406.459H195.493V410.551H203.608C203.897 410.551 204.143 410.652 204.346 410.854C204.55 411.056 204.651 411.301 204.651 411.587C204.651 411.856 204.55 412.101 204.346 412.32C204.143 412.522 203.897 412.623 203.608 412.623H195.493V417.473C195.493 417.827 195.374 418.113 195.137 418.332C194.899 418.551 194.611 418.661 194.272 418.661ZM188.319 410.551H193.076V406.459H190.329C189.531 406.459 188.997 406.568 188.726 406.787C188.455 407.006 188.319 407.461 188.319 408.151V410.551Z" fill="white"/>
<path d="M158.862 442.974C156.951 442.974 155.15 442.629 153.456 441.939C151.763 441.249 150.265 440.064 148.963 438.382C147.703 436.701 146.727 434.416 146.032 431.527C145.381 428.595 145.098 424.909 145.185 420.468C145.359 412.103 146.727 405.981 149.288 402.101C151.85 398.177 155.497 396.215 160.23 396.215C162.01 396.215 163.638 396.56 165.114 397.25C166.634 397.94 168.001 398.845 169.217 399.966C169.999 400.613 170.368 401.303 170.324 402.036C170.281 402.769 169.933 403.394 169.282 403.911C168.587 404.429 167.936 404.623 167.328 404.493C166.72 404.364 166.047 404.019 165.309 403.459C164.615 402.812 163.855 402.316 163.03 401.971C162.248 401.626 161.337 401.454 160.295 401.454C157.907 401.454 155.996 402.251 154.563 403.847C153.174 405.399 152.176 407.598 151.568 410.443C150.96 413.246 150.634 416.501 150.591 420.209C151.416 418.786 152.566 417.687 154.042 416.911C155.562 416.092 157.19 415.682 158.927 415.682C161.272 415.682 163.377 416.221 165.244 417.299C167.111 418.377 168.587 419.907 169.673 421.891C170.758 423.831 171.301 426.181 171.301 428.94C171.301 431.656 170.78 434.071 169.738 436.183C168.696 438.296 167.241 439.956 165.375 441.163C163.508 442.37 161.337 442.974 158.862 442.974ZM158.536 437.671C160.837 437.671 162.596 436.83 163.811 435.149C165.027 433.467 165.635 431.398 165.635 428.94C165.635 426.482 165.005 424.521 163.746 423.055C162.487 421.546 160.837 420.791 158.797 420.791C156.539 420.791 154.694 421.61 153.261 423.249C151.828 424.844 151.22 426.892 151.437 429.393C151.654 432.066 152.371 434.114 153.587 435.537C154.802 436.959 156.452 437.671 158.536 437.671Z" fill="white"/>
<path d="M118.009 442.263C115.925 442.263 114.883 441.659 114.883 440.452C114.883 437.261 115.795 434.2 117.618 431.268C119.485 428.336 122.177 425.211 125.694 421.891C127.17 420.468 128.538 419.067 129.797 417.687C131.099 416.264 132.163 414.863 132.988 413.483C133.813 412.104 134.247 410.767 134.291 409.473C134.377 406.93 133.791 405.033 132.532 403.782C131.273 402.532 129.493 401.907 127.192 401.907C125.585 401.907 124.239 402.381 123.154 403.33C122.068 404.235 121.352 405.55 121.005 407.275C120.744 408.223 120.397 408.956 119.963 409.473C119.529 409.991 118.856 410.25 117.944 410.25C117.075 410.25 116.381 409.969 115.86 409.409C115.382 408.805 115.23 407.986 115.404 406.951C115.968 403.761 117.293 401.238 119.377 399.384C121.504 397.53 124.109 396.604 127.192 396.604C129.71 396.604 131.924 397.121 133.835 398.156C135.788 399.147 137.286 400.613 138.328 402.553C139.414 404.494 139.913 406.843 139.826 409.603C139.783 411.629 139.284 413.526 138.328 415.294C137.373 417.019 136.136 418.7 134.616 420.339C133.097 421.977 131.403 423.702 129.536 425.512C127.452 427.625 125.542 429.673 123.805 431.656C122.112 433.597 121.113 435.429 120.809 437.154H136.049C138.133 437.154 139.175 437.994 139.175 439.676C139.175 441.4 138.133 442.263 136.049 442.263H118.009Z" fill="white"/>
<path d="M96.4564 442.974C91.5067 442.974 88.0767 441.055 86.1664 437.218C84.256 433.381 83.3008 427.517 83.3008 419.627C83.3008 411.737 84.256 405.873 86.1664 402.036C88.0767 398.156 91.5067 396.215 96.4564 396.215C101.363 396.215 104.771 398.156 106.681 402.036C108.592 405.873 109.547 411.737 109.547 419.627C109.547 427.517 108.592 433.381 106.681 437.218C104.771 441.055 101.363 442.974 96.4564 442.974ZM96.4564 437.606C98.2799 437.606 99.7344 437.067 100.82 435.989C101.949 434.868 102.752 432.993 103.23 430.363C103.751 427.733 104.011 424.154 104.011 419.627C104.011 415.057 103.751 411.457 103.23 408.827C102.752 406.197 101.949 404.343 100.82 403.265C99.7344 402.144 98.2799 401.583 96.4564 401.583C94.6762 401.583 93.2217 402.144 92.0929 403.265C90.964 404.343 90.1391 406.197 89.6181 408.827C89.0971 411.457 88.8366 415.057 88.8366 419.627C88.8366 424.154 89.0971 427.733 89.6181 430.363C90.1391 432.993 90.964 434.868 92.0929 435.989C93.2217 437.067 94.6762 437.606 96.4564 437.606Z" fill="white"/>
<path d="M56.1261 442.263C54.042 442.263 53 441.659 53 440.452C53 437.261 53.9118 434.2 55.7353 431.268C57.6023 428.336 60.2942 425.211 63.811 421.891C65.2872 420.468 66.6549 419.067 67.914 417.687C69.2165 416.264 70.2803 414.863 71.1052 413.483C71.9302 412.104 72.3643 410.767 72.4078 409.473C72.4946 406.93 71.9084 405.033 70.6493 403.782C69.3902 402.532 67.6101 401.907 65.3089 401.907C63.7025 401.907 62.3565 402.381 61.2711 403.33C60.1856 404.235 59.4693 405.55 59.1219 407.275C58.8614 408.223 58.5141 408.956 58.0799 409.473C57.6457 409.991 56.9727 410.25 56.061 410.25C55.1926 410.25 54.4979 409.969 53.9769 409.409C53.4993 408.805 53.3473 407.986 53.521 406.951C54.0854 403.761 55.4097 401.238 57.4937 399.384C59.6212 397.53 62.2263 396.604 65.3089 396.604C67.8272 396.604 70.0415 397.121 71.9519 398.156C73.9057 399.147 75.4036 400.613 76.4456 402.553C77.5311 404.494 78.0304 406.843 77.9435 409.603C77.9001 411.629 77.4008 413.526 76.4456 415.294C75.4904 417.019 74.253 418.7 72.7334 420.339C71.2138 421.977 69.5205 423.702 67.6535 425.512C65.5694 427.625 63.6591 429.673 61.9224 431.656C60.2291 433.597 59.2305 435.429 58.9265 437.154H74.1662C76.2502 437.154 77.2923 437.994 77.2923 439.676C77.2923 441.4 76.2502 442.263 74.1662 442.263H56.1261Z" fill="white"/>
<path d="M194.272 418.661C193.95 418.661 193.67 418.551 193.432 418.332C193.195 418.113 193.076 417.827 193.076 417.473V412.623H182.086C181.798 412.623 181.552 412.522 181.348 412.32C181.145 412.101 181.043 411.856 181.043 411.587C181.043 411.301 181.145 411.056 181.348 410.854C181.552 410.652 181.798 410.551 182.086 410.551H185.953V408.151C185.953 407.208 186.08 406.459 186.335 405.903C186.606 405.33 187.055 404.926 187.683 404.69C188.327 404.438 189.209 404.311 190.329 404.311H193.076V400.875H187.301C186.182 402.526 184.944 403.983 183.587 405.246C183.35 405.465 183.061 405.6 182.722 405.65C182.4 405.684 182.103 405.583 181.832 405.347C181.594 405.145 181.467 404.884 181.45 404.564C181.45 404.227 181.577 403.949 181.832 403.73C182.629 403.023 183.392 402.214 184.121 401.305C184.851 400.395 185.512 399.452 186.106 398.475C186.716 397.499 187.225 396.555 187.632 395.646C187.768 395.36 187.988 395.166 188.293 395.065C188.616 394.964 188.912 394.981 189.184 395.115C189.472 395.25 189.667 395.452 189.769 395.722C189.871 395.991 189.854 396.269 189.718 396.555C189.548 396.926 189.37 397.297 189.184 397.667C188.997 398.038 188.802 398.408 188.599 398.779H202.489C202.777 398.779 203.023 398.888 203.227 399.107C203.43 399.309 203.532 399.553 203.532 399.84C203.532 400.126 203.43 400.37 203.227 400.572C203.023 400.774 202.777 400.875 202.489 400.875H195.493V404.311H200.963C201.251 404.311 201.497 404.421 201.7 404.64C201.904 404.842 202.006 405.086 202.006 405.372C202.006 405.659 201.904 405.911 201.7 406.13C201.497 406.349 201.251 406.459 200.963 406.459H195.493V410.551H203.608C203.897 410.551 204.143 410.652 204.346 410.854C204.55 411.056 204.651 411.301 204.651 411.587C204.651 411.856 204.55 412.101 204.346 412.32C204.143 412.522 203.897 412.623 203.608 412.623H195.493V417.473C195.493 417.827 195.374 418.113 195.137 418.332C194.899 418.551 194.611 418.661 194.272 418.661ZM188.319 410.551H193.076V406.459H190.329C189.531 406.459 188.997 406.568 188.726 406.787C188.455 407.006 188.319 407.461 188.319 408.151V410.551Z" fill="white"/>
<path d="M190.2 445.363C189.945 445.212 189.793 444.993 189.742 444.706C189.691 444.42 189.742 444.159 189.894 443.923C190.946 442.391 191.65 440.572 192.006 438.466C192.362 436.361 192.54 433.885 192.54 431.039V427.881C192.54 426.904 192.667 426.13 192.922 425.557C193.193 424.984 193.643 424.572 194.27 424.319C194.898 424.05 195.754 423.915 196.84 423.915H203.429C203.734 423.915 203.971 424.024 204.141 424.243C204.327 424.446 204.421 424.681 204.421 424.951C204.421 425.22 204.327 425.464 204.141 425.683C203.971 425.886 203.734 425.987 203.429 425.987H196.84C195.958 425.987 195.364 426.113 195.059 426.366C194.753 426.618 194.601 427.123 194.601 427.881V429.523H199.358C200.834 429.523 201.843 429.852 202.386 430.509C202.928 431.165 203.055 432.159 202.767 433.49C202.309 435.696 201.529 437.725 200.427 439.578C201.512 441.06 202.818 442.349 204.344 443.443C204.582 443.612 204.709 443.847 204.726 444.151C204.743 444.454 204.667 444.723 204.497 444.959C204.327 445.229 204.065 445.389 203.708 445.439C203.352 445.49 203.047 445.414 202.793 445.212C202.097 444.656 201.436 444.066 200.808 443.443C200.198 442.82 199.629 442.155 199.104 441.448C198.527 442.172 197.891 442.854 197.196 443.494C196.517 444.117 195.78 444.715 194.982 445.287C194.711 445.49 194.414 445.574 194.092 445.54C193.787 445.523 193.541 445.389 193.354 445.136C193.168 444.9 193.083 444.622 193.1 444.302C193.134 443.999 193.278 443.763 193.532 443.595C194.38 443.005 195.169 442.374 195.898 441.7C196.628 441.026 197.281 440.285 197.857 439.477C196.551 437.17 195.72 434.525 195.364 431.544H194.601C194.601 433.582 194.508 435.418 194.321 437.052C194.151 438.669 193.863 440.125 193.456 441.422C193.049 442.719 192.481 443.915 191.752 445.01C191.582 445.262 191.345 445.422 191.039 445.49C190.751 445.574 190.471 445.532 190.2 445.363ZM188.572 445.616C188.283 445.616 188.037 445.523 187.834 445.338C187.63 445.153 187.528 444.9 187.528 444.58V437.986C187.528 437.38 187.401 436.968 187.147 436.749C186.909 436.513 186.485 436.395 185.875 436.395H184.781C184.662 438.416 184.433 440.109 184.094 441.473C183.772 442.82 183.348 444.016 182.822 445.06C182.703 445.33 182.508 445.506 182.237 445.591C181.966 445.675 181.686 445.658 181.397 445.54C181.126 445.422 180.948 445.22 180.863 444.934C180.795 444.664 180.821 444.403 180.939 444.151C181.363 443.309 181.711 442.374 181.983 441.346C182.271 440.302 182.483 439.081 182.619 437.683C182.754 436.285 182.822 434.61 182.822 432.656V423.763C182.822 423.46 182.924 423.216 183.127 423.031C183.331 422.846 183.568 422.753 183.84 422.753C184.128 422.753 184.374 422.846 184.577 423.031C184.781 423.216 184.883 423.46 184.883 423.763V429.372H187.147V424.092C187.147 423.772 187.249 423.519 187.452 423.334C187.673 423.149 187.919 423.056 188.19 423.056C188.478 423.056 188.724 423.149 188.928 423.334C189.131 423.519 189.233 423.772 189.233 424.092V429.372H190.607C190.912 429.372 191.158 429.473 191.345 429.675C191.531 429.86 191.624 430.096 191.624 430.382C191.624 430.652 191.531 430.888 191.345 431.09C191.158 431.292 190.912 431.393 190.607 431.393H184.883V432.656C184.883 432.942 184.874 433.229 184.857 433.515C184.857 433.784 184.857 434.054 184.857 434.323H186.028C187.384 434.323 188.326 434.576 188.851 435.081C189.377 435.587 189.64 436.488 189.64 437.784V444.58C189.64 444.9 189.53 445.153 189.309 445.338C189.106 445.523 188.86 445.616 188.572 445.616ZM199.129 437.456C199.808 436.21 200.316 434.812 200.656 433.262C200.791 432.639 200.766 432.201 200.579 431.949C200.393 431.679 199.935 431.544 199.205 431.544H197.348C197.484 432.639 197.705 433.683 198.01 434.677C198.315 435.654 198.688 436.58 199.129 437.456Z" fill="white"/>
</svg>
