<svg xmlns="http://www.w3.org/2000/svg" width="512" height="512" fill="none" viewBox="0 0 512 512"><path stroke="#fff" stroke-width="8.046" d="M57.023 156.023H454.81v199.906H57.023z"/><path fill="#fff" d="M178.308 319.721q-8.56 0-8.56-8.742V207.895h-31.326q-8.742 0-8.742-7.832t8.742-7.831h79.407q8.56 0 8.56 7.831t-8.56 7.832h-31.326v103.084q0 8.742-8.195 8.742M101.428 319.721q-8.196 0-8.196-8.742V200.974q0-8.742 8.196-8.742 8.378 0 8.378 8.742v110.005q0 8.742-8.378 8.742M389.692 319.72q-1.467 0-2.549-1.082a3.62 3.62 0 0 1-1.004-2.549V262.79q0-1.467 1.004-2.472 1.082-1.081 2.549-1.081 1.545 0 2.549 1.081 1.081 1.005 1.081 2.472v53.299q0 1.468-1.081 2.549-1.004 1.082-2.549 1.082m22.865-22.247q-2.164-1.7-5.176-3.708a174 174 0 0 0-6.025-3.939 120 120 0 0 0-5.793-3.553q-1.236-.696-1.7-2.086a3.52 3.52 0 0 1 .155-2.704q.695-1.312 2.085-1.699 1.469-.463 2.781.155a76 76 0 0 1 6.412 3.63 100 100 0 0 1 6.488 4.171q3.167 2.163 5.485 4.094 1.158 1.005 1.313 2.549.154 1.468-.85 2.627-1.003 1.158-2.472 1.313-1.467.077-2.703-.85M308.893 292.761a3.62 3.62 0 0 1-2.549-1.004 3.62 3.62 0 0 1-1.004-2.549q0-1.545 1.004-2.549a3.63 3.63 0 0 1 2.549-1.004h48.124q1.467 0 2.472 1.004 1.081 1.004 1.081 2.549 0 1.468-1.081 2.549-1.005 1.005-2.472 1.004zM260.923 316.862a3.63 3.63 0 0 1-2.549-1.004q-1.081-1.082-1.081-2.549 0-1.545 1.081-2.55a3.63 3.63 0 0 1 2.549-1.004q2.859 0 4.249-.463 1.467-.541 1.931-1.931.541-1.468.541-4.094v-21.629h-21.165q-1.469 0-2.472-1.004-1.005-1.005-1.004-2.472t1.004-2.472 2.472-1.004h21.165v-9.038q0-1.467 1.004-2.472 1.082-1.081 2.549-1.081 1.545 0 2.549 1.081 1.005 1.005 1.004 2.472v9.038h19.852q1.469 0 2.472 1.004 1.005 1.005 1.004 2.472t-1.004 2.472q-1.003 1.004-2.472 1.004H274.75v21.629q0 5.176-1.39 8.11-1.313 2.936-4.326 4.249-3.012 1.236-8.111 1.236m35.533-45.266q-3.09 0-5.33-2.24t-2.24-5.33q0-3.167 2.24-5.33 2.24-2.24 5.33-2.24 3.168 0 5.33 2.24 2.24 2.163 2.24 5.33 0 3.09-2.24 5.33-2.163 2.24-5.33 2.24m-51.909 36.614q-1.236.772-2.703.387a3.61 3.61 0 0 1-2.163-1.623q-.773-1.312-.386-2.703.463-1.468 1.699-2.24 3.631-2.24 7.261-5.33t6.18-6.334q.927-1.159 2.317-1.391a3.62 3.62 0 0 1 2.704.618q1.236.85 1.467 2.318t-.695 2.626q-1.854 2.472-4.557 5.098a85 85 0 0 1-5.639 4.867q-2.935 2.24-5.485 3.707m57.007-1.545q-1.08 1.005-2.626.927-1.467-.155-2.549-1.235a58 58 0 0 0-2.935-2.704 119 119 0 0 0-3.708-3.244 63 63 0 0 0-3.785-3.09q-1.777-1.39-3.09-2.163a3.62 3.62 0 0 1-1.545-2.317 3.62 3.62 0 0 1 .618-2.704q.85-1.236 2.24-1.468 1.468-.309 2.704.541 2.085 1.314 4.944 3.553a159 159 0 0 1 5.638 4.635q2.781 2.318 4.403 4.094 1.081 1.081.927 2.626-.077 1.469-1.236 2.549m-5.098-38.854q1.623 0 2.704-1.081 1.159-1.16 1.159-2.704 0-1.622-1.159-2.703-1.081-1.16-2.704-1.159-1.545 0-2.703 1.159-1.082 1.08-1.082 2.703 0 1.545 1.082 2.704 1.158 1.081 2.703 1.081"/><path fill="#fff" d="M389.692 319.72q-1.467 0-2.549-1.082a3.62 3.62 0 0 1-1.004-2.549V262.79q0-1.467 1.004-2.472 1.082-1.081 2.549-1.081 1.545 0 2.549 1.081 1.081 1.005 1.081 2.472v53.299q0 1.468-1.081 2.549-1.004 1.082-2.549 1.082m22.865-22.247q-2.164-1.7-5.176-3.708a174 174 0 0 0-6.025-3.939 120 120 0 0 0-5.793-3.553q-1.236-.696-1.7-2.086a3.52 3.52 0 0 1 .155-2.704q.695-1.312 2.085-1.699 1.469-.463 2.781.155a76 76 0 0 1 6.412 3.63 100 100 0 0 1 6.488 4.171q3.167 2.163 5.485 4.094 1.158 1.005 1.313 2.549.154 1.468-.85 2.627-1.003 1.158-2.472 1.313-1.467.077-2.703-.85M308.893 292.761a3.62 3.62 0 0 1-2.549-1.004 3.62 3.62 0 0 1-1.004-2.549q0-1.545 1.004-2.549a3.63 3.63 0 0 1 2.549-1.004h48.124q1.467 0 2.472 1.004 1.081 1.004 1.081 2.549 0 1.468-1.081 2.549-1.005 1.005-2.472 1.004zM260.923 316.862a3.63 3.63 0 0 1-2.549-1.004q-1.081-1.082-1.081-2.549 0-1.545 1.081-2.55a3.63 3.63 0 0 1 2.549-1.004q2.859 0 4.249-.463 1.467-.541 1.931-1.931.541-1.468.541-4.094v-21.629h-21.165q-1.469 0-2.472-1.004-1.005-1.005-1.004-2.472t1.004-2.472 2.472-1.004h21.165v-9.038q0-1.467 1.004-2.472 1.082-1.081 2.549-1.081 1.545 0 2.549 1.081 1.005 1.005 1.004 2.472v9.038h19.852q1.469 0 2.472 1.004 1.005 1.005 1.004 2.472t-1.004 2.472q-1.003 1.004-2.472 1.004H274.75v21.629q0 5.176-1.39 8.11-1.313 2.936-4.326 4.249-3.012 1.236-8.111 1.236m35.533-45.266q-3.09 0-5.33-2.24t-2.24-5.33q0-3.167 2.24-5.33 2.24-2.24 5.33-2.24 3.168 0 5.33 2.24 2.24 2.163 2.24 5.33 0 3.09-2.24 5.33-2.163 2.24-5.33 2.24m-51.909 36.614q-1.236.772-2.703.387a3.61 3.61 0 0 1-2.163-1.623q-.773-1.312-.386-2.703.463-1.468 1.699-2.24 3.631-2.24 7.261-5.33t6.18-6.334q.927-1.159 2.317-1.391a3.62 3.62 0 0 1 2.704.618q1.236.85 1.467 2.318t-.695 2.626q-1.854 2.472-4.557 5.098a85 85 0 0 1-5.639 4.867q-2.935 2.24-5.485 3.707m57.007-1.545q-1.08 1.005-2.626.927-1.467-.155-2.549-1.235a58 58 0 0 0-2.935-2.704 119 119 0 0 0-3.708-3.244 63 63 0 0 0-3.785-3.09q-1.777-1.39-3.09-2.163a3.62 3.62 0 0 1-1.545-2.317 3.62 3.62 0 0 1 .618-2.704q.85-1.236 2.24-1.468 1.468-.309 2.704.541 2.085 1.314 4.944 3.553a159 159 0 0 1 5.638 4.635q2.781 2.318 4.403 4.094 1.081 1.081.927 2.626-.077 1.469-1.236 2.549m-5.098-38.854q1.623 0 2.704-1.081 1.159-1.16 1.159-2.704 0-1.622-1.159-2.703-1.081-1.16-2.704-1.159-1.545 0-2.703 1.159-1.082 1.08-1.082 2.703 0 1.545 1.082 2.704 1.158 1.081 2.703 1.081M315.845 247.154q-1.313.618-2.78.155-1.39-.541-2.009-1.854-.618-1.314-.154-2.704.464-1.467 1.776-2.085 11.278-5.408 20.239-13.364 9.037-8.033 14.445-17.534 3.398-6.026-4.558-6.026h-21.783q-1.468 0-2.549-1.081a3.62 3.62 0 0 1-1.004-2.549q0-1.469 1.004-2.472 1.081-1.081 2.549-1.081h21.783q6.18 0 9.424 2.162 3.322 2.163 3.631 5.948.386 3.786-2.395 8.652a65 65 0 0 1-2.395 3.785 76 76 0 0 1-2.703 3.785q3.708 2.935 7.647 6.643a252 252 0 0 1 7.416 7.107q3.476 3.476 5.638 5.87 1.082 1.005 1.082 2.472t-1.082 2.549a3.62 3.62 0 0 1-2.549 1.004q-1.467 0-2.549-1.081a345 345 0 0 1-3.862-3.94 157 157 0 0 0-5.098-5.175 283 283 0 0 0-5.639-5.484 107 107 0 0 0-5.33-4.867q-5.794 6.334-13.054 11.819-7.261 5.484-15.141 9.346M242.461 236.031a3.62 3.62 0 0 1-2.704.618q-1.39-.232-2.24-1.468-.849-1.236-.618-2.703.232-1.468 1.468-2.318 4.171-2.935 8.188-7.106a85.5 85.5 0 0 0 7.261-8.574q3.245-4.404 5.021-8.034.618-1.313 2.008-1.777 1.469-.54 2.781.078 1.314.618 1.777 2.085.54 1.39-.155 2.704-1.39 2.858-3.939 6.488-2.472 3.631-5.639 7.339a94 94 0 0 1-6.489 7.029q-3.399 3.321-6.72 5.639m59.633-.618q-1.236.773-2.703.386-1.468-.386-2.24-1.699-1.391-2.395-3.631-5.407a119 119 0 0 0-4.944-6.334 130 130 0 0 0-5.561-6.257q-2.859-3.09-5.485-5.485a3.5 3.5 0 0 1-1.158-2.472q0-1.544 1.004-2.549 1.081-1.082 2.549-1.158 1.467-.078 2.549 1.004a120 120 0 0 1 5.639 5.716q2.935 3.167 5.793 6.566a120 120 0 0 1 5.33 6.643q2.472 3.321 4.094 6.18.773 1.236.386 2.703-.308 1.39-1.622 2.163m-3.707-28.04q-3.09 0-5.33-2.24t-2.241-5.33q0-3.167 2.241-5.33 2.24-2.24 5.33-2.24 3.167 0 5.329 2.24 2.241 2.163 2.241 5.33 0 3.09-2.241 5.33-2.162 2.24-5.329 2.24m0-3.785q1.622 0 2.703-1.081 1.16-1.16 1.159-2.704 0-1.622-1.159-2.704-1.082-1.158-2.703-1.158-1.545 0-2.704 1.158-1.081 1.082-1.081 2.704 0 1.545 1.081 2.704 1.159 1.08 2.704 1.081M158.862 442.974q-2.866 0-5.406-1.035t-4.493-3.557q-1.89-2.522-2.931-6.855-.977-4.398-.847-11.059.261-12.547 4.103-18.367 3.843-5.886 10.942-5.886 2.67 0 4.884 1.035 2.28 1.035 4.103 2.716 1.173.97 1.107 2.07-.065 1.1-1.042 1.875-1.042.777-1.954.582-.912-.194-2.019-1.034a7.7 7.7 0 0 0-2.279-1.488q-1.173-.517-2.735-.517-3.582 0-5.732 2.393-2.083 2.328-2.995 6.596-.912 4.204-.977 9.766a8.45 8.45 0 0 1 3.451-3.298 10.14 10.14 0 0 1 4.885-1.229q3.517 0 6.317 1.617t4.429 4.592q1.628 2.91 1.628 7.049 0 4.075-1.563 7.243-1.564 3.17-4.363 4.98t-6.513 1.811m-.326-5.303q3.452 0 5.275-2.522 1.824-2.523 1.824-6.209 0-3.687-1.889-5.885-1.889-2.264-4.949-2.264-3.387 0-5.536 2.458-2.15 2.392-1.824 6.144.326 4.01 2.15 6.144 1.823 2.133 4.949 2.134M118.009 442.263q-3.126 0-3.126-1.811 0-4.786 2.735-9.184 2.8-4.398 8.076-9.377a92 92 0 0 0 4.103-4.204q1.953-2.134 3.191-4.204t1.303-4.01q.13-3.815-1.759-5.691t-5.34-1.875q-2.41 0-4.038 1.423-1.629 1.358-2.149 3.945-.391 1.422-1.042 2.198-.651.777-2.019.777-1.303 0-2.084-.841-.717-.906-.456-2.458.846-4.786 3.973-7.567 3.19-2.78 7.815-2.78 3.777 0 6.643 1.552 2.93 1.487 4.493 4.397 1.629 2.91 1.498 7.05a12.35 12.35 0 0 1-1.498 5.691q-1.432 2.587-3.712 5.045a137 137 0 0 1-5.08 5.173 143 143 0 0 0-5.731 6.144q-2.54 2.911-2.996 5.498h15.24q3.126 0 3.126 2.522 0 2.587-3.126 2.587zM96.456 442.974q-7.425 0-10.29-5.756t-2.865-17.591 2.865-17.591q2.865-5.82 10.29-5.821 7.36 0 10.225 5.821 2.866 5.756 2.866 17.591t-2.866 17.591q-2.865 5.756-10.225 5.756m0-5.368q2.736 0 4.364-1.617 1.693-1.681 2.41-5.626.781-3.945.781-10.736 0-6.855-.781-10.8-.717-3.945-2.41-5.562-1.629-1.682-4.364-1.682-2.67 0-4.363 1.682-1.694 1.617-2.475 5.562-.78 3.945-.781 10.8 0 6.79.781 10.736.781 3.945 2.475 5.626 1.693 1.617 4.363 1.617M56.126 442.263q-3.126 0-3.126-1.811 0-4.786 2.735-9.184 2.801-4.398 8.076-9.377a92 92 0 0 0 4.103-4.204q1.953-2.134 3.191-4.204t1.303-4.01q.13-3.815-1.759-5.691t-5.34-1.875q-2.41 0-4.038 1.423-1.628 1.358-2.15 3.945-.39 1.422-1.041 2.198-.651.777-2.019.777-1.302 0-2.084-.841-.717-.906-.456-2.458.847-4.786 3.973-7.567 3.19-2.78 7.815-2.78 3.778 0 6.643 1.552 2.931 1.487 4.494 4.397 1.627 2.91 1.498 7.05a12.36 12.36 0 0 1-1.498 5.691q-1.434 2.587-3.713 5.045a137 137 0 0 1-5.08 5.173 142 142 0 0 0-5.73 6.144q-2.541 2.911-2.997 5.498h15.24q3.126 0 3.126 2.522 0 2.587-3.126 2.587zM436.338 443.11q-.947 0-1.594-.643-.648-.594-.648-1.583v-8.656q-2.192 1.681-5.18 3.413a65 65 0 0 1-6.227 3.165 62 62 0 0 1-6.176 2.375q-.947.296-1.694 0-.747-.297-1.096-1.138-.298-.693 0-1.435.3-.741 1.096-.939a60 60 0 0 0 5.28-1.831 90 90 0 0 0 5.43-2.423 65 65 0 0 0 4.881-2.671h-14.943q-.648 0-1.146-.495t-.498-1.138q0-.692.498-1.137.498-.495 1.146-.495h18.629v-3.017h-6.027q-4.085 0-5.678-1.385-1.594-1.385-1.594-4.947v-9.052a39 39 0 0 1-2.292 2.375 64 64 0 0 1-2.291 2.077 2.8 2.8 0 0 1-1.544.643q-.897.05-1.594-.593-.548-.545-.598-1.385-.05-.841.598-1.336a42 42 0 0 0 4.184-3.907 62 62 0 0 0 3.835-4.601q1.843-2.423 3.139-4.649.447-.792 1.245-1.039a2.2 2.2 0 0 1 1.644.148q.797.346 1.046 1.188.249.84-.2 1.533a70 70 0 0 1-1.095 1.682q-.549.84-1.146 1.681h8.816q.4-.989.947-2.324.548-1.385.896-2.276.4-.989 1.295-1.286.897-.346 1.744-.049.946.346 1.295 1.039.349.692-.05 1.533a50 50 0 0 0-.747 1.682 41 41 0 0 1-.797 1.681h14.395q.697 0 1.146.495.498.495.498 1.286 0 .742-.498 1.237-.448.495-1.146.494h-14.943v2.622h12.303q.698 0 1.096.544.399.495.399 1.138t-.399 1.187q-.398.495-1.096.495h-12.303v2.621h12.303q.698 0 1.096.544.399.495.399 1.138t-.399 1.187q-.398.495-1.096.495h-12.303v2.621h15.491q.698 0 1.146.495.498.445.498 1.187t-.498 1.286q-.448.495-1.146.495h-15.491v3.017h18.38q.697 0 1.146.495.498.445.498 1.137 0 .643-.498 1.138-.448.495-1.146.495h-14.744a59 59 0 0 0 4.832 2.621 78 78 0 0 0 5.379 2.375 78 78 0 0 0 5.33 1.78q.798.247 1.096 1.039a1.92 1.92 0 0 1 0 1.484 1.95 1.95 0 0 1-1.146 1.088q-.797.346-1.743.05a67 67 0 0 1-6.077-2.375 77 77 0 0 1-6.176-3.116q-2.94-1.731-5.131-3.413v8.607q0 .989-.647 1.583-.648.643-1.594.643m-11.258-28.096h9.016v-2.621h-9.016zm0-5.985h9.016v-2.622h-9.016zm3.686 11.97h5.33v-2.621h-8.966q.1 1.533.847 2.077.797.544 2.789.544M396.191 428.617q-3.139 0-4.882-.643t-2.441-2.127q-.647-1.485-.647-3.958v-9.15q0-3.266 1.195-4.749 1.196-1.533 4.583-1.83a159 159 0 0 0 1.046-3.463h-7.82q-.798 0-1.345-.494a1.84 1.84 0 0 1-.498-1.286q0-.792.498-1.286a1.83 1.83 0 0 1 1.345-.544h19.974q.747 0 1.295.544.548.494.548 1.286 0 .741-.548 1.286-.548.495-1.295.494h-7.721a30 30 0 0 1-.548 1.682q-.299.94-.548 1.682h.15q3.188 0 4.881.643 1.743.594 2.391 2.078.698 1.434.698 3.957v9.15q0 2.473-.698 3.958-.648 1.483-2.391 2.127-1.694.642-4.881.643zm-32.278 13.108q-.797-.396-1.046-1.188-.199-.741.199-1.434a30.6 30.6 0 0 0 2.092-4.303 45 45 0 0 0 1.694-4.897 35 35 0 0 0 .996-4.798q.1-.841.747-1.237a2.36 2.36 0 0 1 1.495-.297q.846.099 1.295.693.498.543.398 1.385a25 25 0 0 1-.398 2.176 51 51 0 0 1-.448 2.177q1.593 2.028 3.387 3.462v-11.772h-8.767q-.797 0-1.345-.544a1.81 1.81 0 0 1-.548-1.336q0-.792.548-1.336a1.84 1.84 0 0 1 1.345-.544h19.127q.798 0 1.345.544.548.544.548 1.336t-.548 1.336a1.84 1.84 0 0 1-1.345.544h-6.326v4.451h5.28q.798 0 1.345.544.548.544.548 1.336t-.548 1.336a1.84 1.84 0 0 1-1.345.544h-5.28v5.836q2.391.94 5.529 1.385t7.372.446h6.127q2.092-.05 4.085-.05h3.486a75 75 0 0 1 1.993-.049q.996-.1 1.644.445.697.544.597 1.583-.05 2.028-2.54 2.028h-15.392q-5.33 0-9.264-.742-3.936-.742-6.924-2.375-2.939-1.681-5.33-4.402a49 49 0 0 1-1.395 3.512 41 41 0 0 1-1.594 3.215 1.95 1.95 0 0 1-1.245 1.039 2.06 2.06 0 0 1-1.594-.049m11.108-26.266q-4.533 0-6.276-1.533-1.694-1.534-1.694-5.194v-3.462q0-3.71 1.694-5.194 1.743-1.534 6.276-1.534h.946q4.584 0 6.277 1.534 1.693 1.483 1.693 5.194v3.462q0 3.66-1.693 5.194t-6.277 1.533zm30.285 20.726a86 86 0 0 1-1.843-1.138q-1.096-.742-2.142-1.484a156 156 0 0 1-1.743-1.336q-.648-.543-.698-1.335a1.9 1.9 0 0 1 .449-1.385 1.93 1.93 0 0 1 1.345-.643 2.23 2.23 0 0 1 1.444.396q.697.494 1.744 1.187 1.046.692 2.141 1.385 1.096.642 1.843 1.088.698.396.847 1.237.2.84-.249 1.533-.498.791-1.444.89a3.07 3.07 0 0 1-1.694-.395m-16.039 0a2.94 2.94 0 0 1-1.743.445q-.897-.05-1.445-.841a2.16 2.16 0 0 1-.349-1.484q.15-.841.997-1.286.746-.446 1.793-1.088 1.095-.693 2.142-1.385 1.095-.742 1.793-1.237.648-.495 1.444-.396.798.05 1.295.693.499.643.449 1.385-.05.741-.648 1.286-.647.544-1.693 1.286a48 48 0 0 1-2.142 1.434q-1.047.693-1.893 1.188m3.038-17.362h10.112v-3.117h-10.112zm3.886 6.232h2.341q2.44 0 3.138-.544.747-.545.747-2.523h-10.112q0 1.978.698 2.523.747.544 3.188.544m-3.886-12.465h10.112q0-1.93-.747-2.423-.747-.545-3.138-.545h-2.341q-2.391 0-3.138.545-.748.494-.748 2.423m-17.284-.692h.946q2.442 0 3.139-.544.747-.594.747-2.622v-.099h-8.717v.099q0 2.028.697 2.622.747.544 3.188.544m-3.885-6.529h8.717v-.099q0-2.028-.747-2.573-.697-.593-3.139-.593h-.946q-2.44 0-3.188.593-.697.545-.697 2.573zM349.667 442.615q-1.095 0-1.743-.643-.598-.644-.697-1.632a2.23 2.23 0 0 1 .547-1.633q.598-.741 1.694-.791 1.594-.148 2.341-.396.747-.297.947-.89.249-.594.249-1.731v-19.934h-6.575q-4.234 0-6.028-1.435-1.793-1.484-1.793-5.441v-2.424q0-3.956 1.793-5.54 1.794-1.632 6.028-1.632h3.138q4.184 0 5.977 1.632 1.793 1.583 1.793 5.54v30.124q0 3.66-1.793 5.243-1.743 1.583-5.878 1.583m-31.63.247a2.2 2.2 0 0 1-1.544-.593q-.647-.594-.647-1.583v-35.07q0-3.957 1.793-5.54t6.027-1.583h2.889q4.234 0 5.977 1.583 1.794 1.583 1.794 5.54v2.473q0 3.957-1.794 5.441-1.743 1.435-5.977 1.435h-6.326v25.721q0 .989-.647 1.583a2.2 2.2 0 0 1-1.545.593m18.381-8.359q-3.437 0-5.43-.791-1.943-.792-2.739-2.424-.798-1.681-.797-4.353 0-2.671.797-4.303.797-1.683 2.739-2.424 1.993-.792 5.43-.792 3.486 0 5.429.792 1.942.741 2.74 2.424.846 1.632.846 4.303t-.846 4.353q-.798 1.632-2.74 2.424-1.943.79-5.429.791m0-3.809q2.789 0 3.686-.742.946-.79.946-3.017 0-2.177-.946-2.918-.897-.792-3.686-.792-2.74 0-3.686.792-.897.741-.897 2.918 0 2.226.897 3.017.946.742 3.686.742m10.41-19.489h6.177v-2.819h-10.112q.15 1.682.996 2.275.847.544 2.939.544m-26.599 0h5.928q2.092 0 2.938-.544.847-.593.947-2.275h-9.813zm22.664-6.282h10.062q-.15-1.632-.996-2.176-.848-.544-2.939-.544h-2.192q-2.042 0-2.939.544-.846.544-.996 2.176m-22.664 0h9.813q-.1-1.632-.996-2.176-.848-.544-2.889-.544h-1.993q-2.042 0-2.939.544-.846.544-.996 2.176M306.63 441.576q-.896.594-1.942.396-1.047-.149-1.594-.989a33 33 0 0 0-1.295-1.831q-.697-.94-1.495-1.978-2.241.347-5.429.791-3.188.396-6.824.792-3.636.445-7.273.841-3.586.395-6.724.692a130 130 0 0 1-5.33.495q-1.195.099-1.942-.495-.698-.594-.797-1.682-.05-1.038.597-1.681.648-.643 1.744-.742 1.195-.099 2.739-.198 1.545-.149 3.387-.346 1.046-1.633 2.342-4.007a178 178 0 0 0 2.64-4.946 94 94 0 0 0 2.241-4.452h-15.74a2.2 2.2 0 0 1-1.544-.594 2.17 2.17 0 0 1-.598-1.533q0-.89.598-1.484a2.11 2.11 0 0 1 1.544-.643h18.38v-8.211h-14.146a2.15 2.15 0 0 1-1.495-.594 2.11 2.11 0 0 1-.597-1.484q0-.84.597-1.434.648-.643 1.495-.643h14.146v-6.035q0-1.088.697-1.731.698-.643 1.694-.643t1.694.643.697 1.731v6.035h14.246q.847 0 1.444.643.648.594.648 1.434 0 .842-.648 1.484-.598.594-1.444.594h-14.246v8.211h18.38q.847 0 1.494.643.648.594.648 1.484t-.648 1.533a2.14 2.14 0 0 1-1.494.594h-20.323a109 109 0 0 1-1.992 3.957 131 131 0 0 1-2.491 4.6 141 141 0 0 1-2.49 4.303q3.038-.296 6.126-.593 3.139-.346 5.928-.643 2.84-.297 5.031-.544a47 47 0 0 0-2.192-2.671q-1.096-1.287-1.992-2.226-.648-.742-.648-1.633 0-.939.797-1.632a2.3 2.3 0 0 1 1.744-.643 2.4 2.4 0 0 1 1.693.792q1.146 1.236 2.59 2.918a510 510 0 0 1 2.989 3.512 102 102 0 0 1 2.839 3.512q1.346 1.632 2.142 2.77.598.84.448 1.83-.1 1.039-1.046 1.731M230.768 435.195a2.15 2.15 0 0 1-1.495-.593q-.647-.594-.647-1.533v-12.614q0-2.967.946-4.55.996-1.633 3.138-2.177v-8.458q0-3.512 1.794-5.046 1.793-1.582 5.678-1.582h5.778q3.885 0 5.678 1.582 1.843 1.534 1.843 5.046v8.508q2.142.543 3.039 2.127.946 1.583.946 4.55v8.557q0 3.315-1.444 4.749-1.445 1.385-4.981 1.434-1.047 0-1.644-.544-.548-.543-.648-1.484-.05-.89.449-1.533.547-.643 1.345-.742 1.743-.198 2.191-.544.498-.346.498-1.731v-7.618q0-2.177-.946-3.066-.897-.891-3.188-.891h-12.054q-2.292 0-3.238.891-.897.89-.896 3.066v12.07q0 .939-.648 1.533-.598.594-1.494.593m12.452 6.233q-5.08 0-8.816-.445t-6.426-1.534q-2.64-1.038-4.632-2.869-.797.544-1.943 1.336-1.095.791-2.092 1.484-.996.742-1.494 1.088-.797.495-1.793.346-.996-.148-1.495-.989-.498-.84-.249-1.731.25-.94 1.096-1.336l2.391-1.335a65 65 0 0 0 2.939-1.682v-11.575q0-1.286-.448-1.731-.448-.495-1.744-.494h-2.49q-.897 0-1.445-.594-.548-.643-.548-1.434 0-.841.548-1.435t1.445-.593h3.885q4.881 0 4.881 4.896v12.317a15.7 15.7 0 0 0 4.234 2.721q2.292.939 5.679 1.335 3.387.346 8.517.346 4.633 0 8.169-.099 3.587-.1 6.227-.296 1.046-.099 1.743.494.697.594.697 1.534 0 .939-.597 1.533-.598.594-1.744.643h-4.383q-2.54.05-5.23.049-2.64.05-4.882.05m-.149-10.486q-2.44 0-3.885-.495t-2.043-1.731q-.597-1.286-.597-3.611t.597-3.562q.599-1.236 2.043-1.731t3.885-.494q2.49 0 3.885.494 1.445.495 2.042 1.731.598 1.237.598 3.562t-.598 3.611q-.597 1.236-2.042 1.731-1.395.495-3.885.495m-6.326-17.56h3.885v-3.067q0-2.721 1.246-3.858 1.295-1.187 4.034-1.187h3.437q-.05-1.83-.946-2.473-.847-.643-2.79-.643h-5.08q-2.043 0-2.939.742-.847.741-.847 2.769zm-11.456-5.243q-.649.643-1.594.643a2.13 2.13 0 0 1-1.495-.693 32 32 0 0 0-1.644-1.83 59 59 0 0 0-2.042-2.028 20 20 0 0 0-1.793-1.682 1.74 1.74 0 0 1-.598-1.335q.05-.792.598-1.385.598-.643 1.445-.693a1.9 1.9 0 0 1 1.494.445q.797.644 1.893 1.682 1.095 1.039 2.142 2.078a26 26 0 0 1 1.693 1.731q.648.644.598 1.533 0 .89-.697 1.534m17.782 19.489q1.743 0 2.241-.446.5-.494.499-2.077 0-1.582-.499-2.028-.498-.495-2.241-.495-1.694 0-2.192.495-.498.446-.498 2.028t.498 2.077q.498.446 2.192.446m1.594-14.246h4.732v-4.6h-2.391q-1.395 0-1.893.494-.448.446-.448 1.88zM194.272 418.661a1.2 1.2 0 0 1-.84-.329q-.356-.328-.356-.859v-4.85h-10.99a1 1 0 0 1-.738-.303 1.06 1.06 0 0 1-.305-.733q0-.43.305-.733a1 1 0 0 1 .738-.303h3.867v-2.4q0-1.414.382-2.248.406-.86 1.348-1.213.966-.379 2.646-.379h2.747v-3.436h-5.775a25.4 25.4 0 0 1-3.714 4.371 1.6 1.6 0 0 1-.865.404q-.483.051-.89-.303a1.06 1.06 0 0 1-.382-.783q0-.506.382-.834a20 20 0 0 0 2.289-2.425q1.095-1.365 1.985-2.83.915-1.465 1.526-2.829.204-.43.661-.581.484-.151.891.05.432.202.585.607t-.051.833a34 34 0 0 1-1.119 2.224h13.89q.432 0 .738.328a1 1 0 0 1 .305.733q0 .429-.305.732a1 1 0 0 1-.738.303h-6.996v3.436h5.47a.97.97 0 0 1 .737.329 1 1 0 0 1 .306.732q0 .43-.306.758a.97.97 0 0 1-.737.329h-5.47v4.092h8.115q.433 0 .738.303a1 1 0 0 1 .305.733q0 .404-.305.733a1 1 0 0 1-.738.303h-8.115v4.85q0 .53-.356.859a1.23 1.23 0 0 1-.865.329m-5.953-8.11h4.757v-4.092h-2.747q-1.197 0-1.603.328-.407.329-.407 1.364z"/><path fill="#fff" d="M158.862 442.974q-2.866 0-5.406-1.035t-4.493-3.557q-1.89-2.522-2.931-6.855-.977-4.398-.847-11.059.261-12.547 4.103-18.367 3.843-5.886 10.942-5.886 2.67 0 4.884 1.035 2.28 1.035 4.103 2.716 1.173.97 1.107 2.07-.065 1.1-1.042 1.875-1.042.777-1.954.582-.912-.194-2.019-1.034a7.7 7.7 0 0 0-2.279-1.488q-1.173-.517-2.735-.517-3.582 0-5.732 2.393-2.083 2.328-2.995 6.596-.912 4.204-.977 9.766a8.45 8.45 0 0 1 3.451-3.298 10.14 10.14 0 0 1 4.885-1.229q3.517 0 6.317 1.617t4.429 4.592q1.628 2.91 1.628 7.049 0 4.075-1.563 7.243-1.564 3.17-4.363 4.98t-6.513 1.811m-.326-5.303q3.452 0 5.275-2.522 1.824-2.523 1.824-6.209 0-3.687-1.889-5.885-1.889-2.264-4.949-2.264-3.387 0-5.536 2.458-2.15 2.392-1.824 6.144.326 4.01 2.15 6.144 1.823 2.133 4.949 2.134M118.009 442.263q-3.126 0-3.126-1.811 0-4.786 2.735-9.184 2.8-4.398 8.076-9.377a92 92 0 0 0 4.103-4.204q1.953-2.134 3.191-4.204t1.303-4.01q.13-3.815-1.759-5.691t-5.34-1.875q-2.41 0-4.038 1.423-1.629 1.358-2.149 3.945-.391 1.422-1.042 2.198-.651.777-2.019.777-1.303 0-2.084-.841-.717-.906-.456-2.458.846-4.786 3.973-7.567 3.19-2.78 7.815-2.78 3.777 0 6.643 1.552 2.93 1.487 4.493 4.397 1.629 2.91 1.498 7.05a12.35 12.35 0 0 1-1.498 5.691q-1.432 2.587-3.712 5.045a137 137 0 0 1-5.08 5.173 143 143 0 0 0-5.731 6.144q-2.54 2.911-2.996 5.498h15.24q3.126 0 3.126 2.522 0 2.587-3.126 2.587zM96.456 442.974q-7.425 0-10.29-5.756t-2.865-17.591 2.865-17.591q2.865-5.82 10.29-5.821 7.36 0 10.225 5.821 2.866 5.756 2.866 17.591t-2.866 17.591q-2.865 5.756-10.225 5.756m0-5.368q2.736 0 4.364-1.617 1.693-1.681 2.41-5.626.781-3.945.781-10.736 0-6.855-.781-10.8-.717-3.945-2.41-5.562-1.629-1.682-4.364-1.682-2.67 0-4.363 1.682-1.694 1.617-2.475 5.562-.78 3.945-.781 10.8 0 6.79.781 10.736.781 3.945 2.475 5.626 1.693 1.617 4.363 1.617M56.126 442.263q-3.126 0-3.126-1.811 0-4.786 2.735-9.184 2.801-4.398 8.076-9.377a92 92 0 0 0 4.103-4.204q1.953-2.134 3.191-4.204t1.303-4.01q.13-3.815-1.759-5.691t-5.34-1.875q-2.41 0-4.038 1.423-1.628 1.358-2.15 3.945-.39 1.422-1.041 2.198-.651.777-2.019.777-1.302 0-2.084-.841-.717-.906-.456-2.458.847-4.786 3.973-7.567 3.19-2.78 7.815-2.78 3.778 0 6.643 1.552 2.931 1.487 4.494 4.397 1.627 2.91 1.498 7.05a12.36 12.36 0 0 1-1.498 5.691q-1.434 2.587-3.713 5.045a137 137 0 0 1-5.08 5.173 142 142 0 0 0-5.73 6.144q-2.541 2.911-2.997 5.498h15.24q3.126 0 3.126 2.522 0 2.587-3.126 2.587zM194.272 418.661a1.2 1.2 0 0 1-.84-.329q-.356-.328-.356-.859v-4.85h-10.99a1 1 0 0 1-.738-.303 1.06 1.06 0 0 1-.305-.733q0-.43.305-.733a1 1 0 0 1 .738-.303h3.867v-2.4q0-1.414.382-2.248.406-.86 1.348-1.213.966-.379 2.646-.379h2.747v-3.436h-5.775a25.4 25.4 0 0 1-3.714 4.371 1.6 1.6 0 0 1-.865.404q-.483.051-.89-.303a1.06 1.06 0 0 1-.382-.783q0-.506.382-.834a20 20 0 0 0 2.289-2.425q1.095-1.365 1.985-2.83.915-1.465 1.526-2.829.204-.43.661-.581.484-.151.891.05.432.202.585.607t-.051.833a34 34 0 0 1-1.119 2.224h13.89q.432 0 .738.328a1 1 0 0 1 .305.733q0 .429-.305.732a1 1 0 0 1-.738.303h-6.996v3.436h5.47a.97.97 0 0 1 .737.329 1 1 0 0 1 .306.732q0 .43-.306.758a.97.97 0 0 1-.737.329h-5.47v4.092h8.115q.433 0 .738.303a1 1 0 0 1 .305.733q0 .404-.305.733a1 1 0 0 1-.738.303h-8.115v4.85q0 .53-.356.859a1.23 1.23 0 0 1-.865.329m-5.953-8.11h4.757v-4.092h-2.747q-1.197 0-1.603.328-.407.329-.407 1.364zM190.2 445.363a.92.92 0 0 1-.458-.657q-.076-.429.152-.783 1.578-2.298 2.112-5.457t.534-7.427v-3.158q0-1.465.382-2.324.407-.859 1.348-1.238.941-.404 2.57-.404h6.589q.457 0 .712.328.28.304.28.708t-.28.732q-.255.304-.712.304h-6.589q-1.323 0-1.781.379-.458.378-.458 1.515v1.642h4.757q2.214 0 3.028.986.813.984.381 2.981-.687 3.309-2.34 6.088a17.3 17.3 0 0 0 3.917 3.865.88.88 0 0 1 .382.708q.026.454-.229.808-.254.405-.789.48-.534.076-.915-.227a25 25 0 0 1-1.985-1.769 19 19 0 0 1-1.704-1.995 18 18 0 0 1-1.908 2.046 24 24 0 0 1-2.214 1.793 1.23 1.23 0 0 1-.89.253.94.94 0 0 1-.738-.404 1.2 1.2 0 0 1-.254-.834.94.94 0 0 1 .432-.707 22 22 0 0 0 2.366-1.895 14.4 14.4 0 0 0 1.959-2.223q-1.959-3.461-2.493-7.933h-.763q0 3.057-.28 5.508-.255 2.425-.865 4.37a14 14 0 0 1-1.704 3.588 1.12 1.12 0 0 1-.713.48 1 1 0 0 1-.839-.127m-1.628.253q-.433 0-.738-.278-.306-.278-.306-.758v-6.594q0-.909-.381-1.237-.357-.354-1.272-.354h-1.094q-.179 3.032-.687 5.078-.483 2.02-1.272 3.587a.92.92 0 0 1-.585.531 1.2 1.2 0 0 1-.84-.051.92.92 0 0 1-.534-.606 1.14 1.14 0 0 1 .076-.783q.636-1.263 1.044-2.805.432-1.566.636-3.663.203-2.096.203-5.027v-8.893q0-.454.305-.732t.713-.278q.432 0 .737.278.306.277.306.732v5.609h2.264v-5.28q0-.48.305-.758.332-.278.738-.278.432 0 .738.278.305.278.305.758v5.28h1.374q.457 0 .738.303a.96.96 0 0 1 .279.707q0 .405-.279.708-.28.303-.738.303h-5.724v1.263q0 .43-.026.859v.808h1.171q2.035 0 2.823.758.789.759.789 2.703v6.796q0 .48-.331.758a1.06 1.06 0 0 1-.737.278m10.557-8.16q1.018-1.869 1.527-4.194.203-.935-.077-1.313-.279-.405-1.374-.405h-1.857q.204 1.642.662 3.133.457 1.465 1.119 2.779"/></svg>