<svg xmlns="http://www.w3.org/2000/svg" width="1143" height="874" fill="none" viewBox="0 0 1143 874"><path fill="#fff" d="M1142.96 11.193a5 5 0 0 0-4.34-5.58L1093.97.038a5 5 0 0 0-5.58 4.342 4.993 4.993 0 0 0 4.34 5.581l39.69 4.954-4.95 39.692a4.993 4.993 0 0 0 4.34 5.58 5 5 0 0 0 5.58-4.342zM34 869.574l3.07 3.946 1104-859-3.07-3.946-3.07-3.946-1104 859z"/><g filter="url(#a)"><rect width="321.428" height="145.214" x="4" y="694.574" fill="#9ca3af" rx="72.607" shape-rendering="crispEdges"/><rect width="316.428" height="140.214" x="6.5" y="697.074" stroke="#fff" stroke-width="5" rx="70.107" shape-rendering="crispEdges"/><path fill="#fff" d="M55.48 763.036h67.686v8.989H55.48zm5.665-18.659h56.506v8.989H61.145zm23.116-11.332h9.67v70.935h-9.67zm-1.586 35.203 7.856 3.248a82 82 0 0 1-6.194 8.763 81 81 0 0 1-7.555 8.008 84 84 0 0 1-8.385 6.95 74 74 0 0 1-8.763 5.439q-.755-1.209-1.964-2.644a42 42 0 0 0-2.417-2.795q-1.21-1.436-2.342-2.418a68 68 0 0 0 8.687-4.532 76 76 0 0 0 8.31-5.968 71 71 0 0 0 7.177-6.799q3.248-3.626 5.59-7.252m12.918.076q2.266 3.625 5.514 7.252a78 78 0 0 0 7.252 6.798 85 85 0 0 0 8.159 5.968 71 71 0 0 0 8.612 4.533q-1.058.83-2.342 2.266a45 45 0 0 0-2.342 2.871 40 40 0 0 0-1.889 2.719q-4.381-2.341-8.687-5.514a90 90 0 0 1-8.31-6.95 94 94 0 0 1-7.478-8.083 82 82 0 0 1-6.12-8.688zm48.951-9.519h34.825v7.857h-34.825zm-13.522 16.997h67.61v8.31h-67.61zm29.084-4.91h9.292v23.343q0 3.474-.983 5.439-.981 1.963-3.701 2.946-2.72.982-6.346 1.209-3.625.226-8.46.226-.454-1.964-1.587-4.532-1.058-2.494-2.115-4.306l4.91.151q2.493.075 4.382.075 1.964 0 2.719-.075 1.133 0 1.511-.302.378-.303.378-1.058zm16.392-12.087h2.191l1.964-.453 5.666 4.381q-2.493 2.795-5.817 5.591a90 90 0 0 1-6.95 5.288 64 64 0 0 1-7.327 4.23q-.831-1.209-2.342-2.72a75 75 0 0 0-2.417-2.568 42.5 42.5 0 0 0 5.816-3.626 61 61 0 0 0 5.364-4.306q2.417-2.267 3.852-4.079zm-44.494-13.824h65.797v18.508h-8.914v-10.501h-48.422v10.501h-8.461zm52.275-11.482 9.821 2.87a153 153 0 0 1-5.364 7.403q-2.794 3.626-5.061 6.119l-7.479-2.719a49 49 0 0 0 2.946-4.306 91 91 0 0 0 2.871-4.759 55 55 0 0 0 2.266-4.608m-47.214 3.701 7.706-3.475a54 54 0 0 1 4.003 5.061q1.965 2.72 2.871 4.911l-8.159 3.852q-.83-2.115-2.719-4.985a59 59 0 0 0-3.702-5.364m18.961-1.662 8.008-2.946q1.813 2.418 3.475 5.515 1.737 3.096 2.493 5.439l-8.536 3.324q-.605-2.266-2.191-5.44-1.51-3.247-3.249-5.892m59.301 36.638h50.84v31.955h-9.442v-25.156h-32.408v25.156h-8.99zm4.533 11.181h39.357v6.798H219.86zm.529 11.18h39.206v6.874h-39.206zm15.033-29.311 9.745 1.36a73 73 0 0 1-3.022 5.59 113 113 0 0 1-2.795 4.457l-7.403-1.586a72 72 0 0 0 1.964-4.91q1.057-2.72 1.511-4.911m-28.253-28.857h24.324v7.026h-24.324zm22.285 0h8.234v25.08q0 2.569-.68 4.004t-2.417 2.342q-1.814.755-4.382.906-2.568.076-5.968.076-.227-1.436-.906-3.248a33 33 0 0 0-1.36-3.173q1.964.075 3.777.075h2.569q.603 0 .831-.226.302-.303.302-.831zm12.238 0h26.062v7.026h-26.062zm21.831 0h8.461v24.854q0 2.794-.755 4.306-.68 1.434-2.644 2.341-1.889.831-4.684 1.058-2.72.151-6.421.075-.226-1.586-.982-3.474-.68-1.965-1.435-3.4 2.19.076 4.306.151h2.87q.68-.075.982-.302.303-.227.302-.831zm-24.022 22.285a347 347 0 0 0 9.594-3.022q5.514-1.889 11.18-3.852l1.435 6.496a1059 1059 0 0 1-9.971 3.778 1762 1762 0 0 1-9.216 3.323zm3.475-10.802 4.381-5.364q2.493 1.209 5.439 3.022 3.022 1.737 4.684 3.248l-4.608 5.892q-1.51-1.586-4.457-3.475-2.871-1.964-5.439-3.323m-37.847 12.086a318 318 0 0 0 8.99-2.87 709 709 0 0 0 10.727-3.777l1.359 6.572a461 461 0 0 0-9.291 3.928 368 368 0 0 1-8.612 3.551zm4.004-12.011 4.306-5.212q2.493 1.208 5.363 3.021 2.871 1.738 4.457 3.249l-4.532 5.816q-1.512-1.586-4.306-3.55-2.796-1.964-5.288-3.324"/></g><rect width="241.428" height="140.214" x="239.5" y="538.074" fill="#fca5a5" rx="70.107"/><rect width="241.428" height="140.214" x="239.5" y="538.074" stroke="#fff" stroke-width="5" rx="70.107"/><path fill="#fff" d="M288.977 600.107h66.931v8.461h-66.931zm28.706-7.478h9.292v29.159h-9.292zm-15.41 41.019h40.868v8.385h-40.868zm-5.364-17.375h51.747v28.48h-9.367v-20.094h-33.466v20.17h-8.914zm-7.781-36.109h66.553v8.31h-66.553zm15.336-6.194h8.989v22.058h-8.989zm26.742 0h8.989v22.058h-8.989zm88.158-.151 6.572 7.554q-5.817 1.51-12.691 2.644a345 345 0 0 1-14.127 1.888q-7.327.756-14.731 1.285a512 512 0 0 1-14.277.68q-.226-1.739-.907-4.08-.68-2.417-1.359-3.928a340 340 0 0 0 13.899-.755 379 379 0 0 0 13.976-1.285 252 252 0 0 0 12.918-1.737q6.042-.982 10.727-2.266m-50.765 21.454h59.679v8.687h-59.679zm-5.212 17.601h69.423v8.914h-69.423zm29.99-28.328h9.443v49.555q0 4.08-1.133 6.044-1.058 2.04-3.853 3.173-2.644.981-6.874 1.284-4.155.302-9.972.227-.227-1.285-.906-2.947a57 57 0 0 0-1.36-3.248 46 46 0 0 0-1.436-2.795q2.871.076 5.666.151t4.986.076h3.097q1.284-.076 1.813-.529.53-.453.529-1.587z"/><rect width="392.428" height="140.214" x="362.5" y="369.074" fill="#fcd34d" rx="70.107"/><rect width="392.428" height="140.214" x="362.5" y="369.074" stroke="#fff" stroke-width="5" rx="70.107"/><path fill="#fff" d="M459.376 444.478q0-2.493-1.285-4.532-1.208-2.04-3.701-3.248-2.418-1.285-6.044-1.285-4.078 0-7.932.68-3.777.68-6.798 1.587a223 223 0 0 0-4.911 1.435q-1.661.453-3.701 1.284-1.964.756-3.626 1.36l-2.871-10.803q1.965-.15 4.23-.528 2.267-.378 4.08-.756 2.794-.68 6.345-1.435a96 96 0 0 1 7.857-1.436 61 61 0 0 1 8.612-.604q6.043 0 10.576 2.266 4.608 2.191 7.176 6.346t2.569 10.047q0 6.043-2.644 10.954-2.644 4.91-7.479 8.612-4.835 3.625-11.407 6.043t-14.429 3.475l-5.439-9.367q7.026-.831 12.691-2.418 5.742-1.586 9.745-4.003 4.08-2.493 6.195-5.817 2.19-3.399 2.191-7.857m-29.689-36.26q3.25.68 7.781 1.284 4.608.605 9.443 1.058 4.91.453 9.292.755 4.457.227 7.403.302l-1.511 9.292a479 479 0 0 1-7.781-.604 901 901 0 0 1-9.216-.831 1245 1245 0 0 1-9.216-1.058q-4.382-.604-7.705-1.133zm69.877 3.928q.906.076 2.569.227 1.662.075 3.55.075h9.367l6.421-.151q3.249-.15 5.893-.226 2.72-.076 4.155-.151a262 262 0 0 1 2.87-.303q1.511-.226 2.569-.528l5.061 6.647a40 40 0 0 0-2.191 1.285q-1.209.755-1.964 1.284a129 129 0 0 0-3.777 2.87 164 164 0 0 1-4.533 3.551 1503 1503 0 0 0-4.91 3.853l-4.986 3.777a25 25 0 0 1 3.778-.756q1.963-.226 3.399-.226 6.648 0 11.709 2.417 5.061 2.418 7.856 6.572 2.796 4.155 2.796 9.443 0 7.479-4.457 12.691-4.382 5.213-13.523 7.479-9.064 2.341-23.04 1.284l-2.644-9.82q7.857.981 14.051.755 6.194-.302 10.425-1.813 4.305-1.587 6.572-4.23 2.266-2.72 2.266-6.422 0-4.457-3.852-7.403-3.778-3.021-10.274-3.021-4.382 0-8.234 1.284a32.5 32.5 0 0 0-7.177 3.475 54 54 0 0 0-6.497 5.061 135 135 0 0 0-6.118 5.892l-7.101-7.478a265 265 0 0 0 6.874-5.364q3.852-3.097 7.932-6.421a693 693 0 0 0 8.007-6.648 456 456 0 0 0 6.95-5.967q3.098-2.796 4.911-4.684-1.285 0-3.173.075a150 150 0 0 0-4.004.227q-2.19.152-4.306.302-2.115.076-3.928.151-1.737.076-2.871.151-1.36.076-3.173.303-1.812.15-3.097.377zm84.759 29.613v3.475h24.324v-3.475zm0 8.536v3.626h24.324v-3.626zm0-17.148v3.475h24.324v-3.475zm-8.385-5.363h41.548v31.576h-41.548zm7.554 29.386h9.292q-.68 3.927-2.116 7.025-1.359 3.098-4.23 5.363-2.871 2.267-7.856 3.853-4.986 1.662-12.767 2.72-.303-1.134-1.058-2.644a33 33 0 0 0-1.662-2.946q-.906-1.36-1.813-2.267 6.724-.604 10.878-1.435 4.155-.906 6.422-2.191 2.342-1.284 3.399-3.097 1.058-1.889 1.511-4.381m16.619-.076h8.99v8.234q0 1.51.528 1.889.605.302 2.796.302h8.007q1.209 0 1.813-.378.68-.454.907-1.888.302-1.436.453-4.457.907.68 2.266 1.359 1.435.605 2.946 1.133 1.587.454 2.72.68-.453 4.684-1.587 7.177t-3.172 3.399q-2.04.982-5.364.982h-10.198q-4.533 0-6.95-.982-2.342-.906-3.248-3.172-.907-2.191-.907-5.893zm-35.656-40.113h64.74v16.695h-8.687v-9.216h-47.743v9.216h-8.31zm50.236-11.558 9.745 2.946a687 687 0 0 1-4.986 6.27q-2.493 3.022-4.533 5.213l-7.478-2.795a86 86 0 0 0 2.644-3.627 91 91 0 0 0 2.568-4.079 50 50 0 0 0 2.04-3.928m-46.006 4.079 7.706-3.399q1.964 2.04 3.928 4.683 2.04 2.57 3.022 4.609l-8.31 3.777q-.83-1.965-2.644-4.684-1.813-2.794-3.702-4.986m19.264-1.813 7.932-2.719q1.586 2.19 3.248 5.061 1.662 2.795 2.417 4.835l-8.309 3.097q-.68-2.04-2.191-4.986t-3.097-5.288m69.877.227q3.172.605 7.252 1.209 4.079.529 8.385 1.057 4.382.53 8.309.907 4.005.302 6.875.528l-1.209 8.839a418 418 0 0 1-6.95-.604q-3.928-.454-8.234-.982-4.23-.53-8.385-1.058-4.155-.529-7.479-1.133zm33.465 24.022a48 48 0 0 0-2.72 2.04 28 28 0 0 0-2.19 1.813q-1.36 1.058-3.173 2.72a258 258 0 0 1-3.626 3.399 123 123 0 0 0-3.4 3.097 63 63 0 0 0-2.115 2.191q.453-.075 1.36.075.906.151 1.511.454 1.662.529 2.719 1.813 1.058 1.208 1.813 3.324.378.982.68 2.266l.756 2.417q.377 1.209.755 2.191.53 1.738 1.813 2.644 1.284.906 3.475.906a98 98 0 0 0 5.59-.151q2.644-.226 4.986-.528a63 63 0 0 0 4.23-.68l-.604 9.896q-1.511.301-4.306.529a96 96 0 0 1-5.666.453 94 94 0 0 1-4.834.151q-5.364 0-8.461-1.435-3.022-1.36-4.457-5.062a61 61 0 0 0-.755-2.568 80 80 0 0 1-.831-2.795q-.303-1.436-.605-2.342-.605-2.04-1.737-2.795-1.133-.831-2.267-.831-1.208 0-2.417.831-1.209.755-2.568 2.191a86 86 0 0 0-1.889 1.964 92 92 0 0 1-2.493 2.719 251 251 0 0 0-2.87 3.249 611 611 0 0 1-3.022 3.626 134 134 0 0 0-3.173 3.928l-8.914-6.27a62 62 0 0 1 2.342-2.04q1.359-1.209 2.871-2.644l2.795-2.795a290 290 0 0 1 4.154-4.23 232 232 0 0 0 4.986-4.986 550 550 0 0 1 5.288-5.364 416 416 0 0 0 4.91-4.985q2.342-2.418 4.08-4.231a124 124 0 0 0-3.551.227q-1.964.076-4.079.226-2.115.077-4.155.303-2.04.15-3.777.302-1.738.151-3.097.302-1.965.151-3.626.453-1.662.227-2.871.378l-.906-10.425q1.284.075 3.248.227 1.964.075 4.004 0 1.057 0 3.475-.076 2.493-.076 5.741-.226t6.572-.303q3.4-.227 6.346-.453 3.021-.302 4.834-.529 1.058-.15 2.342-.377 1.36-.227 1.964-.454z"/><rect width="241.428" height="140.214" x="663.5" y="207.074" fill="#6ee7b7" rx="70.107"/><rect width="241.428" height="140.214" x="663.5" y="207.074" stroke="#fff" stroke-width="5" rx="70.107"/><path fill="#fff" d="M747.954 261.326v3.778h19.792v-3.778zm0-9.745v3.702h19.792v-3.702zm-8.688-6.421h37.62v26.365h-37.62zm-3.853 29.688h43.891v7.404h-43.891zm-1.888 11.634h47.365v7.705h-47.365zm27.8-5.137h9.14v23.645q0 3.097-.755 4.835-.68 1.813-2.871 2.719-2.115.983-5.061 1.133-2.87.227-6.724.227-.226-1.814-1.057-4.079-.83-2.267-1.738-4.004 2.343.076 4.609.151h3.097q.83-.075 1.057-.302.303-.303.303-.907zm-22.814 16.619 6.345-4.23a93 93 0 0 1 5.062 4.986q2.643 2.794 4.079 4.986l-6.723 4.759q-.831-1.436-2.342-3.248a66 66 0 0 0-3.173-3.702 59 59 0 0 0-3.248-3.551m-10.35-38.3 7.932 3.324q-2.72 4.684-6.421 9.368a120 120 0 0 1-7.781 8.914q-4.079 4.154-8.007 7.252a48 48 0 0 0-1.133-2.795 38 38 0 0 0-1.587-3.626q-.83-1.813-1.586-2.871a73 73 0 0 0 6.799-5.515 91 91 0 0 0 6.496-6.723q3.098-3.626 5.288-7.328m-1.964-16.543 8.612 3.475q-2.493 3.474-5.817 7.025a85 85 0 0 1-6.874 6.572q-3.626 3.097-7.252 5.439-.453-1.057-1.284-2.493a43 43 0 0 0-1.662-2.87q-.831-1.436-1.511-2.342 2.946-1.813 5.968-4.306a62 62 0 0 0 5.59-5.212q2.644-2.796 4.23-5.288m-5.514 33.465 8.385-8.385.453.151v45.552h-8.838zm85.136 10.123h32.785v-3.324h-32.785zm0-8.612h32.785v-3.249h-32.785zm41.775-8.763v22.965h-50.387v-22.965zm-6.195-15.184a192 192 0 0 1-2.266 4.004 132 132 0 0 1-1.888 3.021l-8.008-1.737a60 60 0 0 0 1.511-3.475 49 49 0 0 0 1.209-3.475zm-29.537-1.662a21 21 0 0 1 1.587 3.55q.755 1.889 1.133 3.324l-8.612 1.964q-.302-1.51-.982-3.55-.604-2.04-1.36-3.626zm14.58-9.518v9.14h-9.065v-9.14zm28.48 16.543v7.026h-65.647v-7.026zm-4.004-12.464v7.025h-58.017v-7.025zm-47.063 50.462a45.4 45.4 0 0 1-4.079 8.31q-2.418 3.928-6.421 6.648l-7.101-4.835q3.55-2.191 6.118-5.666 2.57-3.475 3.853-7.176zm41.397-3.626a60 60 0 0 1 4.759 4.306 78 78 0 0 1 4.457 4.835q2.04 2.416 3.173 4.608l-7.479 4.381q-1.057-2.038-3.021-4.608a62 62 0 0 0-4.231-4.986 57 57 0 0 0-4.683-4.608zm-26.289-3.324a60 60 0 0 1 4.533 2.116 63 63 0 0 1 4.532 2.492q2.191 1.209 3.551 2.418l-5.212 5.288q-1.285-1.209-3.4-2.493a59 59 0 0 0-4.381-2.644 55 55 0 0 0-4.457-2.342zm-4.381 13.069q0 1.51.755 1.889.83.302 3.4.302h10.349q1.436 0 2.115-.378.68-.453.982-1.737.378-1.36.529-4.004 1.36.906 3.626 1.737 2.342.756 4.079 1.058-.453 4.306-1.586 6.572-1.133 2.342-3.248 3.173-2.04.906-5.666.907h-12.238q-4.76 0-7.327-.831-2.569-.83-3.551-2.947-.982-2.039-.982-5.59v-8.007h8.763z"/><rect width="241.428" height="140.214" x="862.5" y="42.074" fill="#7c3aed" rx="70.107"/><rect width="241.428" height="140.214" x="862.5" y="42.074" stroke="#fff" stroke-width="5" rx="70.107"/><path fill="#fff" d="M925.651 99.424h39.206v8.234h-39.206zM911.6 113.097h67.686v8.461H911.6zm18.281 6.799h9.82q-.528 5.212-1.737 9.745a25.3 25.3 0 0 1-3.853 8.158q-2.568 3.627-7.252 6.497t-12.087 4.835q-.453-1.21-1.359-2.72a33 33 0 0 0-1.889-3.022q-1.058-1.435-2.04-2.341 6.497-1.436 10.35-3.475 3.928-2.04 5.892-4.609a16.05 16.05 0 0 0 2.871-5.892q.906-3.324 1.284-7.176m19.49-1.511h9.14v18.432q0 1.813.529 2.342.605.453 2.644.453h7.555q1.208 0 1.813-.604.68-.604.906-2.569.302-2.04.453-5.967.982.68 2.418 1.359 1.435.68 2.946 1.209 1.586.53 2.795.907-.453 5.439-1.587 8.46-1.133 3.097-3.248 4.231-2.04 1.208-5.666 1.208h-9.744q-4.382 0-6.799-.982-2.342-.982-3.249-3.399-.906-2.417-.906-6.497zm-8.99-40.34h9.67v13.749h-9.67zm-27.422 7.252h64.891v17.979h-9.669v-9.367h-46.005v9.367h-9.217zm79.093 34.901h58.768v6.572h-58.768zm28.708-37.394h33.01v6.27h-33.01zm-1.36 12.691h36.41v6.422h-36.41zm1.74 10.35h32.48v6.345h-32.48zm-26.217 24.476h52.277v6.27h-52.277zm-7.479 10.802h67.456v6.874h-67.456zm28.786-17.375h9.14v20.699h-9.14zm16.92-45.778h8.38v8.007h-8.38zm0 20.774h8.38v19.943h-8.38zm-39.285-18.508h23.345v16.468h-23.345v-6.119h15.185V86.28h-15.185zm-4.079 0h7.856v9.14q0 3.93-.604 8.839a47.4 47.4 0 0 1-2.115 9.745q-1.51 4.835-4.457 8.687-.453-.831-1.586-2.115a27 27 0 0 0-2.191-2.493q-1.134-1.209-1.889-1.662a23.2 23.2 0 0 0 3.324-6.95 38.3 38.3 0 0 0 1.36-7.403q.302-3.778.302-6.874zm52.654 8.158 7.33 1.134c-.61 1.309-1.16 2.518-1.67 3.626-.45 1.057-.88 2.04-1.28 2.946l-6.72-1.058c.4-1.007.83-2.115 1.28-3.324.45-1.259.81-2.367 1.06-3.324m-12.09 49.858 4.76-4.154c1.11.554 2.24 1.158 3.4 1.813 1.21.654 2.34 1.334 3.4 2.039 1.11.655 2.04 1.259 2.8 1.813l-4.84 4.684c-.75-.604-1.69-1.284-2.79-2.04a46 46 0 0 0-3.4-2.19 40 40 0 0 0-3.33-1.965m-5.36-48.422 6.5-1.436c.5.957.98 2.04 1.43 3.249.45 1.158.76 2.165.91 3.022l-6.8 1.586c-.1-.856-.35-1.889-.76-3.097a20 20 0 0 0-1.28-3.324m-24.17 16.166v5.212h9.66v-5.212zm-7.257-5.892h24.477v16.921h-24.477z"/><defs><filter id="a" width="329.428" height="153.214" x="0" y="694.574" color-interpolation-filters="sRGB" filterUnits="userSpaceOnUse"><feFlood flood-opacity="0" result="BackgroundImageFix"/><feColorMatrix in="SourceAlpha" result="hardAlpha" values="0 0 0 0 0 0 0 0 0 0 0 0 0 0 0 0 0 0 127 0"/><feOffset dy="4"/><feGaussianBlur stdDeviation="2"/><feComposite in2="hardAlpha" operator="out"/><feColorMatrix values="0 0 0 0 0 0 0 0 0 0 0 0 0 0 0 0 0 0 0.25 0"/><feBlend in2="BackgroundImageFix" result="effect1_dropShadow_3799_3808"/><feBlend in="SourceGraphic" in2="effect1_dropShadow_3799_3808" result="shape"/></filter></defs></svg>