<svg xmlns="http://www.w3.org/2000/svg" width="1166" height="777" fill="none" viewBox="0 0 1166 777"><path stroke="#fff" stroke-width="8.461" d="M22.169 120.307v572.541M1100.97 697.078H17.939"/><g filter="url(#a)"><path stroke="#ffabbc" stroke-linecap="round" stroke-width="14.102" d="M1092.84 666.124c-427.766 0-1061.045-205.185-1061.045-537.453"/></g><g stroke="#b8ff45" stroke-linecap="round" filter="url(#b)"><path stroke-width="14.102" d="M305.619 305.042c-70.874 0-273.579-124.872-273.579-176.275M579.2 296.581c-70.874 0-273.579-124.872-273.579-176.275M1103.79 200.688c-229.86 26.794-469.594-50.767-524.592-88.843"/><path stroke-dasharray="14.1 11.28" stroke-width="11.282" d="M305.621 120.306v177.685M579.198 111.845V289.53"/></g><path fill="#fff" d="M6.198 767.572v-5.701H13.8v-21.237H7.386v-4.371q2.661-.522 4.56-1.235a21 21 0 0 0 3.612-1.71h5.178v28.553h6.604v5.701zm37.24.665q-3.326 0-5.796-1.663-2.422-1.662-3.753-4.798t-1.33-7.507q0-4.323 1.567-7.411 1.615-3.136 4.181-4.846t5.416-1.71q2.233 0 3.754.807 1.568.76 2.993 2.091l-.238-4.181v-9.36h6.984v37.913h-5.701l-.523-2.756h-.19a14.5 14.5 0 0 1-3.373 2.423 8.46 8.46 0 0 1-3.99.998m1.806-5.749q1.424 0 2.613-.617 1.235-.665 2.375-2.138v-11.687q-1.188-1.093-2.47-1.521a7 7 0 0 0-2.518-.475q-1.472 0-2.756.95-1.235.903-1.995 2.708t-.76 4.466q0 2.755.617 4.609.666 1.852 1.9 2.803 1.236.902 2.994.902M289.443 768.237q-2.755 0-4.941-.665-2.185-.618-3.895-1.71a16 16 0 0 1-2.898-2.518l3.278-4.419a20 20 0 0 0 3.515 2.566q1.948 1.045 4.324 1.045 1.805 0 3.135-.523 1.378-.57 2.091-1.615.76-1.045.76-2.518 0-1.662-.855-2.851-.808-1.235-2.898-1.852-2.091-.666-5.891-.666v-5.036q3.23 0 5.083-.665 1.852-.665 2.613-1.805.808-1.14.808-2.613 0-2.043-1.235-3.136t-3.469-1.092a7.3 7.3 0 0 0-3.468.855q-1.567.807-3.135 2.28l-3.611-4.276q2.328-1.995 4.893-3.183t5.654-1.188q3.373 0 5.939 1.093 2.613 1.045 4.038 3.136 1.425 2.043 1.425 4.988 0 2.755-1.52 4.704-1.521 1.9-4.323 3.04v.238q1.947.522 3.515 1.663a8.05 8.05 0 0 1 2.518 2.85q.95 1.663.95 3.944 0 3.135-1.71 5.368-1.662 2.233-4.513 3.421-2.803 1.14-6.177 1.14m28.166 0q-3.325 0-5.796-1.663-2.423-1.662-3.753-4.798t-1.33-7.507q0-4.323 1.567-7.411 1.616-3.136 4.181-4.846t5.416-1.71q2.233 0 3.754.807 1.567.76 2.993 2.091l-.238-4.181v-9.36h6.984v37.913h-5.701l-.523-2.756h-.19a14.5 14.5 0 0 1-3.373 2.423 8.46 8.46 0 0 1-3.991.998m1.806-5.749q1.425 0 2.613-.617 1.235-.665 2.375-2.138v-11.687q-1.188-1.093-2.47-1.521a7 7 0 0 0-2.518-.475q-1.473 0-2.756.95-1.235.903-1.995 2.708t-.761 4.466q0 2.755.618 4.609.666 1.852 1.9 2.803 1.236.902 2.994.902"/><path fill="#ffdbe3" d="M242.138 637.707h7.538v11.086q0 1.393.634 1.774.633.38 2.85.38h8.742q1.267 0 1.901-.444.633-.507.95-1.963.317-1.458.443-4.498.824.57 1.964 1.14 1.203.507 2.47.95 1.331.38 2.344.634-.443 4.37-1.457 6.715-.95 2.406-2.85 3.294-1.901.95-5.131.95h-10.262q-4.055 0-6.272-.824-2.217-.823-3.04-2.787-.824-1.9-.824-5.258zm4.434-3.864 5.131-4.561a38 38 0 0 1 4.498 2.597 51 51 0 0 1 4.371 3.168q2.027 1.583 3.294 3.104l-5.511 5.004q-1.077-1.457-3.041-3.104a49 49 0 0 0-4.244-3.294 51 51 0 0 0-4.498-2.914m21.982 5.638 6.524-3.041a56 56 0 0 1 4.118 4.941 47 47 0 0 1 3.674 5.385q1.647 2.724 2.47 5.068l-7.031 3.42q-.633-2.217-2.154-4.941a57 57 0 0 0-3.484-5.574 53 53 0 0 0-4.117-5.258m-35.601-2.344 6.841 2.091a58 58 0 0 1-3.04 9.121q-1.837 4.371-5.131 7.412l-6.398-4.118q2.977-2.533 4.877-6.397a36.2 36.2 0 0 0 2.851-8.109m-5.131-30.723h55.618v7.032h-55.618zm23.818-7.348h7.602v9.439h-7.602zm-16.66 10.262h7.602v10.579q0 1.647.823 2.407.887.76 3.674.76h20.714q1.711 0 3.674-.063a603 603 0 0 0 3.865-.253q1.9-.127 3.104-.317a87 87 0 0 0 .38 3.547q.253 2.028.443 3.421-.95.19-2.787.317-1.837.126-4.054.19-2.154.063-4.181.063h-20.461q-4.688 0-7.538-.887-2.788-.95-4.054-3.167-1.204-2.217-1.204-6.208zm114.023 40.288q-2.217 2.028-5.131 3.358t-6.778 1.33q-3.547 0-5.764-2.47-2.154-2.47-2.154-7.095 0-2.534.316-5.448.38-2.978.824-5.955t.76-5.637q.38-2.724.38-4.878 0-2.344-1.14-3.484-1.14-1.203-3.167-1.204-2.217 0-4.941 1.584-2.724 1.521-5.575 3.927a70 70 0 0 0-5.448 5.132q-2.534 2.723-4.434 5.194l-.063-9.755q1.14-1.267 2.977-2.978a82 82 0 0 1 4.244-3.547 58 58 0 0 1 5.005-3.421q2.66-1.647 5.321-2.66 2.724-1.014 5.257-1.014 3.421 0 5.575 1.267 2.217 1.204 3.294 3.357 1.077 2.091 1.077 4.751 0 2.47-.317 5.385-.316 2.85-.76 5.828a149 149 0 0 0-.76 5.891 62 62 0 0 0-.254 5.321q0 1.267.634 2.09.633.76 1.774.761 1.773 0 3.927-1.141 2.154-1.203 4.308-3.42zM305.231 619.4q-1.014.127-2.597.317-1.584.19-3.421.443-1.773.253-3.611.507-1.837.254-3.42.444l-.824-8.109q1.394.064 2.597.064a235 235 0 0 1 2.914-.127q1.52-.126 3.611-.317 2.154-.253 4.307-.57a75 75 0 0 0 4.118-.697q1.9-.38 2.977-.76l2.534 3.231q-.57.76-1.33 1.9-.697 1.14-1.457 2.344-.76 1.14-1.33 2.027l-3.738 11.909q-1.013 1.457-2.534 3.674a836 836 0 0 1-3.104 4.688 307 307 0 0 1-3.23 4.751 164 164 0 0 1-2.851 3.991l-5.004-6.905q1.203-1.52 2.724-3.484 1.583-2.027 3.294-4.244 1.71-2.281 3.357-4.498a627 627 0 0 0 3.041-4.244 97 97 0 0 0 2.407-3.484l.126-1.647zm-.76-12.162v-2.787q0-1.458-.254-2.914l9.249.316q-.38 1.457-.824 4.245a461 461 0 0 0-.823 6.271 732 732 0 0 0-.76 7.475 478 478 0 0 0-.57 7.728q-.19 3.864-.19 7.221v5.258l.126 5.448q.064 2.787.254 5.764.063.824.19 2.281.126 1.52.253 2.597h-8.742q.127-1.14.127-2.534.063-1.394.063-2.154.064-3.103.127-5.764t.063-5.638q.064-2.977.19-6.905.064-1.457.19-3.674.127-2.28.254-4.941.19-2.724.38-5.511t.317-5.194q.19-2.47.253-4.181.127-1.774.127-2.407m76.142-4.878a37 37 0 0 0-.76 3.104 154 154 0 0 0-.57 2.851 310 310 0 0 1-1.141 5.257q-.633 3.105-1.457 6.588a172 172 0 0 1-1.583 6.652 134 134 0 0 1-2.027 7.285 286 286 0 0 1-2.598 7.918 199 199 0 0 1-2.723 7.665 104 104 0 0 1-2.724 6.461l-8.805-2.977q1.393-2.408 2.977-5.828a105 105 0 0 0 3.04-7.475 162 162 0 0 0 2.788-7.918 142 142 0 0 0 2.153-7.285 117 117 0 0 0 1.204-4.561q.57-2.343 1.014-4.561.443-2.217.76-4.117.38-1.964.57-3.421a50 50 0 0 0 .253-3.547q.063-1.774-.063-2.851zm-16.153 9.439q3.863 0 8.045-.38 4.18-.381 8.425-1.077a142 142 0 0 0 8.425-1.647v7.918a106 106 0 0 1-8.362 1.52q-4.434.634-8.742 1.014-4.308.317-7.918.317-2.28 0-4.118-.064a112 112 0 0 0-3.547-.19l-.19-7.918q2.47.254 4.244.38 1.774.127 3.738.127m19.89 9.692q2.661-.254 5.891-.444a108 108 0 0 1 6.272-.19q2.724 0 5.511.127 2.85.126 5.638.443l-.19 7.602a78 78 0 0 0-5.195-.507 63 63 0 0 0-5.701-.253q-3.23 0-6.271.19-2.978.126-5.955.507zm3.421 15.963a27 27 0 0 0-.634 2.787q-.252 1.394-.253 2.471 0 1.013.444 1.9.443.886 1.393 1.584.95.633 2.597 1.013 1.71.38 4.245.38 3.23 0 6.461-.316 3.294-.381 6.715-1.014l-.317 8.108q-2.661.318-5.891.57-3.231.318-7.032.317-7.981 0-12.226-2.597-4.18-2.66-4.18-7.475 0-2.154.38-4.371t.76-4.117zm36.487 16.343q-2.534 0-4.181-1.773-1.647-1.774-1.647-4.308 0-2.661 1.647-4.371t4.181-1.71q2.47 0 4.118 1.71 1.647 1.71 1.647 4.371 0 2.534-1.647 4.308-1.647 1.773-4.118 1.773m20.6 0q-2.534 0-4.181-1.773-1.647-1.774-1.647-4.308 0-2.661 1.647-4.371t4.181-1.71q2.47 0 4.118 1.71 1.647 1.71 1.647 4.371 0 2.534-1.647 4.308-1.647 1.773-4.118 1.773m20.6 0q-2.534 0-4.181-1.773-1.647-1.774-1.647-4.308 0-2.661 1.647-4.371t4.181-1.71q2.47 0 4.118 1.71 1.647 1.71 1.647 4.371 0 2.534-1.647 4.308-1.647 1.773-4.118 1.773"/><path fill="#eaeeef" d="M895.58 569.251h4.228v33.067h-4.228zm-16.344 19.146 28.458-11.069 1.711 3.943-28.411 11.07zm5.939-14.3h4.418v31.071q0 1.378.285 2.091.285.712 1.093.997.855.238 2.471.238h11.069q1.473 0 2.186-.523.76-.57 1.092-2.043.333-1.472.523-4.228.76.57 1.948 1.093 1.188.475 2.138.712-.286 3.374-1.045 5.369-.713 1.995-2.281 2.803-1.52.855-4.276.855h-11.639q-3.089 0-4.846-.617-1.711-.618-2.423-2.281-.714-1.615-.713-4.513zm20.999 4.133h-.427l.902-.712.808-.665 3.088 1.235-.142.712q0 4.229-.096 7.697-.047 3.468-.142 5.844-.095 2.328-.285 3.373-.237 1.71-.95 2.613-.713.855-1.853 1.235-.998.38-2.471.475a36 36 0 0 1-2.613 0 11.7 11.7 0 0 0-.332-2.138q-.285-1.235-.665-1.995.902.047 1.9.095h1.425q.524 0 .855-.238.38-.237.571-1.045.189-.713.237-2.755.095-2.043.143-5.512.047-3.467.047-8.219m-27.603-8.932 4.133 1.283a74 74 0 0 1-3.61 7.982 75 75 0 0 1-4.514 7.459q-2.375 3.516-4.941 6.224-.237-.523-.665-1.378t-.903-1.711q-.474-.902-.902-1.377 2.28-2.282 4.371-5.226a53 53 0 0 0 3.943-6.367 57 57 0 0 0 3.088-6.889m-4.941 12.591 4.371-4.371.047.047v35.585h-4.418zm67.654-5.179q-.476 3.658-1.236 7.744a66 66 0 0 1-1.947 8.029q-1.426 4.847-3.231 8.219-1.758 3.326-3.848 5.084-2.091 1.758-4.419 1.758-2.375 0-4.418-1.616-2.043-1.662-3.326-4.608-1.283-2.993-1.283-6.936 0-3.991 1.616-7.554a20.8 20.8 0 0 1 4.561-6.319q2.898-2.755 6.746-4.324 3.849-1.567 8.314-1.567 4.276 0 7.697 1.377 3.468 1.378 5.891 3.849a16.1 16.1 0 0 1 3.753 5.701q1.283 3.278 1.283 6.984 0 4.988-2.09 8.884-2.043 3.848-6.034 6.319-3.991 2.423-9.787 3.278l-2.803-4.466q1.235-.143 2.28-.285a72 72 0 0 0 1.948-.38 17.4 17.4 0 0 0 4.324-1.615 14.5 14.5 0 0 0 3.705-2.756 12.4 12.4 0 0 0 2.518-3.991q.951-2.28.951-5.131 0-2.85-.903-5.273-.903-2.471-2.661-4.276-1.758-1.806-4.323-2.803-2.565-1.046-5.796-1.046-3.896 0-6.937 1.378-3.04 1.378-5.178 3.658-2.091 2.233-3.183 4.846-1.093 2.613-1.093 5.036 0 2.709.665 4.514.665 1.758 1.663 2.613.997.855 2.043.855 1.045 0 2.138-1.045 1.092-1.093 2.185-3.421 1.14-2.327 2.233-5.939a59.5 59.5 0 0 0 1.806-7.269 75 75 0 0 0 1.092-7.601zm64.896.38q-.33.38-.81.998c-.28.38-.53.712-.76.997-.66 1.172-1.6 2.55-2.8 4.134a53 53 0 0 1-4.037 4.798 31.3 31.3 0 0 1-4.799 4.181l-3.943-3.183a21 21 0 0 0 3.041-2.138 32 32 0 0 0 2.803-2.661 34 34 0 0 0 2.328-2.66q.997-1.33 1.52-2.376h-26.035q-1.426 0-2.756.095-1.33.048-2.851.191v-5.274q1.33.143 2.756.285 1.425.143 2.851.143h27.842c.54-.032 1.04-.08 1.52-.143q.765-.095 1.14-.19zm-19.192 6.319q0 3.705-.19 7.031a36 36 0 0 1-.903 6.319 21.4 21.4 0 0 1-2.09 5.559q-1.425 2.565-3.848 4.846-2.424 2.28-6.177 4.18l-4.371-3.563a17 17 0 0 0 2.233-.902 15.7 15.7 0 0 0 2.328-1.426q2.566-1.662 4.134-3.61 1.567-1.949 2.328-4.181a21.7 21.7 0 0 0 1.092-4.894q.333-2.613.333-5.558a35 35 0 0 0-.048-1.853 15 15 0 0 0-.237-1.948zm60.192-8.647c0 .824.29 1.52.86 2.091.57.57 1.26.855 2.09.855.82 0 1.52-.285 2.09-.855q.9-.856.9-2.091t-.9-2.09a2.77 2.77 0 0 0-2.09-.903c-.83 0-1.52.301-2.09.903-.57.57-.86 1.267-.86 2.09m-2.52 0q0-1.52.72-2.755a5.55 5.55 0 0 1 1.99-1.948 5.17 5.17 0 0 1 2.76-.761c1.01 0 1.93.254 2.75.761a5.6 5.6 0 0 1 2 1.948c.51.823.76 1.742.76 2.755 0 1.014-.25 1.932-.76 2.756a6 6 0 0 1-2 1.995c-.82.475-1.74.713-2.75.713-1.02 0-1.93-.238-2.76-.713a6 6 0 0 1-1.99-1.995q-.72-1.235-.72-2.756m4.85 3.468c-.19.38-.36.808-.52 1.283q-.195.712-.33 1.473-.435 1.805-1.05 4.038a43 43 0 0 1-1.47 4.609 37 37 0 0 1-2.05 4.656 28.4 28.4 0 0 1-2.56 4.133 42.5 42.5 0 0 1-4.94 5.226q-2.715 2.423-6.18 4.371-3.465 1.9-7.74 3.278l-4.09-4.466c3.11-.792 5.8-1.742 8.08-2.851q3.42-1.662 5.94-3.8a35 35 0 0 0 4.56-4.656 24.5 24.5 0 0 0 2.8-4.656 35 35 0 0 0 2-5.131q.81-2.613 1.14-4.799h-23.38q-1.515 0-2.85.048t-2.28.142v-5.321c.48.032 1 .079 1.57.143.6.063 1.22.111 1.85.142q.96.048 1.71.048h23.04c.42 0 .89-.016 1.43-.048a8.5 8.5 0 0 0 1.61-.237zm44.37-5.416c-.03.602-.07 1.267-.14 1.996-.03.728-.05 1.52-.05 2.375v8.457q0 4.038-.33 6.984c-.19 1.963-.5 3.658-.95 5.083-.44 1.394-1 2.645-1.66 3.753a18.6 18.6 0 0 1-2.28 3.089 18 18 0 0 1-3.52 3.183 26.5 26.5 0 0 1-4.04 2.233 51 51 0 0 1-3.8 1.52l-3.94-4.133q3.375-.855 6.27-2.328a17.4 17.4 0 0 0 5.13-3.849 16 16 0 0 0 2-2.945c.54-.982.93-2.075 1.19-3.278q.42-1.806.57-4.134c.12-1.552.19-3.373.19-5.463v-8.172c0-.855-.04-1.647-.1-2.375-.06-.729-.13-1.394-.19-1.996zm-22.04.38c-.03.475-.08 1.014-.14 1.616a38 38 0 0 0-.05 1.9v15.916c0 .601.02 1.282.05 2.043.06.728.11 1.33.14 1.805h-5.46q.045-.57.09-1.663c.06-.76.1-1.489.1-2.185V576.71c0-.443-.02-1.014-.05-1.71-.03-.729-.08-1.331-.14-1.806zM877.193 125.971q2.613.333 5.844.475 3.278.142 6.889.142 2.328 0 4.703-.095t4.561-.237q2.233-.19 3.991-.333v4.941q-1.615.143-3.896.285-2.232.143-4.656.238-2.423.048-4.656.047-3.657 0-6.793-.142a996 996 0 0 1-5.987-.38zm2.851 19.574a21 21 0 0 0-.665 2.613 13.8 13.8 0 0 0-.238 2.518q0 2.518 2.566 4.133 2.613 1.616 8.029 1.616 3.278 0 6.271-.238a68 68 0 0 0 5.654-.665q2.613-.428 4.513-.998l.048 5.226q-1.853.476-4.419.855a64 64 0 0 1-5.558.57 80 80 0 0 1-6.319.238q-5.084 0-8.599-1.14-3.516-1.094-5.321-3.231-1.806-2.138-1.806-5.226a18.4 18.4 0 0 1 .333-3.611q.332-1.71.617-3.088zm61.24-18.196q-.476 3.657-1.236 7.744a66 66 0 0 1-1.947 8.029q-1.426 4.845-3.231 8.219-1.758 3.326-3.848 5.084-2.091 1.757-4.419 1.757-2.375 0-4.418-1.615-2.043-1.663-3.326-4.608-1.283-2.994-1.283-6.937 0-3.99 1.616-7.554a20.8 20.8 0 0 1 4.561-6.319q2.898-2.755 6.746-4.323t8.314-1.568q4.276 0 7.697 1.378 3.468 1.378 5.891 3.848a16.1 16.1 0 0 1 3.753 5.701q1.283 3.279 1.283 6.984 0 4.989-2.09 8.885-2.043 3.847-6.034 6.318-3.991 2.423-9.787 3.279l-2.803-4.466q1.235-.142 2.28-.285a76 76 0 0 0 1.948-.38 17.4 17.4 0 0 0 4.324-1.616 14.5 14.5 0 0 0 3.705-2.755 12.4 12.4 0 0 0 2.518-3.991q.951-2.28.951-5.131 0-2.85-.903-5.274-.903-2.47-2.661-4.276t-4.323-2.803q-2.565-1.044-5.796-1.045-3.896 0-6.937 1.378-3.04 1.378-5.178 3.658-2.091 2.233-3.183 4.846-1.093 2.613-1.093 5.036 0 2.708.665 4.514.665 1.756 1.663 2.613.997.855 2.043.855 1.045 0 2.138-1.045 1.092-1.093 2.185-3.421 1.14-2.328 2.233-5.939a59.5 59.5 0 0 0 1.806-7.269 75 75 0 0 0 1.092-7.601zm64.896.38q-.33.38-.81.997c-.28.381-.53.713-.76.998-.66 1.172-1.6 2.55-2.8 4.133a53 53 0 0 1-4.037 4.799 31.3 31.3 0 0 1-4.799 4.181l-3.943-3.183a21.3 21.3 0 0 0 3.041-2.138 32 32 0 0 0 2.803-2.661 34 34 0 0 0 2.328-2.66q.997-1.33 1.52-2.376h-26.035q-1.426 0-2.756.095-1.33.048-2.851.19v-5.273q1.33.142 2.756.285 1.425.142 2.851.142h27.842c.54-.031 1.04-.079 1.52-.142q.765-.096 1.14-.19zm-19.192 6.319q0 3.705-.19 7.031a36 36 0 0 1-.903 6.319 21.4 21.4 0 0 1-2.09 5.558q-1.425 2.566-3.848 4.846t-6.177 4.181l-4.371-3.563a17 17 0 0 0 2.233-.903q1.236-.618 2.328-1.425 2.566-1.663 4.134-3.611 1.567-1.947 2.328-4.181.807-2.28 1.092-4.893.333-2.613.333-5.559 0-.95-.048-1.853a15 15 0 0 0-.237-1.947zm60.192-8.647c0 .823.29 1.52.86 2.09s1.26.855 2.09.855c.82 0 1.52-.285 2.09-.855q.9-.855.9-2.09 0-1.236-.9-2.091a2.78 2.78 0 0 0-2.09-.902c-.83 0-1.52.301-2.09.902-.57.57-.86 1.267-.86 2.091m-2.52 0q0-1.52.72-2.756a5.56 5.56 0 0 1 1.99-1.948c.83-.506 1.74-.76 2.76-.76 1.01 0 1.93.254 2.75.76a5.6 5.6 0 0 1 2 1.948c.51.824.76 1.742.76 2.756s-.25 1.932-.76 2.755a6 6 0 0 1-2 1.996c-.82.475-1.74.712-2.75.712-1.02 0-1.93-.237-2.76-.712a5.96 5.96 0 0 1-1.99-1.996q-.72-1.235-.72-2.755m4.85 3.468c-.19.38-.36.808-.52 1.283q-.195.713-.33 1.473a131 131 0 0 1-1.05 4.038 43 43 0 0 1-1.47 4.608 36.6 36.6 0 0 1-2.05 4.656 28.4 28.4 0 0 1-2.56 4.134 42.5 42.5 0 0 1-4.94 5.226q-2.715 2.423-6.18 4.37-3.465 1.9-7.74 3.279l-4.09-4.466c3.11-.792 5.8-1.742 8.08-2.851q3.42-1.662 5.94-3.801a35 35 0 0 0 4.56-4.656 24.5 24.5 0 0 0 2.8-4.655 35 35 0 0 0 2-5.132q.81-2.613 1.14-4.798h-23.38q-1.515 0-2.85.048-1.335.047-2.28.142v-5.321c.48.032 1 .079 1.57.142.6.064 1.22.111 1.85.143q.96.048 1.71.048h23.04c.42 0 .89-.016 1.43-.048a8.5 8.5 0 0 0 1.61-.238zm44.37-5.416a43 43 0 0 1-.14 1.995c-.03.729-.05 1.521-.05 2.376v8.456q0 4.04-.33 6.984c-.19 1.964-.5 3.659-.95 5.084-.44 1.394-1 2.645-1.66 3.753a18.5 18.5 0 0 1-2.28 3.088 18 18 0 0 1-3.52 3.183 26.4 26.4 0 0 1-4.04 2.233 51 51 0 0 1-3.8 1.521l-3.94-4.134q3.375-.855 6.27-2.328a17.4 17.4 0 0 0 5.13-3.848 16 16 0 0 0 2-2.946c.54-.981.93-2.074 1.19-3.278q.42-1.805.57-4.133c.12-1.552.19-3.373.19-5.464v-8.171c0-.855-.04-1.647-.1-2.376s-.13-1.393-.19-1.995zm-22.04.38c-.03.475-.08 1.013-.14 1.615-.03.602-.05 1.236-.05 1.901v15.915c0 .602.02 1.283.05 2.043.06.729.11 1.331.14 1.806h-5.46q.045-.57.09-1.663c.06-.76.1-1.489.1-2.186v-15.915c0-.444-.02-1.014-.05-1.711-.03-.728-.08-1.33-.14-1.805z"/><path fill="#b8ff45" d="M750.385 292.4v2.914h20.397V292.4zm0 7.158v3.04h20.397v-3.04zm0-14.38v2.914h20.397v-2.914zm-7.032-4.497h34.841v26.478h-34.841zm6.335 24.641h7.791q-.57 3.294-1.773 5.891-1.14 2.598-3.548 4.498-2.406 1.9-6.588 3.231-4.18 1.394-10.705 2.28-.254-.95-.887-2.217a28 28 0 0 0-1.394-2.47q-.76-1.141-1.52-1.901 5.638-.507 9.122-1.203 3.484-.761 5.384-1.837 1.964-1.077 2.851-2.598.886-1.583 1.267-3.674m13.936-.063h7.538v6.905q0 1.266.444 1.583.506.254 2.343.254h6.715q1.014 0 1.52-.317.57-.38.761-1.584.252-1.203.38-3.737.76.57 1.9 1.14 1.203.507 2.47.95 1.33.381 2.281.57-.38 3.928-1.33 6.018t-2.661 2.851q-1.71.823-4.497.823h-8.552q-3.801 0-5.828-.823-1.964-.76-2.724-2.661-.76-1.836-.76-4.941zm-29.899-33.637h54.287v14h-7.285v-7.729h-40.034v7.729h-6.968zm42.125-9.692 8.171 2.471a575 575 0 0 1-4.18 5.257 98 98 0 0 1-3.801 4.371l-6.271-2.344a74 74 0 0 0 2.217-3.04 76 76 0 0 0 2.153-3.421 42 42 0 0 0 1.711-3.294m-38.578 3.421 6.461-2.851a40 40 0 0 1 3.294 3.928q1.71 2.154 2.534 3.864l-6.968 3.167q-.697-1.647-2.217-3.927a38 38 0 0 0-3.104-4.181m16.153-1.52 6.652-2.281a50 50 0 0 1 2.723 4.244q1.394 2.344 2.028 4.054l-6.969 2.598q-.57-1.711-1.837-4.181a42 42 0 0 0-2.597-4.434m58.595.19q2.66.506 6.082 1.013 3.42.443 7.031.887 3.674.444 6.968.76 3.357.253 5.765.444l-1.014 7.411q-2.47-.19-5.828-.507a963 963 0 0 1-6.904-.823q-3.548-.443-7.032-.887a120 120 0 0 1-6.271-.95zm28.063 20.144a40 40 0 0 0-2.281 1.71 24 24 0 0 0-1.837 1.52 45 45 0 0 0-2.66 2.281 216 216 0 0 1-3.041 2.85 100 100 0 0 0-2.85 2.598 52 52 0 0 0-1.774 1.837q.38-.065 1.14.063.76.126 1.267.38 1.393.443 2.28 1.52.887 1.014 1.521 2.788.316.823.57 1.9l.633 2.027q.317 1.014.634 1.837.443 1.457 1.52 2.217t2.914.76q2.47 0 4.688-.126a99 99 0 0 0 4.18-.444 53 53 0 0 0 3.548-.57l-.507 8.298q-1.267.254-3.611.444-2.28.253-4.751.38a80 80 0 0 1-4.054.127q-4.497 0-7.095-1.204-2.534-1.14-3.737-4.244a50 50 0 0 0-.633-2.154 68 68 0 0 1-.697-2.344 18 18 0 0 0-.507-1.963q-.506-1.711-1.457-2.344-.95-.697-1.9-.697-1.014 0-2.027.697-1.014.633-2.154 1.837-.633.633-1.584 1.647a77 77 0 0 1-2.09 2.28 215 215 0 0 0-2.407 2.724q-1.204 1.457-2.534 3.041a111 111 0 0 0-2.661 3.294l-7.475-5.258a52 52 0 0 1 1.964-1.71 100 100 0 0 0 2.407-2.217l2.344-2.344a247 247 0 0 1 3.484-3.548 194 194 0 0 0 4.181-4.181 451 451 0 0 1 4.434-4.497 361 361 0 0 0 4.118-4.181 924 924 0 0 0 3.42-3.547q-1.33.063-2.977.19-1.647.063-3.421.19a46 46 0 0 0-3.484.253q-1.71.127-3.167.254-1.457.126-2.597.253a30 30 0 0 0-3.041.38q-1.393.19-2.407.317l-.76-8.742q1.077.063 2.724.19 1.647.063 3.357 0 .887 0 2.914-.063 2.09-.064 4.814-.19 2.724-.127 5.512-.254 2.85-.19 5.321-.38 2.533-.254 4.054-.443a62 62 0 0 0 1.963-.317q1.141-.19 1.647-.38zm45.546-19.321a37 37 0 0 0-.761 3.104 173 173 0 0 0-.57 2.851 301 301 0 0 1-1.14 5.257q-.633 3.105-1.457 6.588a174 174 0 0 1-1.584 6.652 133 133 0 0 1-2.027 7.284 284 284 0 0 1-2.597 7.919 201 201 0 0 1-2.724 7.665 103 103 0 0 1-2.724 6.461l-8.805-2.977q1.394-2.408 2.978-5.828a106 106 0 0 0 3.04-7.475 161 161 0 0 0 2.787-7.918 142 142 0 0 0 2.154-7.285 117 117 0 0 0 1.204-4.561q.57-2.344 1.013-4.561.444-2.217.76-4.117.38-1.965.571-3.421a50 50 0 0 0 .253-3.548q.063-1.773-.063-2.85zm-16.154 9.439q3.864 0 8.045-.38a118 118 0 0 0 8.425-1.077q4.245-.697 8.425-1.647v7.918a106 106 0 0 1-8.361 1.52q-4.434.634-8.742 1.014-4.308.317-7.918.317-2.281 0-4.118-.064a112 112 0 0 0-3.547-.19l-.19-7.918q2.47.253 4.244.38t3.737.127m19.891 9.692q2.66-.254 5.891-.444t6.271-.19q2.724 0 5.512.127 2.85.126 5.637.443l-.19 7.602a78 78 0 0 0-5.194-.507 63 63 0 0 0-5.701-.253q-3.23 0-6.271.19-2.978.126-5.955.506zm3.421 15.963a27 27 0 0 0-.634 2.787q-.253 1.394-.253 2.471 0 1.013.443 1.9t1.394 1.584q.95.633 2.597 1.013 1.71.38 4.244.38 3.231 0 6.462-.317a99 99 0 0 0 6.714-1.013l-.316 8.108a149 149 0 0 1-5.892.57q-3.23.317-7.031.317-7.981 0-12.226-2.597-4.18-2.66-4.181-7.475 0-2.154.38-4.371t.761-4.117zm54.604-.824-1.71-21.664-.317-9.439h10.515l-.316 9.439-1.711 21.664zm3.231 16.85q-2.407 0-3.991-1.583-1.584-1.584-1.584-3.991 0-2.47 1.584-4.054t3.991-1.584 3.991 1.584q1.583 1.584 1.583 4.054 0 2.407-1.583 3.991-1.584 1.584-3.991 1.583"/><path fill="#fff" d="M1040.68 768.237c-1.84 0-3.49-.222-4.94-.665q-2.19-.618-3.9-1.71c-1.11-.76-2.07-1.6-2.9-2.518l3.28-4.419c1.08.982 2.25 1.837 3.52 2.566 1.29.697 2.74 1.045 4.32 1.045 1.2 0 2.25-.174 3.13-.523q1.38-.57 2.1-1.615c.5-.697.76-1.536.76-2.518 0-1.108-.29-2.059-.86-2.851-.54-.823-1.5-1.441-2.9-1.852-1.39-.444-3.36-.666-5.89-.666v-5.036c2.15 0 3.85-.221 5.08-.665 1.24-.443 2.11-1.045 2.62-1.805q.81-1.14.81-2.613c0-1.362-.42-2.407-1.24-3.136-.82-.728-1.98-1.092-3.47-1.092-1.23 0-2.39.285-3.47.855-1.04.538-2.09 1.298-3.13 2.28l-3.61-4.276q2.325-1.995 4.89-3.183c1.71-.792 3.6-1.188 5.65-1.188q3.375 0 5.94 1.093c1.75.697 3.09 1.742 4.04 3.136.95 1.362 1.43 3.025 1.43 4.988 0 1.837-.51 3.405-1.52 4.704-1.02 1.267-2.46 2.28-4.33 3.04v.238c1.3.348 2.47.903 3.52 1.663 1.08.76 1.91 1.71 2.52 2.85.63 1.109.95 2.423.95 3.944q0 3.135-1.71 5.368c-1.11 1.489-2.62 2.629-4.52 3.421-1.87.76-3.92 1.14-6.17 1.14m29.07 0c-2.41 0-4.52-.681-6.32-2.043-1.78-1.393-3.15-3.42-4.14-6.081q-1.47-3.991-1.47-9.787 0-5.844 1.47-9.739c.99-2.629 2.36-4.609 4.14-5.939 1.8-1.33 3.91-1.996 6.32-1.996q3.6 0 6.27 1.996c1.8 1.33 3.2 3.31 4.18 5.939q1.47 3.895 1.47 9.739 0 5.796-1.47 9.787c-.98 2.661-2.38 4.688-4.18 6.081q-2.67 2.043-6.27 2.043m0-5.463c1.04 0 1.96-.365 2.75-1.093.79-.76 1.41-2.043 1.85-3.848.45-1.837.67-4.34.67-7.507 0-3.199-.22-5.685-.67-7.459-.44-1.774-1.06-3.009-1.85-3.706a4.04 4.04 0 0 0-2.75-1.045c-.99 0-1.89.348-2.71 1.045-.79.697-1.43 1.932-1.9 3.706q-.72 2.66-.72 7.459 0 4.751.72 7.507c.47 1.805 1.11 3.088 1.9 3.848.82.728 1.72 1.093 2.71 1.093m27.12 5.463c-2.22 0-4.15-.554-5.8-1.663q-2.43-1.662-3.75-4.798c-.89-2.091-1.33-4.593-1.33-7.507q0-4.323 1.56-7.411c1.08-2.091 2.47-3.706 4.18-4.846 1.72-1.14 3.52-1.71 5.42-1.71q2.235 0 3.75.807 1.575.76 3 2.091l-.24-4.181v-9.36h6.98v37.913h-5.7l-.52-2.756h-.19c-.98.951-2.11 1.758-3.37 2.423q-1.905.999-3.99.998m1.8-5.749q1.425 0 2.61-.617c.83-.444 1.62-1.156 2.38-2.138v-11.687c-.79-.729-1.62-1.236-2.47-1.521a7 7 0 0 0-2.52-.475c-.98 0-1.9.317-2.75.95-.83.602-1.49 1.505-2 2.708s-.76 2.693-.76 4.466c0 1.837.21 3.373.62 4.609.44 1.235 1.07 2.169 1.9 2.803.82.602 1.82.902 2.99.902"/><mask id="d" fill="#fff"><path fill-rule="evenodd" d="M304.395 102.437c.005 1.993 2.283 3.124 3.872 1.923l23.134-17.488a3 3 0 0 0 .208-.178h16.51c17.717 0 32.08-14.363 32.08-32.08V38.02c0-17.718-14.363-32.08-32.08-32.08h-53.624c-17.717 0-32.08 14.362-32.08 32.08v16.595c0 17.717 14.363 32.08 32.08 32.08h9.854z" clip-rule="evenodd"/></mask><path fill="#fff" fill-rule="evenodd" d="M304.395 102.437c.005 1.993 2.283 3.124 3.872 1.923l23.134-17.488a3 3 0 0 0 .208-.178h16.51c17.717 0 32.08-14.363 32.08-32.08V38.02c0-17.718-14.363-32.08-32.08-32.08h-53.624c-17.717 0-32.08 14.362-32.08 32.08v16.595c0 17.717 14.363 32.08 32.08 32.08h9.854z" clip-rule="evenodd"/><path fill="url(#c)" d="m304.395 102.437-2.994.009zm3.872 1.923 1.805 2.388h-.001zm23.134-17.488 1.805 2.388zm.208-.178-2.054-2.177.865-.816h1.189zm48.59-32.08h2.993zm0-16.595h2.993zm-85.704-32.08V2.944zm-32.08 32.08h-2.993zm0 16.595h-2.993zm32.08 32.08v2.993zm9.854 0v-2.993h2.984l.009 2.985zm.046 15.743 2.993-.008a.577.577 0 0 0-.926-.457l1.805 2.388 1.804 2.388c-3.561 2.692-8.657.153-8.67-4.302zm3.872 1.923-1.805-2.387 23.134-17.489 1.805 2.388 1.805 2.388-23.134 17.488zm23.134-17.488-1.805-2.388c-.037.028-.053.044-.041.033l2.054 2.177 2.055 2.177a5 5 0 0 1-.458.389zm.208-.178v-2.993h16.51v5.986h-16.51zm16.51 0v-2.993c16.064 0 29.087-13.023 29.087-29.087h5.986c0 19.37-15.702 35.074-35.073 35.074zm32.08-32.08h-2.993V38.02h5.986v16.595zm0-16.595h-2.993c0-16.065-13.023-29.087-29.087-29.087V2.945c19.371 0 35.073 15.703 35.073 35.074zm-32.08-32.08v2.993h-53.624V2.945h53.624zm-53.624 0v2.993c-16.064 0-29.087 13.022-29.087 29.087h-5.986c0-19.37 15.703-35.074 35.073-35.074zm-32.08 32.08h2.993v16.595h-5.986V38.02zm0 16.595h2.993c0 16.064 13.023 29.087 29.087 29.087v5.986c-19.37 0-35.073-15.703-35.073-35.073zm32.08 32.08v-2.993h9.854v5.986h-9.854zm9.854 0 2.993-.008.046 15.743-2.993.008-2.994.009-.046-15.743z" mask="url(#d)"/><mask id="f" width="98" height="52" x="270.303" y="20.826" fill="#000" maskUnits="userSpaceOnUse"><path fill="#fff" d="M270.303 20.826h98v52h-98z"/><path d="m295.885 24.68 4.418 1.046a47.7 47.7 0 0 1-3.705 7.839q-2.185 3.753-4.656 6.319-.38-.381-1.093-.855a24 24 0 0 0-1.473-.998 17 17 0 0 0-1.235-.76q2.471-2.28 4.513-5.654a34.3 34.3 0 0 0 3.231-6.936m.19 4.657h22.852v3.705h-24.8zm2.091 14.918v2.755h13.682v-2.755zm0-5.464v2.66h13.682v-2.66zm-4.039-2.993h21.902v14.158h-21.902zm5.416 12.922 3.896 1.14q-1.995 3.563-5.178 6.605-3.184 3.04-6.462 4.988a12 12 0 0 0-.902-.903q-.57-.523-1.188-1.045-.57-.522-1.045-.855a32 32 0 0 0 6.223-4.276q2.946-2.612 4.656-5.654m-.76 6.13q1.806 2.707 4.941 4.798 3.183 2.09 7.364 3.468 4.18 1.33 9.075 1.9-.666.666-1.426 1.758-.76 1.14-1.188 1.995-5.13-.76-9.406-2.47-4.228-1.71-7.507-4.276a25.1 25.1 0 0 1-5.416-6.034zm.095-1.996h14.206v3.088h-17.056zm13.065 0h.856l.76-.19 2.708 1.33a20.5 20.5 0 0 1-4.324 5.891q-2.66 2.471-6.081 4.276a41 41 0 0 1-7.364 2.898 65 65 0 0 1-8.077 1.806q-.237-.808-.855-1.9-.57-1.094-1.092-1.806a56 56 0 0 0 7.459-1.33q3.657-.951 6.793-2.376t5.512-3.42 3.705-4.61zm-25.987-18.196 3.99 1.472a58 58 0 0 1-3.705 5.701 60 60 0 0 1-4.466 5.322 54 54 0 0 1-4.656 4.418q-.19-.522-.665-1.283a92 92 0 0 0-.903-1.568q-.475-.807-.855-1.235a48 48 0 0 0 4.181-3.658 43 43 0 0 0 3.895-4.371 36 36 0 0 0 3.184-4.798m-.998-9.93 3.991 1.568a41 41 0 0 1-3.326 4.133 67 67 0 0 1-3.943 3.991 43 43 0 0 1-4.086 3.373 12 12 0 0 0-.713-1.045 31 31 0 0 0-.902-1.235 7.3 7.3 0 0 0-.808-.998 47 47 0 0 0 3.658-2.898 45 45 0 0 0 3.468-3.468q1.615-1.806 2.661-3.42m-3.183 19.384 3.753-3.753.475.19v28.41h-4.228zm48.032 4.893h31.071V68.96h-4.656V52.52h-21.949V68.96h-4.466zm2.28 7.27h25.418v3.468h-25.418zm.19 7.41h25.371v3.47h-25.371zm10.358-19.098 4.798.808a66 66 0 0 1-1.805 3.278 57 57 0 0 1-1.616 2.66l-3.658-.855q.618-1.283 1.283-2.945.713-1.663.998-2.946M324.533 27.01h15.584v3.563h-15.584zm14.491 0h4.086v15.773q0 1.377-.38 2.138-.333.76-1.331 1.187-.997.428-2.565.476-1.52.047-3.706.047a11 11 0 0 0-.475-1.615 10 10 0 0 0-.713-1.616q1.425.048 2.661.048t1.663-.048q.474 0 .617-.142.143-.19.143-.523zm6.889 0h16.533v3.563h-16.533zm14.443 0h4.18v15.725q0 1.473-.38 2.233t-1.425 1.283q-1.045.428-2.708.523-1.663.047-3.991.047a9 9 0 0 0-.522-1.758 13.6 13.6 0 0 0-.713-1.758q1.521.048 2.898.095h1.853q.476-.047.618-.19.19-.142.19-.522zm-15.631 14.015a173 173 0 0 0 6.081-1.948 1628 1628 0 0 1 7.222-2.518l.665 3.278q-3.183 1.188-6.462 2.423a567 567 0 0 0-5.938 2.186zm2.328-7.792 2.185-2.66a34 34 0 0 1 3.516 1.995q1.9 1.14 2.898 2.186l-2.328 2.945q-.95-1.046-2.803-2.28a34 34 0 0 0-3.468-2.186m-23.755 8.694a180 180 0 0 0 5.796-1.947q3.374-1.189 6.842-2.47l.712 3.277a495 495 0 0 0-6.081 2.518 496 496 0 0 1-5.606 2.328zm2.898-8.694 2.233-2.565a31 31 0 0 1 3.468 1.995q1.805 1.188 2.756 2.233l-2.328 2.898q-.95-1.046-2.708-2.328a37 37 0 0 0-3.421-2.233"/></mask><path fill="url(#e)" d="m295.885 24.68 4.418 1.046a47.7 47.7 0 0 1-3.705 7.839q-2.185 3.753-4.656 6.319-.38-.381-1.093-.855a24 24 0 0 0-1.473-.998 17 17 0 0 0-1.235-.76q2.471-2.28 4.513-5.654a34.3 34.3 0 0 0 3.231-6.936m.19 4.657h22.852v3.705h-24.8zm2.091 14.918v2.755h13.682v-2.755zm0-5.464v2.66h13.682v-2.66zm-4.039-2.993h21.902v14.158h-21.902zm5.416 12.922 3.896 1.14q-1.995 3.563-5.178 6.605-3.184 3.04-6.462 4.988a12 12 0 0 0-.902-.903q-.57-.523-1.188-1.045-.57-.522-1.045-.855a32 32 0 0 0 6.223-4.276q2.946-2.612 4.656-5.654m-.76 6.13q1.806 2.707 4.941 4.798 3.183 2.09 7.364 3.468 4.18 1.33 9.075 1.9-.666.666-1.426 1.758-.76 1.14-1.188 1.995-5.13-.76-9.406-2.47-4.228-1.71-7.507-4.276a25.1 25.1 0 0 1-5.416-6.034zm.095-1.996h14.206v3.088h-17.056zm13.065 0h.856l.76-.19 2.708 1.33a20.5 20.5 0 0 1-4.324 5.891q-2.66 2.471-6.081 4.276a41 41 0 0 1-7.364 2.898 65 65 0 0 1-8.077 1.806q-.237-.808-.855-1.9-.57-1.094-1.092-1.806a56 56 0 0 0 7.459-1.33q3.657-.951 6.793-2.376t5.512-3.42 3.705-4.61zm-25.987-18.196 3.99 1.472a58 58 0 0 1-3.705 5.701 60 60 0 0 1-4.466 5.322 54 54 0 0 1-4.656 4.418q-.19-.522-.665-1.283a92 92 0 0 0-.903-1.568q-.475-.807-.855-1.235a48 48 0 0 0 4.181-3.658 43 43 0 0 0 3.895-4.371 36 36 0 0 0 3.184-4.798m-.998-9.93 3.991 1.568a41 41 0 0 1-3.326 4.133 67 67 0 0 1-3.943 3.991 43 43 0 0 1-4.086 3.373 12 12 0 0 0-.713-1.045 31 31 0 0 0-.902-1.235 7.3 7.3 0 0 0-.808-.998 47 47 0 0 0 3.658-2.898 45 45 0 0 0 3.468-3.468q1.615-1.806 2.661-3.42m-3.183 19.384 3.753-3.753.475.19v28.41h-4.228zm48.032 4.893h31.071V68.96h-4.656V52.52h-21.949V68.96h-4.466zm2.28 7.27h25.418v3.468h-25.418zm.19 7.41h25.371v3.47h-25.371zm10.358-19.098 4.798.808a66 66 0 0 1-1.805 3.278 57 57 0 0 1-1.616 2.66l-3.658-.855q.618-1.283 1.283-2.945.713-1.663.998-2.946M324.533 27.01h15.584v3.563h-15.584zm14.491 0h4.086v15.773q0 1.377-.38 2.138-.333.76-1.331 1.187-.997.428-2.565.476-1.52.047-3.706.047a11 11 0 0 0-.475-1.615 10 10 0 0 0-.713-1.616q1.425.048 2.661.048t1.663-.048q.474 0 .617-.142.143-.19.143-.523zm6.889 0h16.533v3.563h-16.533zm14.443 0h4.18v15.725q0 1.473-.38 2.233t-1.425 1.283q-1.045.428-2.708.523-1.663.047-3.991.047a9 9 0 0 0-.522-1.758 13.6 13.6 0 0 0-.713-1.758q1.521.048 2.898.095h1.853q.476-.047.618-.19.19-.142.19-.522zm-15.631 14.015a173 173 0 0 0 6.081-1.948 1628 1628 0 0 1 7.222-2.518l.665 3.278q-3.183 1.188-6.462 2.423a567 567 0 0 0-5.938 2.186zm2.328-7.792 2.185-2.66a34 34 0 0 1 3.516 1.995q1.9 1.14 2.898 2.186l-2.328 2.945q-.95-1.046-2.803-2.28a34 34 0 0 0-3.468-2.186m-23.755 8.694a180 180 0 0 0 5.796-1.947q3.374-1.189 6.842-2.47l.712 3.277a495 495 0 0 0-6.081 2.518 496 496 0 0 1-5.606 2.328zm2.898-8.694 2.233-2.565a31 31 0 0 1 3.468 1.995q1.805 1.188 2.756 2.233l-2.328 2.898q-.95-1.046-2.708-2.328a37 37 0 0 0-3.421-2.233"/><path fill="#fff" d="m295.885 24.68.689-2.912-2.663-.63-.866 2.596zm4.418 1.046 2.813 1.025 1.153-3.163-3.276-.775zm-3.705 7.839-2.581-1.516-.006.01zm-4.656 6.319L289.825 42l2.157 2.157 2.116-2.197zm-1.093-.855-1.77 2.413.054.04.056.037zm-1.473-.998-1.66 2.49.037.025.037.023zm-1.235-.76-2.03-2.2-3.066 2.83 3.663 1.997zm4.513-5.654-2.56-1.55zm3.421-2.28v-2.994h-1.808l-.841 1.6zm22.852 0h2.993v-2.994h-2.993zm0 3.705v2.993h2.993v-2.993zm-24.8 0-2.649-1.392-2.306 4.386h4.955zm4.039 11.212v-2.993h-2.994v2.993zm0 2.756h-2.994v2.993h2.994zm13.682 0v2.993h2.994V47.01zm0-2.755h2.994V41.26h-2.994zm-13.682-5.464v-2.993h-2.994v2.993zm0 2.66h-2.994v2.994h2.994zm13.682 0v2.994h2.994V41.45zm0-2.66h2.994v-2.993h-2.994zm-17.721-2.993v-2.993h-2.993v2.993zm21.902 0h2.993v-2.993h-2.993zm0 14.158v2.993h2.993v-2.993zm-21.902 0h-2.993v2.993h2.993zm5.416-1.236.841-2.872-2.283-.669-1.166 2.074zm3.896 1.14 2.612 1.463 1.836-3.28-3.607-1.055zm-5.178 6.605 2.067 2.164zm-6.462 4.988-2.252 1.971 1.64 1.875 2.141-1.273zm-2.09-1.948-2.023 2.206.044.04.045.04zm-1.045-.855-1.385-2.654-4.369 2.28 4.037 2.826zm6.223-4.276 1.966 2.257.011-.009.01-.009zm3.896.475 2.491-1.66-1.253-1.879-2.15.688zm4.941 4.799-1.66 2.49.008.006.009.006zm7.364 3.468-.937 2.843.015.004.015.005zm9.075 1.9 2.116 2.117 4.374-4.374-6.144-.716zm-1.426 1.758-2.457-1.71-.017.025-.016.025zm-1.188 1.995-.438 2.961 2.146.318.97-1.94zm-9.406-2.47-1.123 2.775.011.004zm-7.507-4.276-1.882 2.327.018.016.019.014zm-5.416-6.034-.912-2.85-3.704 1.185 2.094 3.277zm3.658-3.135V49.86h-1.31l-.889.963zm14.206 0h2.993V49.86h-2.993zm0 3.088v2.993h2.993v-2.993zm-17.056 0-2.2-2.03-4.637 5.023h6.837zm15.915-3.088V49.86h-2.993v2.993zm.856 0v2.993h.368l.357-.09zm.76-.19 1.319-2.687-.983-.483-1.062.266zm2.708 1.33 2.684 1.323 1.326-2.688-2.691-1.322zm-4.324 5.891 2.037 2.194.01-.01.011-.01zm-6.081 4.276 1.368 2.662.015-.007.014-.008zm-7.364 2.898-.831-2.875-.01.002zm-8.077 1.806-2.871.844.743 2.525 2.599-.413zm-.855-1.9-2.653 1.384.023.044.025.044zm-1.092-1.806-.331-2.975-5.144.571 3.061 4.174zm7.459-1.33.726 2.903.013-.003.013-.004zm12.305-5.797-1.926-2.292zm3.705-4.608 2.668 1.358.326-.64v-.718zm-25.987-18.766 1.036-2.809-2.419-.892-1.241 2.26zm3.99 1.472 2.605 1.476 1.736-3.064-3.304-1.22zm-3.705 5.701 2.399 1.79.007-.01.007-.01zm-4.466 5.322-2.177-2.054h-.002zm-4.656 4.418-2.813 1.023 1.459 4.013 3.275-2.74zm-.665-1.283-2.609 1.468.034.06.036.059zm-.903-1.568-2.58 1.518zm-.855-1.235-1.83-2.368-2.538 1.96 2.131 2.397zm4.181-3.658-2.092-2.14zm3.895-4.371-2.36-1.84-.005.006zm2.186-14.728 1.094-2.786-2.278-.895-1.329 2.055zm3.991 1.568 2.455 1.713 2.17-3.112-3.531-1.387zm-3.326 4.133-2.215-2.013zm-3.943 3.991-2.039-2.192zm-4.086 3.373-2.567 1.54 1.676 2.793 2.641-1.905zm-.713-1.045-2.461 1.704.033.047.034.045zm-.902-1.235-2.461 1.704.042.061.046.06zm-.808-.998-1.734-2.44-2.887 2.052 2.504 2.505zm3.658-2.898 1.967 2.256.016-.014.016-.014zm3.468-3.468 2.231 1.996zm-.522 15.963-2.117-2.117-.876.877v1.24zm3.753-3.753 1.112-2.78-1.833-.732-1.396 1.395zm.475.19h2.993v-2.027l-1.881-.752zm0 28.41v2.994h2.993V68.96zm-4.228 0h-2.993v2.994h2.993zm14.11-44.278-.689 2.912 4.418 1.046.689-2.913.69-2.913-4.419-1.045zm4.418 1.045-2.812-1.026a45 45 0 0 1-3.474 7.349l2.581 1.516 2.581 1.516a51 51 0 0 0 3.937-8.33zm-3.705 7.839-2.587-1.506c-1.362 2.339-2.776 4.243-4.225 5.748l2.156 2.077 2.156 2.076c1.844-1.915 3.534-4.224 5.086-6.889zm-4.656 6.319 2.116-2.117c-.449-.45-.994-.86-1.549-1.229l-1.66 2.49-1.66 2.491c.395.264.579.424.636.481zm-1.093-.855 1.77-2.414a27 27 0 0 0-1.656-1.123l-1.587 2.539-1.586 2.538q.667.418 1.289.873zm-1.473-.998 1.661-2.49a20 20 0 0 0-1.463-.898l-1.433 2.628-1.433 2.627c.245.134.578.336 1.008.623zm-1.235-.76 2.03 2.199c1.885-1.74 3.561-3.854 5.044-6.303l-2.561-1.55-2.56-1.55c-1.241 2.048-2.574 3.704-3.983 5.004zm4.513-5.654 2.561 1.55a37.4 37.4 0 0 0 3.51-7.54l-2.84-.946-2.84-.947a31.3 31.3 0 0 1-2.951 6.332zm3.421-2.28v2.993h22.852v-5.987h-22.852zm22.852 0h-2.993v3.705h5.986v-3.706zm0 3.705V30.05h-24.8v5.986h24.8zm-24.8 0 2.65 1.393 1.948-3.706-2.65-1.392-2.649-1.393-1.948 3.706zm4.039 11.212h-2.994v2.756h5.987v-2.755zm0 2.756v2.993h13.682v-5.986h-13.682zm13.682 0h2.994v-2.755h-5.987v2.755zm0-2.755V41.26h-13.682v5.987h13.682zm-13.682-5.464h-2.994v2.66h5.987v-2.66zm0 2.66v2.994h13.682v-5.987h-13.682zm13.682 0h2.994v-2.66h-5.987v2.66zm0-2.66v-2.993h-13.682v5.986h13.682zm-17.721-2.993v2.993h21.902v-5.986h-21.902zm21.902 0h-2.993v14.158h5.986V35.798zm0 14.158v-2.994h-21.902v5.987h21.902zm-21.902 0h2.993V35.798h-5.986v14.158zm5.416-1.236-.84 2.873 3.895 1.14.841-2.872.841-2.873-3.896-1.14zm3.896 1.14-2.611-1.462c-1.174 2.096-2.711 4.065-4.635 5.902l2.068 2.165 2.067 2.164c2.321-2.217 4.236-4.651 5.723-7.306zm-5.178 6.605-2.068-2.165c-1.983 1.894-3.959 3.413-5.923 4.58l1.529 2.573 1.529 2.573c2.407-1.43 4.739-3.237 7-5.397zm-6.462 4.988 2.253-1.971c-.321-.367-.709-.75-1.133-1.138l-2.022 2.206-2.023 2.207c.337.309.55.527.673.667zm-.902-.903 2.022-2.206q-.615-.565-1.277-1.124l-1.933 2.285-1.934 2.285q.574.486 1.099.967zm-1.188-1.045 2.022-2.206a13 13 0 0 0-1.351-1.101l-1.716 2.452-1.717 2.452c.181.127.426.322.739.61zm-1.045-.855 1.384 2.654a35 35 0 0 0 6.805-4.673l-1.966-2.257-1.965-2.257a29 29 0 0 1-5.643 3.88zm6.223-4.276 1.987 2.24c2.181-1.936 3.955-4.074 5.278-6.426l-2.609-1.468-2.608-1.467c-.958 1.702-2.287 3.333-4.034 4.882zm3.896.475-2.49 1.66c1.454 2.182 3.403 4.05 5.771 5.63l1.66-2.491 1.661-2.49c-1.813-1.21-3.159-2.54-4.111-3.97zm4.941 4.799-1.643 2.502c2.373 1.558 5.072 2.82 8.07 3.809l.937-2.843.937-2.843c-2.576-.849-4.786-1.898-6.658-3.127zm7.364 3.468-.907 2.852c2.99.952 6.205 1.622 9.635 2.021l.347-2.973.346-2.973c-3.095-.36-5.929-.957-8.513-1.78zm9.075 1.9-2.117-2.116c-.608.608-1.196 1.345-1.766 2.165l2.457 1.71 2.457 1.708c.444-.637.807-1.072 1.085-1.35zm-1.426 1.758-2.49-1.66a22 22 0 0 0-1.375 2.317l2.677 1.338 2.678 1.34c.211-.424.536-.978 1.001-1.675zm-1.188 1.995.439-2.96c-3.218-.477-6.125-1.246-8.734-2.29l-1.111 2.78-1.112 2.78c3.092 1.236 6.457 2.115 10.08 2.651zm-9.406-2.47 1.122-2.775c-2.584-1.045-4.839-2.336-6.784-3.858l-1.845 2.357-1.845 2.357c2.426 1.898 5.176 3.459 8.229 4.694zm-7.507-4.276 1.882-2.327a22.1 22.1 0 0 1-4.776-5.318l-2.522 1.611-2.522 1.612a28.1 28.1 0 0 0 6.056 6.75zm-5.416-6.034.912 2.851 3.563-1.14-.912-2.85-.912-2.852-3.563 1.14zm3.658-3.135v2.993h14.206v-5.986h-14.206zm14.206 0h-2.994v3.088h5.987v-3.088zm0 3.088v-2.993h-17.056v5.986h17.056zm-17.056 0 2.199 2.03 2.851-3.088-2.2-2.03-2.199-2.03-2.851 3.088zm15.915-3.088v2.993h.856v-5.986h-.856zm.856 0 .725 2.904.761-.19-.726-2.904-.726-2.904-.76.19zm.76-.19-1.32 2.686 2.708 1.33 1.32-2.686 1.319-2.687-2.708-1.33zm2.708 1.33-2.685-1.324a17.6 17.6 0 0 1-3.696 5.041l2.057 2.174 2.058 2.174a23.5 23.5 0 0 0 4.95-6.742zm-4.324 5.891-2.036-2.193c-1.57 1.457-3.379 2.733-5.442 3.822l1.397 2.647 1.397 2.647c2.498-1.318 4.743-2.893 6.721-4.73zm-6.081 4.276-1.368-2.662a38 38 0 0 1-6.827 2.685l.831 2.875.832 2.876a44 44 0 0 0 7.9-3.112zm-7.364 2.898-.841-2.873a62 62 0 0 1-7.706 1.722l.47 2.957.471 2.956a68 68 0 0 0 8.447-1.89zm-8.077 1.806 2.872-.845c-.246-.836-.646-1.688-1.121-2.529l-2.606 1.473-2.605 1.473c.348.617.518 1.031.589 1.272zm-.855-1.9 2.654-1.385c-.425-.815-.867-1.557-1.333-2.191l-2.413 1.77-2.414 1.77c.231.316.518.777.853 1.42zm-1.092-1.806.33 2.975q4.04-.449 7.855-1.402l-.726-2.904-.726-2.903a53 53 0 0 1-7.064 1.259zm7.459-1.33.752 2.896q3.887-1.007 7.28-2.547l-1.239-2.725-1.238-2.725c-1.919.872-4.02 1.61-6.308 2.203zm6.793-2.376 1.239 2.725c2.311-1.05 4.385-2.33 6.198-3.854l-1.925-2.292-1.926-2.292c-1.354 1.138-2.954 2.138-4.824 2.988zm5.512-3.42 1.925 2.291c1.873-1.573 3.368-3.422 4.448-5.542l-2.668-1.358-2.667-1.358c-.694 1.363-1.669 2.587-2.964 3.674zm3.705-4.61h2.994v-.57h-5.987v.57zm-25.987-18.765-1.037 2.808 3.991 1.472 1.036-2.808 1.037-2.808-3.991-1.473zm3.99 1.472-2.604-1.475a55 55 0 0 1-3.515 5.407l2.414 1.77 2.413 1.77a61 61 0 0 0 3.897-5.996zm-3.705 5.701-2.4-1.789a57 57 0 0 1-4.243 5.057l2.177 2.054 2.177 2.054a63 63 0 0 0 4.688-5.586zm-4.466 5.322-2.179-2.053a51 51 0 0 1-4.398 4.175l1.921 2.296 1.921 2.296a57 57 0 0 0 4.913-4.662zm-4.656 4.418 2.813-1.023c-.228-.627-.571-1.256-.94-1.846l-2.538 1.586-2.539 1.587c.265.422.366.65.391.719zm-.665-1.283 2.608-1.467a94 94 0 0 0-.931-1.618l-2.58 1.517-2.58 1.518q.462.785.874 1.518zm-.903-1.568 2.58-1.517c-.362-.615-.76-1.214-1.198-1.706l-2.237 1.988-2.237 1.989c.068.077.24.302.512.764zm-.855-1.235 1.83 2.369a51 51 0 0 0 4.443-3.886l-2.092-2.141-2.092-2.14a45 45 0 0 1-3.919 3.43zm4.181-3.658 2.092 2.14a46 46 0 0 0 4.169-4.677l-2.366-1.834-2.365-1.834a40 40 0 0 1-3.622 4.064zm3.895-4.371 2.361 1.841a39 39 0 0 0 3.446-5.199l-2.623-1.44-2.624-1.44a33 33 0 0 1-2.92 4.397zm2.186-14.728-1.095 2.786 3.991 1.568 1.095-2.786 1.094-2.786-3.991-1.568zm3.991 1.568-2.455-1.713a38 38 0 0 1-3.086 3.833l2.215 2.013 2.215 2.014a44 44 0 0 0 3.566-4.434zm-3.326 4.133-2.215-2.013a64 64 0 0 1-3.767 3.812l2.039 2.192 2.038 2.192a70 70 0 0 0 4.12-4.17zm-3.943 3.991-2.039-2.192a40 40 0 0 1-3.798 3.137l1.751 2.428 1.75 2.428a46 46 0 0 0 4.374-3.61zm-4.086 3.373 2.567-1.54c-.256-.425-.555-.86-.885-1.3l-2.395 1.795-2.394 1.796c.239.32.416.581.54.79zm-.713-1.045 2.461-1.704a33 33 0 0 0-.991-1.356l-2.372 1.825-2.373 1.825q.431.56.814 1.114zm-.902-1.235 2.461-1.704a10 10 0 0 0-1.153-1.41l-2.116 2.116-2.117 2.117c.088.087.244.267.464.585zm-.808-.998 1.734 2.44a50 50 0 0 0 3.891-3.082l-1.967-2.256-1.967-2.256a44 44 0 0 1-3.425 2.714zm3.658-2.898 1.999 2.228a48 48 0 0 0 3.7-3.7l-2.231-1.996-2.23-1.996a42 42 0 0 1-3.237 3.236zm3.468-3.468 2.231 1.996c1.155-1.291 2.143-2.555 2.943-3.79l-2.513-1.627-2.513-1.626c-.594.918-1.38 1.935-2.378 3.05zm-.522 15.963 2.116 2.116 3.754-3.753-2.117-2.116-2.117-2.117-3.753 3.754zm3.753-3.753-1.112 2.779.475.19 1.112-2.78 1.112-2.778-.475-.19zm.475.19h-2.993v28.41h5.986V40.55zm0 28.41v-2.993h-4.228v5.987h4.228zm-4.228 0h2.993V44.113h-5.986V68.96zm48.032-19.954v-2.993h-2.993v2.993zm31.071 0h2.993v-2.993h-2.993zm0 19.955v2.993h2.993V68.96zm-4.656 0h-2.993v2.993h2.993zm0-16.439h2.993v-2.993h-2.993zm-21.949 0v-2.993h-2.993v2.993zm0 16.439v2.993h2.993V68.96zm-4.466 0h-2.993v2.993h2.993zm2.28-12.686v-2.993h-2.993v2.993zm25.418 0h2.993v-2.993h-2.993zm0 3.469v2.993h2.993v-2.993zm-25.418 0h-2.993v2.993h2.993zm.19 3.943v-2.993h-2.993v2.993zm25.371 0h2.993v-2.993h-2.993zm0 3.468v2.993h2.993v-2.993zm-25.371 0h-2.993v2.993h2.993zm10.358-22.567.496-2.952-2.802-.471-.616 2.774zm4.798.808 2.662 1.369 1.872-3.641-4.037-.68zm-1.805 3.278-2.58-1.518-.007.012-.007.012zm-1.616 2.66-.681 2.915 2.043.478 1.145-1.758zm-3.658-.855-2.697-1.298-1.619 3.363 3.635.85zm1.283-2.945-2.751-1.18-.015.034-.013.034zm-17.104-20.524v-2.994h-2.993v2.994zm15.584 0h2.993v-2.994h-2.993zm0 3.563v2.993h2.993v-2.993zm-15.584 0h-2.993v2.993h2.993zm14.491-3.563v-2.994h-2.993v2.994zm4.086 0h2.993v-2.994h-2.993zm-.38 17.91-2.678-1.338-.034.069-.031.07zm-1.331 1.188-1.179-2.75zm-2.565.476-.091-2.992h-.003zm-3.706.047-2.935.587.481 2.406h2.454zm-.475-1.615-2.825.989.008.023.008.022zm-.713-1.616.1-2.991-5.359-.179 2.66 4.655zm4.324 0v-2.993h-.166l-.165.018zm.617-.142 2.117 2.116.15-.15.128-.17zm7.032-16.248v-2.994h-2.993v2.994zm16.533 0h2.993v-2.994h-2.993zm0 3.563v2.993h2.993v-2.993zm-16.533 0h-2.993v2.993h2.993zm14.443-3.563v-2.994h-2.994v2.994zm4.18 0h2.994v-2.994h-2.994zm-.38 17.958 2.678 1.339zm-1.425 1.283 1.133 2.77.105-.042.101-.05zm-2.708.523.086 2.991h.042l.043-.003zm-3.991.047-2.947.52.436 2.473h2.511zm-.522-1.758-2.84.947.028.083.033.082zm-.713-1.758.093-2.991-5.014-.157 2.244 4.487zm2.898.095-.103 2.992.051.002h.052zm1.853 0v2.993h.149l.149-.014zm.618-.19-1.796-2.394-.171.127-.15.15zm-15.441-2.185-.85-2.87-3.309.98 1.438 3.137zm6.081-1.948.958 2.836.017-.006.017-.006zm7.222-2.518 2.933-.595-.68-3.352-3.232 1.118zm.665 3.278 1.046 2.805 2.396-.894-.509-2.506zm-6.462 2.423 1.02 2.814.018-.006.018-.007zm-5.938 2.186-2.721 1.247 1.161 2.534 2.611-.979zm.76-11.213-2.313-1.9-2.301 2.801 3.186 1.73zm2.185-2.66 1.308-2.693-2.123-1.03-1.498 1.823zm3.516 1.995-1.615 2.52.037.024.038.023zm2.898 2.186 2.349 1.855 1.613-2.04-1.797-1.882zm-2.328 2.945-2.215 2.014 2.375 2.611 2.189-2.769zm-2.803-2.28-1.734 2.44.037.026.037.024zm-27.223 6.508-.896-2.855-3.214 1.008 1.379 3.073zm5.796-1.947.994 2.823zm6.842-2.47 2.925-.637-.732-3.366-3.232 1.195zm.712 3.277 1.127 2.773 2.333-.947-.535-2.462zm-6.081 2.518 1.164 2.758zm-5.606 2.328-2.731 1.226 1.183 2.637 2.677-1.09zm1.235-12.4-2.258-1.965-2.396 2.753 3.169 1.811zm2.233-2.565 1.308-2.693-2.061-1-1.505 1.728zm3.468 1.995 1.645-2.5zm2.756 2.233 2.333 1.875 1.603-1.995-1.721-1.893zm-2.328 2.898-2.215 2.014 2.356 2.59 2.193-2.73zm-2.518 11.212V52h31.071v-5.987h-31.071zm31.071 0h-2.993V68.96h5.986V49.006zm0 19.955v-2.994h-4.656v5.987h4.656zm-4.656 0h2.993V52.52h-5.986V68.96zm0-16.439v-2.993h-21.949v5.986h21.949zm-21.949 0h-2.993V68.96h5.986V52.52zm0 16.439v-2.994h-4.466v5.987h4.466zm-4.466 0h2.993V49.006h-5.986V68.96zm2.28-12.686v2.994h25.418V53.28h-25.418zm25.418 0h-2.993v3.469h5.986v-3.469zm0 3.469v-2.994h-25.418v5.987h25.418zm-25.418 0h2.994v-3.469h-5.987v3.469zm.19 3.943v2.993h25.371v-5.986h-25.371zm25.371 0h-2.994v3.468h5.987v-3.468zm0 3.468v-2.993h-25.371v5.986h25.371zm-25.371 0h2.994v-3.468h-5.987v3.468zm10.358-22.567-.497 2.952 4.798.807.497-2.951.497-2.952-4.799-.808zm4.798.808-2.662-1.37a63 63 0 0 1-1.723 3.13l2.58 1.518 2.58 1.517a69 69 0 0 0 1.887-3.426zm-1.805 3.278-2.594-1.494a54 54 0 0 1-1.529 2.52l2.507 1.634 2.507 1.636a60 60 0 0 0 1.703-2.803zm-1.616 2.66.682-2.914-3.659-.855-.681 2.914-.681 2.915 3.658.855zm-3.658-.855 2.697 1.299q.671-1.396 1.365-3.133l-2.779-1.111-2.779-1.112a45 45 0 0 1-1.201 2.759zm1.283-2.945 2.751 1.179c.523-1.22.926-2.386 1.168-3.476l-2.921-.649-2.922-.65c-.138.621-.4 1.42-.827 2.417zm-17.104-20.524v2.993h15.584v-5.987h-15.584zm15.584 0h-2.994v3.563h5.987v-3.563zm0 3.563v-2.994h-15.584v5.987h15.584zm-15.584 0h2.994v-3.563h-5.987v3.563zm14.491-3.563v2.993h4.086v-5.987h-4.086zm4.086 0h-2.994v15.773h5.987V27.009zm0 15.773h-2.994c0 .328-.023.555-.048.7-.027.147-.047.163-.016.1l2.678 1.338 2.677 1.338c.551-1.103.696-2.35.696-3.476zm-.38 2.138-2.743-1.2c.075-.17.175-.29.25-.356.066-.059.08-.05-.017-.008l1.179 2.751 1.179 2.752c1.143-.49 2.282-1.342 2.894-2.74zm-1.331 1.187-1.179-2.75c-.203.087-.654.209-1.477.234l.091 2.992.09 2.991c1.268-.038 2.528-.233 3.654-.715zm-2.565.476-.094-2.992q-1.456.046-3.612.046v5.986q2.215 0 3.799-.049zm-3.706.047 2.935-.587a14 14 0 0 0-.601-2.063l-2.809 1.035-2.809 1.034c.184.5.292.885.349 1.168zm-.475-1.615 2.825-.99a12.7 12.7 0 0 0-.939-2.11l-2.599 1.484-2.599 1.485c.14.245.308.608.487 1.12zm-.713-1.616-.099 2.992q1.467.049 2.76.05v-5.987q-1.178 0-2.561-.046zm2.661.048v2.993c.801 0 1.518-.013 1.993-.066l-.33-2.975-.331-2.975a10.09 10.09 0 0 1-.384.019q-.357.01-.948.01zm1.663-.048v2.993c.284 0 .661-.019 1.065-.112a3.44 3.44 0 0 0 1.669-.907l-2.117-2.116-2.116-2.117a2.55 2.55 0 0 1 1.218-.693c.197-.046.313-.04.281-.04zm.617-.142 2.395 1.796c.612-.816.741-1.702.741-2.319h-5.986c0-.173.034-.71.456-1.273zm.143-.523h2.993V27.01h-5.986v15.725zm6.889-15.725v2.993h16.533v-5.987h-16.533zm16.533 0h-2.993v3.563h5.986v-3.563zm0 3.563v-2.994h-16.533v5.987h16.533zm-16.533 0h2.993v-3.563h-5.986v3.563zm14.443-3.563v2.993h4.18v-5.987h-4.18zm4.18 0h-2.993v15.725h5.987V27.01zm0 15.725h-2.993c0 .37-.024.627-.052.793-.03.171-.053.183-.012.102l2.677 1.338 2.678 1.339c.561-1.123.696-2.42.696-3.572zm-.38 2.233-2.677-1.338a.8.8 0 0 1 .129-.186q.003 0-.048.035a2 2 0 0 1-.167.095l1.338 2.677 1.339 2.677c1.062-.531 2.129-1.353 2.764-2.621zm-1.425 1.283-1.133-2.77c-.282.115-.826.252-1.746.304l.171 2.989.171 2.988c1.297-.074 2.559-.286 3.67-.74zm-2.708.523-.085-2.992q-1.606.046-3.906.046v5.986q2.357 0 4.077-.049zm-3.991.047 2.948-.52a12 12 0 0 0-.691-2.35l-2.779 1.112-2.779 1.112c.194.487.302.873.354 1.166zm-.522-1.758 2.839-.946a16 16 0 0 0-.875-2.15l-2.677 1.338-2.677 1.339c.177.355.363.805.55 1.366zm-.713-1.758-.093 2.992q1.515.047 2.888.095l.103-2.992.103-2.991q-1.383-.048-2.908-.095zm2.898.095v2.993h1.853v-5.986h-1.853zm1.853 0 .298 2.979c.272-.028.615-.078.974-.19a3.5 3.5 0 0 0 1.462-.862l-2.116-2.117-2.117-2.116c.237-.237.469-.382.63-.467a2.2 2.2 0 0 1 .381-.159c.153-.047.235-.05.19-.046zm.618-.19 1.796 2.395c1.242-.932 1.387-2.292 1.387-2.917h-5.987c0-.119.019-1.13 1.008-1.872zm.19-.522h2.993V27.009h-5.987v15.678zm-15.631-1.663.85 2.87q2.638-.782 6.189-1.982l-.958-2.836-.958-2.836q-3.48 1.175-5.973 1.914zm6.081-1.948.992 2.824q3.51-1.233 7.209-2.514l-.979-2.828-.979-2.829q-3.713 1.285-7.235 2.523zm7.222-2.518-2.934.595.665 3.278 2.934-.595 2.933-.595-.665-3.278zm.665 3.278-1.047-2.804q-3.188 1.19-6.47 2.426l1.055 2.801 1.056 2.801a2068 2068 0 0 1 6.452-2.42zm-6.462 2.423-1.019-2.814a570 570 0 0 0-5.97 2.197l1.051 2.803 1.051 2.802a566 566 0 0 1 5.907-2.174zm-5.938 2.186 2.721-1.248-1.568-3.42-2.721 1.247-2.721 1.247 1.568 3.42zm.76-11.213 2.313 1.9 2.185-2.66-2.313-1.9-2.313-1.9-2.185 2.66zm2.185-2.66-1.307 2.692a32 32 0 0 1 3.208 1.823l1.615-2.52 1.615-2.52a38 38 0 0 0-3.823-2.168zm3.516 1.995-1.54 2.567c1.146.687 1.864 1.256 2.273 1.685l2.165-2.066 2.165-2.067c-.921-.965-2.135-1.852-3.523-2.686zm2.898 2.186-2.348-1.856-2.328 2.945 2.348 1.856 2.349 1.856 2.328-2.946zm-2.328 2.945 2.215-2.013c-.864-.95-2.021-1.867-3.358-2.758l-1.66 2.49-1.66 2.491c1.134.756 1.846 1.36 2.248 1.804zm-2.803-2.28 1.734-2.44a37 37 0 0 0-3.774-2.376l-1.428 2.63-1.428 2.63a31 31 0 0 1 3.162 1.996zm-27.223 6.508.896 2.856q2.49-.78 5.894-1.98l-.994-2.823-.994-2.824a178 178 0 0 1-5.698 1.916zm5.796-1.947.994 2.823q3.397-1.196 6.886-2.486l-1.038-2.808-1.039-2.807q-3.446 1.275-6.797 2.454zm6.842-2.47-2.925.635.712 3.278 2.925-.636 2.925-.636-.712-3.278zm.712 3.277-1.126-2.773q-3.06 1.243-6.118 2.534l1.163 2.757 1.164 2.758a482 482 0 0 1 6.044-2.503zm-6.081 2.518-1.163-2.758a493 493 0 0 1-5.572 2.314l1.129 2.772 1.129 2.772a503 503 0 0 0 5.641-2.342zm-5.606 2.328 2.731-1.225-1.663-3.706-2.731 1.225-2.731 1.226 1.663 3.706zm1.235-12.4 2.258 1.965 2.233-2.565-2.258-1.965-2.258-1.965-2.233 2.565zm2.233-2.565-1.308 2.692a28 28 0 0 1 3.131 1.804l1.645-2.5 1.645-2.501a34 34 0 0 0-3.805-2.188zm3.468 1.995-1.645 2.5c1.092.72 1.785 1.306 2.186 1.747l2.215-2.014 2.215-2.013c-.866-.953-2.01-1.855-3.326-2.72zm2.756 2.233-2.334-1.874-2.328 2.898 2.334 1.874 2.334 1.875 2.327-2.898zm-2.328 2.898 2.215-2.013c-.822-.904-1.901-1.815-3.159-2.733l-1.764 2.418-1.764 2.418c1.086.793 1.812 1.434 2.257 1.924zm-2.708-2.328 1.764-2.418a40 40 0 0 0-3.7-2.413l-1.485 2.598-1.485 2.6a34 34 0 0 1 3.142 2.051z" mask="url(#f)"/><mask id="h" fill="#fff"><path fill-rule="evenodd" d="M573.614 96.5c.006 1.992 2.284 3.122 3.872 1.921l23.135-17.487q.111-.085.209-.179h16.51c17.717 0 32.08-14.363 32.08-32.08V32.08C649.42 14.363 635.057 0 617.34 0h-53.624c-17.718 0-32.08 14.363-32.08 32.08v16.595c0 17.717 14.362 32.08 32.08 32.08h9.852z" clip-rule="evenodd"/></mask><path fill="#fff" fill-rule="evenodd" d="M573.614 96.5c.006 1.992 2.284 3.122 3.872 1.921l23.135-17.487q.111-.085.209-.179h16.51c17.717 0 32.08-14.363 32.08-32.08V32.08C649.42 14.363 635.057 0 617.34 0h-53.624c-17.718 0-32.08 14.363-32.08 32.08v16.595c0 17.717 14.362 32.08 32.08 32.08h9.852z" clip-rule="evenodd"/><path fill="url(#g)" d="m573.614 96.5-2.993.008zm3.872 1.921-1.805-2.388zm23.135-17.487 1.805 2.387zm.209-.179-2.055-2.176.865-.817h1.19zm16.51 0v2.993zm0-80.755v-2.993zm-43.772 80.755v-2.993h2.985l.009 2.984zm.046 15.744 2.993-.009a.577.577 0 0 0-.926-.457l1.805 2.388 1.805 2.388c-3.56 2.691-8.657.155-8.67-4.301zm3.872 1.922-1.805-2.388 23.135-17.487 1.805 2.388 1.805 2.388-23.135 17.487zm23.135-17.487-1.805-2.388-.041.033 2.055 2.176 2.055 2.176c-.118.112-.272.25-.459.39zm.209-.179v-2.993h16.51v5.986h-16.51zm16.51 0v-2.993c16.064 0 29.087-13.023 29.087-29.087h5.986c0 19.37-15.703 35.073-35.073 35.073zm32.08-32.08h-2.993V32.08h5.986v16.595zm0-16.595h-2.993c0-16.064-13.023-29.086-29.087-29.087v-5.986c19.37 0 35.073 15.703 35.073 35.073zM617.34 0v2.993h-53.624v-5.986h53.624zm-53.624 0v2.993c-16.064 0-29.087 13.023-29.087 29.087h-5.986c0-19.37 15.702-35.073 35.073-35.073zm-32.08 32.08h2.993v16.595h-5.986V32.08zm0 16.595h2.993c0 16.064 13.023 29.087 29.087 29.087v5.986c-19.371 0-35.073-15.703-35.073-35.073zm32.08 32.08v-2.993h9.852v5.986h-9.852zm9.852 0 2.994-.009.045 15.744-2.993.01-2.993.008-.046-15.744z" mask="url(#h)"/><mask id="j" width="98" height="52" x="539.523" y="14.887" fill="#000" maskUnits="userSpaceOnUse"><path fill="#fff" d="M539.523 14.887h98v52h-98z"/><path d="m565.106 18.742 4.418 1.045a47.7 47.7 0 0 1-3.706 7.84q-2.185 3.752-4.655 6.318-.38-.38-1.093-.855-.712-.523-1.473-.998-.713-.475-1.235-.76 2.47-2.28 4.513-5.654a34.3 34.3 0 0 0 3.231-6.936m.19 4.656h22.852v3.706h-24.8zm2.09 14.918v2.755h13.683v-2.755zm0-5.464v2.66h13.683v-2.66zm-4.038-2.993h21.902v14.158h-21.902zm5.416 12.923 3.896 1.14q-1.996 3.563-5.179 6.604t-6.461 4.988a12 12 0 0 0-.903-.902q-.57-.523-1.187-1.046a11 11 0 0 0-1.046-.855q3.279-1.71 6.224-4.276 2.946-2.613 4.656-5.653m-.76 6.128q1.805 2.708 4.941 4.799 3.183 2.09 7.364 3.468 4.18 1.33 9.074 1.9-.665.666-1.425 1.758a19 19 0 0 0-1.188 1.996q-5.131-.76-9.407-2.47-4.228-1.711-7.506-4.277a25.1 25.1 0 0 1-5.416-6.033zm.095-1.995h14.205v3.088h-17.056zm13.065 0h.855l.76-.19 2.708 1.33a20.5 20.5 0 0 1-4.323 5.892q-2.661 2.47-6.081 4.275a41 41 0 0 1-7.364 2.898 65 65 0 0 1-8.077 1.806q-.237-.808-.855-1.9-.57-1.093-1.093-1.806a56 56 0 0 0 7.459-1.33q3.659-.95 6.794-2.376 3.136-1.425 5.511-3.42t3.706-4.609zm-25.988-18.196 3.991 1.473a58 58 0 0 1-3.706 5.7 60 60 0 0 1-4.466 5.322 55 55 0 0 1-4.655 4.418q-.19-.523-.666-1.282a98 98 0 0 0-.902-1.568q-.475-.808-.855-1.236a48 48 0 0 0 4.18-3.658 42.5 42.5 0 0 0 3.896-4.37 36 36 0 0 0 3.183-4.8m-.997-9.93 3.99 1.568a41 41 0 0 1-3.325 4.134 67 67 0 0 1-3.944 3.99 43 43 0 0 1-4.085 3.374 12 12 0 0 0-.713-1.046 30 30 0 0 0-.903-1.235 7.3 7.3 0 0 0-.807-.998 47 47 0 0 0 3.658-2.898 45 45 0 0 0 3.468-3.468q1.616-1.806 2.661-3.42m-3.184 19.384 3.754-3.753.475.19v28.41h-4.229zm48.033 4.894h31.071V63.02h-4.656V46.583h-21.949V63.02h-4.466zm2.28 7.269h25.418v3.468h-25.418zm.19 7.411h25.37v3.468h-25.37zm10.357-19.099 4.799.808a66 66 0 0 1-1.806 3.278 57 57 0 0 1-1.615 2.66l-3.658-.854q.618-1.283 1.283-2.946.712-1.663.997-2.946M593.754 21.07h15.583v3.563h-15.583zm14.491 0h4.085v15.773q0 1.377-.38 2.138-.332.76-1.33 1.188-.997.427-2.566.475-1.52.047-3.705.047a11 11 0 0 0-.475-1.615 10 10 0 0 0-.713-1.615q1.425.047 2.661.047 1.234 0 1.662-.047.476 0 .618-.143.143-.19.143-.523zm6.888 0h16.534v3.563h-16.534zm14.443 0h4.181v15.725q0 1.473-.38 2.233t-1.425 1.283q-1.046.428-2.708.523-1.663.047-3.991.047a9 9 0 0 0-.523-1.758 13.4 13.4 0 0 0-.712-1.757q1.52.047 2.898.095h1.853q.474-.048.617-.19.19-.143.19-.523zm-15.63 14.015a173 173 0 0 0 6.081-1.948q3.516-1.235 7.221-2.518l.665 3.278q-3.182 1.188-6.461 2.423a578 578 0 0 0-5.939 2.186zm2.328-7.791 2.185-2.661a34 34 0 0 1 3.516 1.995q1.9 1.141 2.898 2.186l-2.328 2.945q-.95-1.045-2.803-2.28a34 34 0 0 0-3.468-2.185m-23.755 8.694a181 181 0 0 0 5.796-1.948 461 461 0 0 0 6.841-2.47l.713 3.278a493 493 0 0 0-6.081 2.518 496 496 0 0 1-5.606 2.328zm2.898-8.694 2.233-2.566a31 31 0 0 1 3.468 1.995q1.805 1.188 2.756 2.233l-2.328 2.899q-.95-1.045-2.708-2.329a37 37 0 0 0-3.421-2.232"/></mask><path fill="url(#i)" d="m565.106 18.742 4.418 1.045a47.7 47.7 0 0 1-3.706 7.84q-2.185 3.752-4.655 6.318-.38-.38-1.093-.855-.712-.523-1.473-.998-.713-.475-1.235-.76 2.47-2.28 4.513-5.654a34.3 34.3 0 0 0 3.231-6.936m.19 4.656h22.852v3.706h-24.8zm2.09 14.918v2.755h13.683v-2.755zm0-5.464v2.66h13.683v-2.66zm-4.038-2.993h21.902v14.158h-21.902zm5.416 12.923 3.896 1.14q-1.996 3.563-5.179 6.604t-6.461 4.988a12 12 0 0 0-.903-.902q-.57-.523-1.187-1.046a11 11 0 0 0-1.046-.855q3.279-1.71 6.224-4.276 2.946-2.613 4.656-5.653m-.76 6.128q1.805 2.708 4.941 4.799 3.183 2.09 7.364 3.468 4.18 1.33 9.074 1.9-.665.666-1.425 1.758a19 19 0 0 0-1.188 1.996q-5.131-.76-9.407-2.47-4.228-1.711-7.506-4.277a25.1 25.1 0 0 1-5.416-6.033zm.095-1.995h14.205v3.088h-17.056zm13.065 0h.855l.76-.19 2.708 1.33a20.5 20.5 0 0 1-4.323 5.892q-2.661 2.47-6.081 4.275a41 41 0 0 1-7.364 2.898 65 65 0 0 1-8.077 1.806q-.237-.808-.855-1.9-.57-1.093-1.093-1.806a56 56 0 0 0 7.459-1.33q3.659-.95 6.794-2.376 3.136-1.425 5.511-3.42t3.706-4.609zm-25.988-18.196 3.991 1.473a58 58 0 0 1-3.706 5.7 60 60 0 0 1-4.466 5.322 55 55 0 0 1-4.655 4.418q-.19-.523-.666-1.282a98 98 0 0 0-.902-1.568q-.475-.808-.855-1.236a48 48 0 0 0 4.18-3.658 42.5 42.5 0 0 0 3.896-4.37 36 36 0 0 0 3.183-4.8m-.997-9.93 3.99 1.568a41 41 0 0 1-3.325 4.134 67 67 0 0 1-3.944 3.99 43 43 0 0 1-4.085 3.374 12 12 0 0 0-.713-1.046 30 30 0 0 0-.903-1.235 7.3 7.3 0 0 0-.807-.998 47 47 0 0 0 3.658-2.898 45 45 0 0 0 3.468-3.468q1.616-1.806 2.661-3.42m-3.184 19.384 3.754-3.753.475.19v28.41h-4.229zm48.033 4.894h31.071V63.02h-4.656V46.583h-21.949V63.02h-4.466zm2.28 7.269h25.418v3.468h-25.418zm.19 7.411h25.37v3.468h-25.37zm10.357-19.099 4.799.808a66 66 0 0 1-1.806 3.278 57 57 0 0 1-1.615 2.66l-3.658-.854q.618-1.283 1.283-2.946.712-1.663.997-2.946M593.754 21.07h15.583v3.563h-15.583zm14.491 0h4.085v15.773q0 1.377-.38 2.138-.332.76-1.33 1.188-.997.427-2.566.475-1.52.047-3.705.047a11 11 0 0 0-.475-1.615 10 10 0 0 0-.713-1.615q1.425.047 2.661.047 1.234 0 1.662-.047.476 0 .618-.143.143-.19.143-.523zm6.888 0h16.534v3.563h-16.534zm14.443 0h4.181v15.725q0 1.473-.38 2.233t-1.425 1.283q-1.046.428-2.708.523-1.663.047-3.991.047a9 9 0 0 0-.523-1.758 13.4 13.4 0 0 0-.712-1.757q1.52.047 2.898.095h1.853q.474-.048.617-.19.19-.143.19-.523zm-15.63 14.015a173 173 0 0 0 6.081-1.948q3.516-1.235 7.221-2.518l.665 3.278q-3.182 1.188-6.461 2.423a578 578 0 0 0-5.939 2.186zm2.328-7.791 2.185-2.661a34 34 0 0 1 3.516 1.995q1.9 1.141 2.898 2.186l-2.328 2.945q-.95-1.045-2.803-2.28a34 34 0 0 0-3.468-2.185m-23.755 8.694a181 181 0 0 0 5.796-1.948 461 461 0 0 0 6.841-2.47l.713 3.278a493 493 0 0 0-6.081 2.518 496 496 0 0 1-5.606 2.328zm2.898-8.694 2.233-2.566a31 31 0 0 1 3.468 1.995q1.805 1.188 2.756 2.233l-2.328 2.899q-.95-1.045-2.708-2.329a37 37 0 0 0-3.421-2.232"/><path fill="#fff" d="m565.106 18.742.689-2.913-2.663-.63-.866 2.596zm4.418 1.045 2.812 1.026 1.154-3.164-3.277-.775zm-3.706 7.84-2.58-1.517-.006.01zm-4.655 6.318-2.117 2.116 2.157 2.157 2.116-2.197zm-1.093-.855-1.77 2.413.054.04.055.037zm-1.473-.998-1.66 2.49.036.025.038.023zm-1.235-.76-2.03-2.2-3.066 2.83 3.662 1.998zm4.513-5.654-2.56-1.55zm3.421-2.28v-2.993h-1.808l-.842 1.6zm22.852 0h2.993v-2.993h-2.993zm0 3.706v2.993h2.993v-2.994zm-24.8 0-2.65-1.393-2.305 4.386h4.955zm4.038 11.212v-2.993h-2.993v2.993zm0 2.755h-2.993v2.994h2.993zm13.683 0v2.994h2.993V41.07zm0-2.755h2.993v-2.993h-2.993zm-13.683-5.464V29.86h-2.993v2.993zm0 2.66h-2.993v2.994h2.993zm13.683 0v2.994h2.993v-2.993zm0-2.66h2.993V29.86h-2.993zm-17.721-2.993v-2.993h-2.993v2.993zm21.902 0h2.993v-2.993h-2.993zm0 14.158v2.993h2.993v-2.993zm-21.902 0h-2.993v2.993h2.993zm5.416-1.235.841-2.873-2.283-.668-1.167 2.073zm3.896 1.14 2.611 1.462 1.837-3.279-3.607-1.056zm-5.179 6.604 2.068 2.164zm-6.461 4.988-2.253 1.971 1.641 1.875 2.141-1.273zm-2.09-1.948-2.023 2.207.044.04.045.038zm-1.046-.855-1.384-2.654-4.37 2.28 4.038 2.826zm6.224-4.276 1.966 2.258.01-.01.01-.008zm3.896.475 2.49-1.66-1.252-1.879-2.15.689zm4.941 4.799-1.66 2.49.008.006.009.006zm7.364 3.468-.937 2.843.015.005.014.004zm9.074 1.9 2.117 2.117 4.374-4.374-6.144-.716zm-1.425 1.758-2.457-1.709-.017.024-.017.025zm-1.188 1.996-.438 2.96 2.145.319.97-1.94zm-9.407-2.47-1.122 2.774.011.004zm-7.506-4.277-1.883 2.328.019.015.019.014zm-5.416-6.033-.913-2.851-3.703 1.185 2.093 3.277zm3.658-3.136v-2.993h-1.311l-.889.963zm14.205 0h2.993v-2.993h-2.993zm0 3.088v2.993h2.993v-2.993zm-17.056 0-2.199-2.03-4.637 5.023h6.836zm15.916-3.088v-2.993h-2.993v2.993zm.855 0v2.993h.369l.357-.09zm.76-.19 1.32-2.687-.983-.482-1.063.265zm2.708 1.33 2.685 1.324 1.325-2.689-2.69-1.321zm-4.323 5.892 2.037 2.193.01-.01.011-.01zm-6.081 4.275 1.368 2.663.014-.008.015-.008zm-7.364 2.898-.832-2.875-.009.003zm-8.077 1.806-2.871.844.742 2.525 2.599-.413zm-.855-1.9-2.654 1.384.024.045.024.043zm-1.093-1.806-.33-2.975-5.144.572 3.061 4.173zm7.459-1.33.726 2.904.014-.004.013-.003zm12.305-5.796-1.925-2.292zm3.706-4.609 2.667 1.358.326-.64v-.718zM555.176 28.72l1.037-2.808-2.42-.893-1.24 2.26zm3.991 1.473 2.604 1.475 1.737-3.064-3.305-1.22zm-3.706 5.7 2.4 1.79.007-.01.007-.01zm-4.466 5.322-2.177-2.054-.001.001zm-4.655 4.418-2.813 1.023 1.459 4.013 3.274-2.74zm-.666-1.282-2.608 1.467.033.06.037.059zm-.902-1.568-2.58 1.517zm-.855-1.236-1.831-2.368-2.537 1.96 2.13 2.397zm4.18-3.658-2.092-2.14zm3.896-4.37-2.36-1.842-.005.007zm2.186-14.729 1.094-2.786-2.278-.895-1.329 2.055zm3.99 1.568 2.455 1.713 2.171-3.112-3.531-1.387zm-3.325 4.134-2.215-2.014zm-3.944 3.99-2.038-2.191zm-4.085 3.374-2.567 1.54 1.675 2.792 2.642-1.904zm-.713-1.046-2.461 1.704.032.047.034.045zm-.903-1.235-2.461 1.704.043.062.046.059zm-.807-.998-1.734-2.44-2.888 2.052 2.505 2.505zm3.658-2.898 1.967 2.256.016-.014.016-.014zm3.468-3.468 2.231 1.996zm-.523 15.963-2.116-2.116-.877.876v1.24zm3.754-3.753 1.111-2.78-1.832-.732-1.396 1.395zm.475.19h2.993v-2.026l-1.882-.753zm0 28.41v2.994h2.993v-2.993zm-4.229 0h-2.993v2.994h2.993zm14.111-44.278-.689 2.913 4.418 1.045.689-2.913.689-2.913-4.418-1.045zm4.418 1.045-2.812-1.025a45 45 0 0 1-3.474 7.348l2.58 1.516 2.581 1.516a50.7 50.7 0 0 0 3.937-8.33zm-3.706 7.84-2.586-1.507c-1.362 2.339-2.776 4.243-4.226 5.749l2.157 2.076 2.156 2.076c1.844-1.915 3.534-4.223 5.086-6.889zm-4.655 6.318 2.116-2.117c-.45-.45-.994-.859-1.549-1.229l-1.66 2.49-1.661 2.491c.396.264.58.424.637.481zm-1.093-.855 1.77-2.414a27 27 0 0 0-1.657-1.122l-1.586 2.538-1.586 2.538q.667.417 1.289.874zm-1.473-.998 1.66-2.49a20 20 0 0 0-1.462-.898l-1.433 2.628-1.434 2.628c.246.133.578.336 1.009.623zm-1.235-.76 2.03 2.2c1.885-1.74 3.561-3.855 5.043-6.303l-2.56-1.55-2.56-1.551c-1.241 2.049-2.575 3.704-3.983 5.005zm4.513-5.654 2.56 1.55a37.3 37.3 0 0 0 3.51-7.54l-2.839-.946-2.84-.947a31.4 31.4 0 0 1-2.951 6.333zm3.421-2.28v2.993h22.852v-5.986h-22.852zm22.852 0h-2.993v3.706h5.986v-3.706zm0 3.706V24.11h-24.8v5.987h24.8zm-24.8 0 2.649 1.392 1.948-3.705-2.649-1.393-2.65-1.393-1.948 3.706zm4.038 11.212h-2.993v2.755h5.986v-2.755zm0 2.755v2.994h13.683v-5.987h-13.683zm13.683 0h2.993v-2.755h-5.986v2.755zm0-2.755v-2.993h-13.683v5.986h13.683zm-13.683-5.464h-2.993v2.66h5.986v-2.66zm0 2.66v2.994h13.683V32.52h-13.683zm13.683 0h2.993v-2.66h-5.986v2.66zm0-2.66V29.86h-13.683v5.986h13.683zm-17.721-2.993v2.993h21.902v-5.986h-21.902zm21.902 0h-2.993v14.158h5.986V29.859zm0 14.158v-2.993h-21.902v5.986h21.902zm-21.902 0h2.993V29.859h-5.986v14.158zm5.416-1.235-.841 2.872 3.896 1.14.841-2.872.841-2.873-3.896-1.14zm3.896 1.14-2.612-1.463c-1.174 2.097-2.711 4.065-4.634 5.902l2.067 2.165 2.068 2.164c2.32-2.216 4.236-4.65 5.722-7.306zm-5.179 6.604-2.067-2.165c-1.983 1.895-3.959 3.413-5.923 4.58l1.529 2.573 1.529 2.573c2.407-1.43 4.739-3.237 7-5.397zm-6.461 4.988 2.253-1.97c-.322-.368-.71-.75-1.133-1.139l-2.023 2.207-2.022 2.206c.336.309.55.528.672.667zm-.903-.902 2.023-2.207a43 43 0 0 0-1.277-1.124l-1.933 2.285-1.934 2.285q.574.486 1.099.967zm-1.187-1.046 2.022-2.206c-.447-.41-.899-.784-1.351-1.1l-1.717 2.451-1.716 2.452c.181.127.426.323.739.61zm-1.046-.855 1.385 2.654a35 35 0 0 0 6.805-4.672l-1.966-2.258-1.966-2.257a29 29 0 0 1-5.642 3.88zm6.224-4.276 1.986 2.24c2.181-1.935 3.956-4.074 5.279-6.426l-2.609-1.467-2.609-1.468c-.957 1.703-2.287 3.333-4.033 4.882zm3.896.475-2.491 1.66c1.455 2.183 3.404 4.05 5.772 5.63l1.66-2.491 1.66-2.49c-1.813-1.21-3.158-2.54-4.111-3.969zm4.941 4.799-1.643 2.502c2.372 1.558 5.071 2.82 8.07 3.809l.937-2.843.937-2.843c-2.576-.849-4.786-1.898-6.658-3.127zm7.364 3.468-.908 2.852c2.991.952 6.206 1.622 9.636 2.022l.346-2.974.347-2.973c-3.095-.36-5.93-.957-8.514-1.78zm9.074 1.9-2.116-2.116c-.609.608-1.196 1.346-1.766 2.165l2.457 1.71 2.457 1.709c.444-.638.806-1.073 1.085-1.351zm-1.425 1.758-2.491-1.66c-.548.823-1.015 1.6-1.374 2.317l2.677 1.339 2.677 1.338c.212-.423.537-.976 1.001-1.673zm-1.188 1.996.439-2.961c-3.219-.477-6.125-1.245-8.734-2.289l-1.112 2.78-1.111 2.778c3.092 1.237 6.457 2.116 10.08 2.653zm-9.407-2.47 1.123-2.776c-2.585-1.045-4.839-2.335-6.785-3.858l-1.844 2.357-1.845 2.357c2.426 1.899 5.175 3.459 8.229 4.694zm-7.506-4.277 1.882-2.327a22.1 22.1 0 0 1-4.776-5.318l-2.522 1.612-2.523 1.611a28.1 28.1 0 0 0 6.056 6.75zm-5.416-6.033.912 2.85 3.563-1.14-.912-2.85-.912-2.851-3.564 1.14zm3.658-3.136v2.993h14.205v-5.986h-14.205zm14.205 0h-2.993v3.088h5.986v-3.088zm0 3.088V47.01h-17.056v5.986h17.056zm-17.056 0 2.2 2.03 2.85-3.088-2.199-2.03-2.2-2.03-2.85 3.088zm15.916-3.088v2.993h.855v-5.986h-.855zm.855 0 .726 2.904.76-.19-.726-2.904-.726-2.904-.76.19zm.76-.19-1.319 2.687 2.708 1.33 1.319-2.687 1.32-2.686-2.708-1.33zm2.708 1.33-2.684-1.323a17.6 17.6 0 0 1-3.696 5.04l2.057 2.175 2.058 2.173a23.5 23.5 0 0 0 4.95-6.741zm-4.323 5.892-2.037-2.194c-1.569 1.457-3.378 2.733-5.441 3.822l1.397 2.647 1.397 2.648c2.497-1.319 4.743-2.893 6.721-4.73zm-6.081 4.275-1.368-2.662a38 38 0 0 1-6.828 2.685l.832 2.875.831 2.876a44 44 0 0 0 7.901-3.111zm-7.364 2.898-.841-2.872a62 62 0 0 1-7.706 1.722l.47 2.956.47 2.956a68 68 0 0 0 8.448-1.889zm-8.077 1.806 2.872-.845c-.246-.836-.646-1.688-1.121-2.528l-2.606 1.472-2.606 1.473c.349.617.519 1.031.59 1.272zm-.855-1.9 2.654-1.385a17 17 0 0 0-1.333-2.191l-2.414 1.77-2.413 1.77c.231.316.517.778.852 1.42zm-1.093-1.806.331 2.975q4.04-.45 7.854-1.401l-.726-2.904-.726-2.904a53 53 0 0 1-7.063 1.26zm7.459-1.33.753 2.897q3.885-1.008 7.28-2.548l-1.239-2.725-1.238-2.725c-1.92.873-4.02 1.61-6.308 2.204zm6.794-2.376 1.239 2.725c2.311-1.05 4.384-2.33 6.198-3.853l-1.926-2.292-1.925-2.292c-1.354 1.137-2.955 2.137-4.824 2.987zm5.511-3.42 1.926 2.291c1.873-1.573 3.368-3.421 4.447-5.542l-2.667-1.358-2.667-1.358c-.695 1.364-1.67 2.587-2.964 3.675zm3.706-4.609h2.993v-.57h-5.986v.57zM555.176 28.72l-1.036 2.808L558.131 33l1.036-2.808 1.036-2.808-3.99-1.473zm3.991 1.473-2.604-1.476a55 55 0 0 1-3.515 5.407l2.413 1.77 2.414 1.77a61 61 0 0 0 3.896-5.996zm-3.706 5.7-2.399-1.789a57 57 0 0 1-4.244 5.057l2.177 2.054 2.178 2.054a63 63 0 0 0 4.688-5.586zm-4.466 5.322-2.178-2.053a51 51 0 0 1-4.398 4.176l1.921 2.295 1.92 2.296a57 57 0 0 0 4.914-4.661zm-4.655 4.418 2.813-1.023c-.229-.627-.571-1.255-.94-1.846l-2.539 1.587-2.538 1.586c.264.423.365.65.391.72zm-.666-1.282 2.609-1.468q-.443-.787-.931-1.618l-2.58 1.518-2.58 1.517q.461.785.874 1.518zm-.902-1.568 2.58-1.518c-.362-.614-.76-1.213-1.198-1.706l-2.237 1.988-2.238 1.989c.069.077.241.302.513.764zm-.855-1.236 1.83 2.369a51 51 0 0 0 4.442-3.886l-2.092-2.14-2.092-2.142a45 45 0 0 1-3.919 3.431zm4.18-3.658 2.092 2.14a45.5 45.5 0 0 0 4.169-4.676l-2.365-1.835-2.365-1.834a40 40 0 0 1-3.623 4.065zm3.896-4.37 2.36 1.84a39 39 0 0 0 3.447-5.199l-2.624-1.44-2.623-1.44a33 33 0 0 1-2.92 4.397zm2.186-14.729-1.095 2.786 3.991 1.568 1.094-2.786 1.095-2.786-3.991-1.568zm3.99 1.568-2.454-1.712a38 38 0 0 1-3.086 3.832l2.215 2.014 2.215 2.013a44 44 0 0 0 3.565-4.434zm-3.325 4.134-2.215-2.014a64 64 0 0 1-3.767 3.813l2.038 2.191 2.039 2.192a70 70 0 0 0 4.12-4.17zm-3.944 3.99-2.038-2.191a40 40 0 0 1-3.798 3.137l1.751 2.428 1.75 2.427a46 46 0 0 0 4.374-3.61zm-4.085 3.374 2.566-1.54c-.255-.426-.554-.861-.884-1.302l-2.395 1.796-2.395 1.796c.24.32.416.582.541.79zm-.713-1.046 2.461-1.704a34 34 0 0 0-.991-1.356l-2.373 1.825-2.372 1.825q.43.56.814 1.114zm-.903-1.235 2.461-1.704c-.35-.506-.733-.991-1.152-1.41l-2.116 2.116-2.117 2.117c.088.087.244.267.463.585zm-.807-.998 1.733 2.44a50 50 0 0 0 3.892-3.082l-1.967-2.256-1.967-2.256a44 44 0 0 1-3.425 2.714zm3.658-2.898 1.999 2.228a48 48 0 0 0 3.7-3.7l-2.231-1.996-2.231-1.996a42 42 0 0 1-3.236 3.237zm3.468-3.468 2.231 1.996c1.155-1.291 2.143-2.555 2.943-3.79l-2.513-1.627-2.513-1.626c-.595.918-1.38 1.935-2.379 3.051zm-.523 15.963 2.117 2.117 3.753-3.754-2.116-2.116-2.117-2.117-3.753 3.754zm3.754-3.753-1.112 2.78.475.19 1.112-2.78 1.111-2.78-.475-.19zm.475.19h-2.993v28.41h5.986V34.61zm0 28.41v-2.992h-4.229v5.986h4.229zm-4.229 0h2.994V38.174h-5.987v24.848zm48.033-19.953v-2.993h-2.994v2.993zm31.071 0h2.993v-2.993h-2.993zm0 19.954v2.993h2.993v-2.993zm-4.656 0h-2.993v2.993h2.993zm0-16.438h2.993v-2.994h-2.993zm-21.949 0v-2.994H600.5v2.994zm0 16.438v2.993h2.993v-2.993zm-4.466 0h-2.994v2.993h2.994zm2.28-12.685v-2.993h-2.993v2.993zm25.418 0h2.993v-2.993h-2.993zm0 3.468v2.993h2.993v-2.993zm-25.418 0h-2.993v2.993h2.993zm.19 3.943v-2.993h-2.993v2.993zm25.37 0h2.993v-2.993h-2.993zm0 3.468v2.994h2.993v-2.994zm-25.37 0h-2.993v2.994h2.993zm10.357-22.567.497-2.951-2.802-.472-.617 2.774zm4.799.808 2.662 1.369 1.872-3.641-4.037-.68zm-1.806 3.278-2.58-1.517-.007.012-.007.012zm-1.615 2.66-.681 2.915 2.042.478 1.146-1.757zm-3.658-.854-2.697-1.299-1.62 3.363 3.635.85zm1.283-2.946-2.752-1.18-.014.034-.014.034zM593.754 21.07v-2.993h-2.993v2.993zm15.583 0h2.993v-2.993h-2.993zm0 3.563v2.993h2.993v-2.993zm-15.583 0h-2.993v2.993h2.993zm14.491-3.563v-2.993h-2.994v2.993zm4.085 0h2.994v-2.993h-2.994zm-.38 17.91-2.677-1.338-.034.069-.031.07zm-1.33 1.189-1.179-2.751zm-2.566.475-.09-2.992h-.003zm-3.705.047-2.935.587.481 2.407h2.454zm-.475-1.615-2.826.989.009.023.008.023zm-.713-1.615.1-2.992-5.359-.178 2.66 4.655zm4.323 0v-2.994h-.165l-.165.019zm.618-.143 2.117 2.117.15-.15.128-.171zm7.031-16.248v-2.993h-2.993v2.993zm16.534 0h2.993v-2.993h-2.993zm0 3.563v2.993h2.993v-2.993zm-16.534 0h-2.993v2.993h2.993zm14.443-3.563v-2.993h-2.993v2.993zm4.181 0h2.993v-2.993h-2.993zm-.38 17.958 2.677 1.339zm-1.425 1.283 1.133 2.77.105-.042.1-.05zm-2.708.523.085 2.992.043-.001.043-.003zm-3.991.047-2.948.52.437 2.473h2.511zm-.523-1.758-2.839.947.028.083.032.082zm-.712-1.757.093-2.992-5.014-.157 2.244 4.487zm2.898.095-.103 2.991.051.002h.052zm1.853 0v2.993h.149l.148-.015zm.617-.19-1.796-2.395-.17.128-.15.15zm-15.44-2.186-.851-2.87-3.308.98 1.438 3.137zm6.081-1.948.958 2.836.017-.006.017-.006zm7.221-2.518 2.934-.595-.68-3.352-3.233 1.119zm.665 3.278 1.047 2.805 2.395-.894-.508-2.506zm-6.461 2.423 1.02 2.815.018-.007.018-.007zm-5.939 2.186-2.721 1.247 1.162 2.534 2.61-.978zm.761-11.212-2.313-1.9-2.301 2.8 3.186 1.73zm2.185-2.661 1.308-2.692-2.123-1.031-1.498 1.823zm3.516 1.995-1.616 2.52.038.024.038.023zm2.898 2.186 2.348 1.856 1.613-2.041-1.796-1.882zm-2.328 2.945-2.215 2.014 2.375 2.612 2.188-2.77zm-2.803-2.28-1.734 2.44.036.026.038.024zm-27.223 6.509-.896-2.856-3.214 1.008 1.379 3.073zm5.796-1.948.994 2.823zm6.841-2.47 2.925-.636-.732-3.367-3.231 1.195zm.713 3.278 1.127 2.773 2.333-.948-.535-2.461zm-6.081 2.518 1.163 2.757zm-5.606 2.328-2.731 1.225 1.183 2.637 2.677-1.09zm1.235-12.4-2.258-1.966-2.396 2.754 3.169 1.81zm2.233-2.566 1.308-2.692-2.062-1.001-1.504 1.728zm3.468 1.995 1.645-2.5zm2.756 2.233 2.333 1.875 1.603-1.995-1.722-1.893zm-2.328 2.899-2.215 2.013 2.355 2.59 2.193-2.729zm-2.518 11.212v2.993h31.071v-5.986h-31.071zm31.071 0h-2.993V63.02h5.986V43.067zm0 19.954v-2.993h-4.656v5.986h4.656zm-4.656 0h2.993V46.583h-5.986V63.02zm0-16.438v-2.994h-21.949v5.987h21.949zm-21.949 0H600.5V63.02h5.987V46.583zm0 16.438v-2.993h-4.466v5.986h4.466zm-4.466 0h2.993V43.067h-5.987V63.02zm2.28-12.685v2.993h25.418v-5.986h-25.418zm25.418 0h-2.993v3.468h5.986v-3.468zm0 3.468V50.81h-25.418v5.986h25.418zm-25.418 0h2.993v-3.468h-5.986v3.468zm.19 3.943v2.993h25.37v-5.986h-25.37zm25.37 0h-2.993v3.468h5.986v-3.468zm0 3.468v-2.993h-25.37v5.987h25.37zm-25.37 0h2.993v-3.468h-5.986v3.468zm10.357-22.567-.497 2.952 4.799.808.497-2.952.497-2.952-4.799-.807zm4.799.808-2.662-1.369a63 63 0 0 1-1.724 3.13l2.58 1.517 2.58 1.518a70 70 0 0 0 1.888-3.427zm-1.806 3.278-2.594-1.493a53 53 0 0 1-1.528 2.519l2.507 1.635 2.507 1.635a59 59 0 0 0 1.702-2.802zm-1.615 2.66.681-2.914-3.658-.855-.681 2.915-.682 2.914 3.659.855zm-3.658-.854 2.697 1.298q.67-1.396 1.365-3.132l-2.779-1.112-2.78-1.112a44 44 0 0 1-1.2 2.76zm1.283-2.946 2.751 1.179c.523-1.22.926-2.385 1.168-3.475l-2.922-.65-2.922-.649c-.138.62-.4 1.42-.827 2.416zM593.754 21.07v2.993h15.583v-5.986h-15.583zm15.583 0h-2.993v3.563h5.986V21.07zm0 3.563V21.64h-15.583v5.986h15.583zm-15.583 0h2.993V21.07h-5.986v3.563zm14.491-3.563v2.993h4.085v-5.986h-4.085zm4.085 0h-2.993v15.773h5.987V21.07zm0 15.773h-2.993c0 .328-.023.555-.049.7-.026.147-.047.163-.015.1l2.677 1.338 2.677 1.338c.552-1.102.697-2.349.697-3.476zm-.38 2.138-2.742-1.2c.074-.17.175-.289.25-.356.066-.059.08-.05-.017-.008l1.179 2.752 1.179 2.75c1.142-.489 2.282-1.34 2.894-2.738zm-1.33 1.188-1.179-2.751c-.204.087-.654.209-1.477.234l.09 2.992.091 2.992c1.267-.039 2.527-.233 3.654-.716zm-2.566.475-.093-2.992q-1.457.045-3.612.046v5.986q2.215 0 3.799-.048zm-3.705.047 2.935-.587a14 14 0 0 0-.602-2.063l-2.808 1.035-2.809 1.035c.184.5.292.884.349 1.167zm-.475-1.615 2.825-.989a13 13 0 0 0-.939-2.111l-2.599 1.485-2.599 1.485c.14.245.307.607.486 1.119zm-.713-1.615-.1 2.991q1.468.05 2.761.05v-5.987q-1.178 0-2.561-.046zm2.661.047v2.993c.801 0 1.517-.013 1.993-.066l-.331-2.974-.33-2.975-.103.007q-.104.006-.282.011-.356.01-.947.01zm1.662-.047v2.993c.285 0 .662-.02 1.065-.112a3.44 3.44 0 0 0 1.67-.907l-2.117-2.117-2.117-2.116a2.56 2.56 0 0 1 1.218-.694c.198-.045.314-.04.281-.04zm.618-.143 2.395 1.796c.612-.816.741-1.702.741-2.318h-5.987c0-.174.035-.711.456-1.274zm.143-.523h2.993V21.07h-5.987v15.725zm6.888-15.725v2.993h16.534v-5.986h-16.534zm16.534 0h-2.993v3.563h5.986V21.07zm0 3.563V21.64h-16.534v5.986h16.534zm-16.534 0h2.994V21.07h-5.987v3.563zm14.443-3.563v2.993h4.181v-5.986h-4.181zm4.181 0h-2.993v15.725h5.986V21.07zm0 15.725h-2.993c0 .37-.024.627-.053.793-.029.172-.052.183-.011.102l2.677 1.338 2.677 1.339c.562-1.123.696-2.419.696-3.572zm-.38 2.233L630.7 37.69a1 1 0 0 1 .085-.137c.025-.032.042-.047.043-.049a1.495 1.495 0 0 1-.215.13l1.339 2.677 1.338 2.677c1.063-.531 2.13-1.353 2.764-2.621zm-1.425 1.283-1.134-2.77c-.281.115-.825.252-1.745.305l.171 2.988.171 2.988c1.297-.074 2.558-.286 3.67-.74zm-2.708.523-.086-2.992q-1.605.045-3.905.046v5.986q2.357 0 4.076-.048zm-3.991.047 2.948-.52c-.139-.783-.38-1.57-.692-2.35l-2.779 1.112-2.779 1.112c.195.487.303.873.354 1.166zm-.523-1.758 2.84-.946c-.257-.77-.546-1.491-.875-2.15l-2.677 1.339-2.677 1.338c.177.355.363.805.55 1.366zm-.712-1.757-.094 2.991q1.516.047 2.889.095l.103-2.991.103-2.992q-1.383-.047-2.908-.095zm2.898.095v2.993h1.853v-5.987h-1.853zm1.853 0 .297 2.978c.272-.027.616-.078.975-.189a3.5 3.5 0 0 0 1.462-.863l-2.117-2.116-2.116-2.117c.236-.237.469-.382.63-.467.164-.086.299-.133.38-.158.154-.048.236-.051.191-.047zm.617-.19 1.796 2.394c1.243-.932 1.388-2.292 1.388-2.917h-5.987c0-.118.018-1.13 1.007-1.872zm.19-.523h2.994V21.07h-5.987v15.678zm-15.63-1.663.85 2.87q2.637-.781 6.189-1.982l-.958-2.836-.958-2.835q-3.48 1.175-5.974 1.913zm6.081-1.948.992 2.824q3.509-1.233 7.208-2.513l-.979-2.829-.979-2.828q-3.712 1.284-7.234 2.522zm7.221-2.518-2.933.595.665 3.279 2.933-.596 2.934-.595-.665-3.278zm.665 3.278-1.046-2.804q-3.188 1.19-6.47 2.426l1.055 2.801 1.056 2.801q3.273-1.233 6.452-2.42zm-6.461 2.423-1.019-2.814a570 570 0 0 0-5.97 2.197l1.05 2.803 1.051 2.803q2.643-.992 5.908-2.174zm-5.939 2.186 2.722-1.247-1.568-3.421-2.721 1.247-2.721 1.247 1.567 3.421zm.761-11.212 2.313 1.9 2.185-2.661-2.313-1.9-2.313-1.9-2.185 2.66zm2.185-2.661-1.308 2.692a32 32 0 0 1 3.208 1.823l1.616-2.52 1.615-2.52a37 37 0 0 0-3.823-2.167zm3.516 1.995-1.54 2.567c1.145.687 1.863 1.257 2.273 1.686l2.165-2.067 2.165-2.067c-.921-.965-2.135-1.852-3.523-2.685zm2.898 2.186-2.348-1.856-2.328 2.946 2.348 1.855 2.348 1.856 2.328-2.945zm-2.328 2.945 2.215-2.013c-.865-.95-2.021-1.866-3.358-2.758l-1.66 2.491-1.66 2.49c1.134.756 1.845 1.361 2.248 1.804zm-2.803-2.28 1.734-2.44a37 37 0 0 0-3.774-2.376l-1.428 2.63-1.428 2.631a31 31 0 0 1 3.162 1.995zm-27.223 6.509.896 2.856q2.489-.782 5.894-1.98l-.994-2.824-.994-2.823a178 178 0 0 1-5.698 1.915zm5.796-1.948.994 2.823a470 470 0 0 0 6.886-2.486l-1.039-2.808-1.038-2.807a462 462 0 0 1-6.797 2.455zm6.841-2.47-2.924.635.712 3.278 2.925-.635 2.925-.636-.713-3.278zm.713 3.278-1.127-2.773a504 504 0 0 0-6.118 2.533l1.164 2.758 1.163 2.757a490 490 0 0 1 6.045-2.502zm-6.081 2.518-1.164-2.758a487 487 0 0 1-5.572 2.314l1.13 2.772 1.129 2.772a493 493 0 0 0 5.64-2.343zm-5.606 2.328 2.731-1.226-1.663-3.706-2.731 1.226-2.731 1.225 1.663 3.706zm1.235-12.4 2.258 1.965 2.233-2.566-2.258-1.965-2.258-1.965-2.233 2.565zm2.233-2.566-1.308 2.692a28 28 0 0 1 3.131 1.804l1.645-2.5 1.645-2.501a34 34 0 0 0-3.805-2.187zm3.468 1.995-1.645 2.501c1.092.718 1.785 1.305 2.186 1.746l2.215-2.014 2.214-2.013c-.866-.953-2.01-1.855-3.325-2.72zm2.756 2.233-2.334-1.874-2.328 2.898 2.334 1.875 2.333 1.874 2.328-2.898zm-2.328 2.899 2.214-2.014c-.821-.904-1.9-1.815-3.158-2.732l-1.764 2.417-1.765 2.418c1.086.793 1.813 1.434 2.258 1.924zm-2.708-2.329 1.764-2.417a40 40 0 0 0-3.7-2.414l-1.485 2.599-1.485 2.598q1.5.857 3.141 2.052z" mask="url(#j)"/><defs><linearGradient id="c" x1="321.307" x2="321.307" y1="104.853" y2="5.938" gradientUnits="userSpaceOnUse"><stop stop-color="#7c3aed"/><stop offset="1" stop-color="#4f46e5"/></linearGradient><linearGradient id="e" x1="321.303" x2="321.303" y1="16.826" y2="73.826" gradientUnits="userSpaceOnUse"><stop stop-color="#7c3aed"/><stop offset="1" stop-color="#4f46e5"/></linearGradient><linearGradient id="g" x1="590.528" x2="590.528" y1="98.914" y2="0" gradientUnits="userSpaceOnUse"><stop stop-color="#7c3aed"/><stop offset="1" stop-color="#4f46e5"/></linearGradient><linearGradient id="i" x1="590.523" x2="590.523" y1="10.887" y2="67.888" gradientUnits="userSpaceOnUse"><stop stop-color="#7c3aed"/><stop offset="1" stop-color="#4f46e5"/></linearGradient><filter id="a" width="1154.33" height="630.737" x="0" y="96.876" color-interpolation-filters="sRGB" filterUnits="userSpaceOnUse"><feFlood flood-opacity="0" result="BackgroundImageFix"/><feColorMatrix in="SourceAlpha" result="hardAlpha" values="0 0 0 0 0 0 0 0 0 0 0 0 0 0 0 0 0 0 127 0"/><feOffset dx="14.847" dy="14.847"/><feGaussianBlur stdDeviation="19.796"/><feComposite in2="hardAlpha" operator="out"/><feColorMatrix values="0 0 0 0 1 0 0 0 0 0.670588 0 0 0 0 0.737255 0 0 0 1 0"/><feBlend in2="BackgroundImageFix" result="effect1_dropShadow_3797_1790"/><feBlend in="SourceGraphic" in2="effect1_dropShadow_3797_1790" result="shape"/></filter><filter id="b" width="1165.04" height="286.482" x=".245" y="80.049" color-interpolation-filters="sRGB" filterUnits="userSpaceOnUse"><feFlood flood-opacity="0" result="BackgroundImageFix"/><feColorMatrix in="SourceAlpha" result="hardAlpha" values="0 0 0 0 0 0 0 0 0 0 0 0 0 0 0 0 0 0 127 0"/><feOffset dx="14.847" dy="14.847"/><feGaussianBlur stdDeviation="19.796"/><feComposite in2="hardAlpha" operator="out"/><feColorMatrix values="0 0 0 0 0.721569 0 0 0 0 1 0 0 0 0 0.270588 0 0 0 1 0"/><feBlend in2="BackgroundImageFix" result="effect1_dropShadow_3797_1790"/><feBlend in="SourceGraphic" in2="effect1_dropShadow_3797_1790" result="shape"/></filter></defs></svg>