<svg width="1143" height="874" viewBox="0 0 1143 874" fill="none" xmlns="http://www.w3.org/2000/svg">
<path d="M1142.96 11.1929C1143.3 8.45276 1141.36 5.95418 1138.62 5.61219L1093.97 0.0390367C1091.23 -0.302951 1088.73 1.64111 1088.39 4.38129C1088.04 7.12146 1089.99 9.62005 1092.73 9.96203L1132.42 14.9159L1127.47 54.608C1127.12 57.3482 1129.07 59.8468 1131.81 60.1888C1134.55 60.5307 1137.05 58.5867 1137.39 55.8465L1142.96 11.1929ZM34 869.574L37.0704 873.52L1141.07 14.5199L1138 10.5737L1134.93 6.6275L30.9296 865.628L34 869.574Z" fill="white"/>
<g filter="url(#filter0_d_3799_3808)">
<rect x="4" y="694.574" width="321.428" height="145.214" rx="72.607" fill="#9CA3AF" shape-rendering="crispEdges"/>
<rect x="6.5" y="697.074" width="316.428" height="140.214" rx="70.107" stroke="white" stroke-width="5" shape-rendering="crispEdges"/>
<path d="M55.4795 763.036H123.166V772.025H55.4795V763.036ZM61.1452 744.377H117.651V753.366H61.1452V744.377ZM84.2612 733.045H93.9306V803.98H84.2612V733.045ZM82.6748 768.248L90.5312 771.496C88.7182 774.468 86.6534 777.389 84.3367 780.259C82.0201 783.08 79.502 785.749 76.7825 788.267C74.1133 790.785 71.3182 793.101 68.3973 795.217C65.5267 797.282 62.6057 799.095 59.6343 800.656C59.1307 799.85 58.476 798.969 57.6702 798.012C56.9148 797.055 56.109 796.123 55.2529 795.217C54.4471 794.26 53.6665 793.454 52.9111 792.799C55.832 791.54 58.7278 790.029 61.5984 788.267C64.5194 786.454 67.2893 784.464 69.9081 782.299C72.5269 780.133 74.9191 777.867 77.0846 775.5C79.2502 773.083 81.1136 770.665 82.6748 768.248ZM95.5925 768.324C97.1034 770.741 98.9416 773.158 101.107 775.576C103.323 777.943 105.74 780.209 108.359 782.374C110.978 784.54 113.698 786.529 116.518 788.342C119.388 790.105 122.259 791.616 125.13 792.875C124.425 793.429 123.644 794.184 122.788 795.141C121.982 796.048 121.201 797.005 120.446 798.012C119.691 799.019 119.061 799.925 118.557 800.731C115.636 799.17 112.741 797.332 109.87 795.217C106.999 793.101 104.23 790.785 101.56 788.267C98.8912 785.698 96.3983 783.004 94.0817 780.184C91.8154 777.363 89.7758 774.468 87.9628 771.496L95.5925 768.324ZM144.544 758.805H179.369V766.662H144.544V758.805ZM131.022 775.802H198.632V784.112H131.022V775.802ZM160.106 770.892H169.398V794.235C169.398 796.551 169.07 798.364 168.415 799.674C167.761 800.983 166.527 801.965 164.714 802.62C162.901 803.275 160.786 803.677 158.368 803.829C155.951 803.98 153.131 804.055 149.908 804.055C149.605 802.746 149.077 801.235 148.321 799.523C147.616 797.861 146.911 796.425 146.206 795.217C147.818 795.267 149.454 795.317 151.116 795.368C152.778 795.418 154.239 795.443 155.498 795.443C156.807 795.443 157.714 795.418 158.217 795.368C158.973 795.368 159.476 795.267 159.728 795.066C159.98 794.864 160.106 794.512 160.106 794.008V770.892ZM176.498 758.805H178.689L180.653 758.352L186.319 762.733C184.657 764.597 182.718 766.46 180.502 768.324C178.286 770.187 175.97 771.95 173.552 773.612C171.135 775.223 168.692 776.633 166.225 777.842C165.671 777.036 164.89 776.13 163.883 775.122C162.926 774.065 162.12 773.209 161.466 772.554C163.43 771.547 165.369 770.338 167.282 768.928C169.246 767.518 171.034 766.082 172.646 764.622C174.257 763.111 175.542 761.751 176.498 760.543V758.805ZM132.004 744.981H197.801V763.489H188.887V752.988H140.465V763.489H132.004V744.981ZM184.279 733.499L194.1 736.369C192.388 738.887 190.6 741.355 188.736 743.772C186.873 746.19 185.186 748.229 183.675 749.891L176.196 747.172C177.204 745.862 178.186 744.427 179.142 742.866C180.15 741.305 181.107 739.718 182.013 738.107C182.92 736.445 183.675 734.909 184.279 733.499ZM137.065 737.2L144.771 733.725C146.13 735.236 147.465 736.923 148.774 738.786C150.084 740.599 151.041 742.236 151.645 743.697L143.486 747.549C142.932 746.139 142.026 744.477 140.767 742.564C139.558 740.6 138.324 738.812 137.065 737.2ZM156.026 735.538L164.034 732.592C165.243 734.204 166.401 736.042 167.509 738.107C168.667 740.171 169.498 741.984 170.002 743.546L161.466 746.87C161.063 745.359 160.332 743.546 159.275 741.43C158.268 739.265 157.185 737.301 156.026 735.538ZM215.327 772.176H266.167V804.131H256.725V778.975H224.317V804.131H215.327V772.176ZM219.86 783.357H259.217V790.155H219.86V783.357ZM220.389 794.537H259.595V801.411H220.389V794.537ZM235.422 765.226L245.167 766.586C244.21 768.55 243.202 770.414 242.145 772.176C241.087 773.939 240.156 775.425 239.35 776.633L231.947 775.047C232.601 773.586 233.256 771.95 233.911 770.137C234.616 768.324 235.119 766.687 235.422 765.226ZM207.169 736.369H231.493V743.395H207.169V736.369ZM229.454 736.369H237.688V761.449C237.688 763.162 237.461 764.496 237.008 765.453C236.555 766.41 235.749 767.19 234.591 767.795C233.382 768.298 231.921 768.601 230.209 768.701C228.497 768.752 226.508 768.777 224.241 768.777C224.09 767.82 223.788 766.737 223.335 765.529C222.882 764.32 222.428 763.262 221.975 762.356C223.284 762.406 224.543 762.431 225.752 762.431C227.011 762.431 227.867 762.431 228.321 762.431C228.723 762.431 229 762.356 229.152 762.205C229.353 762.003 229.454 761.726 229.454 761.374V736.369ZM241.692 736.369H267.754V743.395H241.692V736.369ZM263.523 736.369H271.984V761.223C271.984 763.086 271.732 764.521 271.229 765.529C270.775 766.485 269.894 767.266 268.585 767.87C267.326 768.424 265.764 768.777 263.901 768.928C262.088 769.029 259.948 769.054 257.48 769.003C257.329 767.946 257.002 766.788 256.498 765.529C256.045 764.219 255.566 763.086 255.063 762.129C256.523 762.179 257.958 762.23 259.369 762.28C260.829 762.28 261.786 762.28 262.239 762.28C262.692 762.23 263.02 762.129 263.221 761.978C263.423 761.827 263.523 761.55 263.523 761.147V736.369ZM239.501 758.654C242.22 757.848 245.418 756.841 249.095 755.632C252.771 754.373 256.498 753.089 260.275 751.78L261.71 758.276C258.437 759.535 255.113 760.795 251.739 762.054C248.415 763.262 245.343 764.37 242.523 765.377L239.501 758.654ZM242.976 747.852L247.357 742.488C249.019 743.294 250.832 744.301 252.796 745.51C254.811 746.668 256.372 747.751 257.48 748.758L252.872 754.65C251.865 753.593 250.379 752.434 248.415 751.175C246.501 749.866 244.688 748.758 242.976 747.852ZM205.129 759.938C207.647 759.183 210.644 758.226 214.119 757.068C217.644 755.859 221.22 754.6 224.846 753.291L226.205 759.863C223.133 761.122 220.036 762.431 216.914 763.791C213.842 765.1 210.971 766.284 208.302 767.342L205.129 759.938ZM209.133 747.927L213.439 742.715C215.101 743.52 216.889 744.528 218.802 745.736C220.716 746.895 222.202 747.977 223.259 748.985L218.727 754.801C217.719 753.744 216.284 752.56 214.421 751.251C212.557 749.942 210.795 748.834 209.133 747.927Z" fill="white"/>
</g>
<rect x="239.5" y="538.074" width="241.428" height="140.214" rx="70.107" fill="#FCA5A5"/>
<rect x="239.5" y="538.074" width="241.428" height="140.214" rx="70.107" stroke="white" stroke-width="5"/>
<path d="M288.977 600.107H355.908V608.568H288.977V600.107ZM317.683 592.629H326.975V621.788H317.683V592.629ZM302.273 633.648H343.141V642.033H302.273V633.648ZM296.909 616.273H348.656V644.753H339.289V624.659H305.823V644.829H296.909V616.273ZM289.128 580.164H355.681V588.474H289.128V580.164ZM304.464 573.97H313.453V596.028H304.464V573.97ZM331.206 573.97H340.195V596.028H331.206V573.97ZM419.364 573.819L425.936 581.373C422.058 582.38 417.828 583.261 413.245 584.017C408.712 584.722 404.003 585.351 399.118 585.905C394.233 586.409 389.323 586.837 384.387 587.19C379.452 587.492 374.693 587.718 370.11 587.87C369.959 586.711 369.657 585.351 369.203 583.79C368.75 582.179 368.297 580.869 367.844 579.862C372.376 579.711 377.009 579.459 381.743 579.107C386.528 578.754 391.186 578.326 395.719 577.822C400.302 577.319 404.608 576.74 408.637 576.085C412.665 575.43 416.241 574.675 419.364 573.819ZM368.599 595.273H428.278V603.96H368.599V595.273ZM363.387 612.874H432.81V621.788H363.387V612.874ZM393.377 584.546H402.82V634.101C402.82 636.821 402.442 638.835 401.687 640.145C400.982 641.505 399.697 642.562 397.834 643.318C396.071 643.972 393.78 644.4 390.96 644.602C388.19 644.803 384.866 644.879 380.988 644.829C380.837 643.972 380.535 642.99 380.082 641.882C379.679 640.825 379.225 639.742 378.722 638.634C378.218 637.576 377.74 636.645 377.286 635.839C379.2 635.889 381.089 635.94 382.952 635.99C384.816 636.04 386.477 636.066 387.938 636.066C389.398 636.066 390.431 636.066 391.035 636.066C391.891 636.015 392.496 635.839 392.848 635.537C393.201 635.235 393.377 634.706 393.377 633.95V584.546Z" fill="white"/>
<rect x="362.5" y="369.074" width="392.428" height="140.214" rx="70.107" fill="#FCD34D"/>
<rect x="362.5" y="369.074" width="392.428" height="140.214" rx="70.107" stroke="white" stroke-width="5"/>
<path d="M459.376 444.478C459.376 442.816 458.947 441.306 458.091 439.946C457.286 438.586 456.052 437.503 454.39 436.698C452.778 435.841 450.764 435.413 448.346 435.413C445.627 435.413 442.983 435.64 440.414 436.093C437.896 436.546 435.63 437.075 433.616 437.68C431.651 438.234 430.015 438.712 428.705 439.115C427.597 439.417 426.364 439.845 425.004 440.399C423.694 440.903 422.486 441.356 421.378 441.759L418.507 430.956C419.817 430.856 421.227 430.679 422.737 430.428C424.248 430.176 425.608 429.924 426.817 429.672C428.68 429.219 430.795 428.74 433.162 428.237C435.58 427.683 438.199 427.204 441.019 426.801C443.839 426.399 446.71 426.197 449.631 426.197C453.66 426.197 457.185 426.953 460.207 428.463C463.279 429.924 465.671 432.039 467.383 434.809C469.095 437.579 469.952 440.928 469.952 444.856C469.952 448.885 469.07 452.536 467.308 455.81C465.545 459.083 463.052 461.954 459.829 464.422C456.606 466.839 452.803 468.853 448.422 470.465C444.04 472.077 439.231 473.235 433.993 473.94L428.554 464.573C433.238 464.019 437.468 463.213 441.245 462.155C445.073 461.098 448.321 459.763 450.99 458.152C453.71 456.49 455.775 454.551 457.185 452.335C458.645 450.069 459.376 447.45 459.376 444.478ZM429.687 408.218C431.853 408.671 434.447 409.099 437.468 409.502C440.54 409.905 443.688 410.258 446.911 410.56C450.185 410.862 453.282 411.114 456.203 411.315C459.174 411.466 461.642 411.567 463.606 411.617L462.095 420.909C459.879 420.758 457.286 420.557 454.314 420.305C451.343 420.053 448.271 419.776 445.098 419.474C441.925 419.121 438.853 418.769 435.882 418.416C432.961 418.013 430.392 417.636 428.177 417.283L429.687 408.218ZM499.564 412.146C500.168 412.197 501.025 412.272 502.133 412.373C503.241 412.423 504.424 412.448 505.683 412.448C506.489 412.448 507.723 412.448 509.385 412.448C511.097 412.448 512.986 412.448 515.05 412.448C517.166 412.398 519.306 412.348 521.471 412.297C523.637 412.197 525.601 412.121 527.364 412.071C529.177 412.02 530.562 411.97 531.519 411.92C532.425 411.819 533.382 411.718 534.389 411.617C535.396 411.466 536.253 411.29 536.958 411.089L542.019 417.736C541.364 418.089 540.634 418.517 539.828 419.021C539.022 419.524 538.368 419.952 537.864 420.305C536.756 421.111 535.497 422.067 534.087 423.175C532.727 424.283 531.216 425.467 529.554 426.726C527.943 427.985 526.306 429.269 524.644 430.579C522.982 431.838 521.32 433.097 519.658 434.356C520.917 434.003 522.177 433.751 523.436 433.6C524.745 433.449 525.878 433.374 526.835 433.374C531.267 433.374 535.17 434.179 538.544 435.791C541.918 437.403 544.537 439.593 546.4 442.363C548.264 445.133 549.196 448.281 549.196 451.806C549.196 456.792 547.71 461.022 544.739 464.497C541.818 467.972 537.31 470.465 531.216 471.976C525.173 473.537 517.493 473.965 508.176 473.26L505.532 463.44C510.77 464.094 515.453 464.346 519.583 464.195C523.713 463.994 527.187 463.389 530.008 462.382C532.878 461.324 535.069 459.914 536.58 458.152C538.091 456.339 538.846 454.198 538.846 451.73C538.846 448.759 537.562 446.291 534.994 444.327C532.475 442.313 529.051 441.306 524.72 441.306C521.799 441.306 519.054 441.734 516.486 442.59C513.968 443.446 511.575 444.604 509.309 446.065C507.093 447.525 504.928 449.212 502.812 451.126C500.748 452.99 498.708 454.954 496.694 457.018L489.593 449.54C491.607 448.029 493.898 446.241 496.467 444.176C499.035 442.111 501.679 439.971 504.399 437.755C507.169 435.489 509.838 433.273 512.406 431.107C514.975 428.942 517.291 426.953 519.356 425.14C521.421 423.276 523.058 421.715 524.267 420.456C523.41 420.456 522.353 420.481 521.094 420.531C519.885 420.582 518.55 420.657 517.09 420.758C515.63 420.859 514.194 420.96 512.784 421.06C511.374 421.111 510.065 421.161 508.856 421.211C507.698 421.262 506.741 421.312 505.985 421.362C505.079 421.413 504.021 421.514 502.812 421.665C501.604 421.765 500.571 421.891 499.715 422.042L499.564 412.146ZM584.323 441.759V445.234H608.647V441.759H584.323ZM584.323 450.295V453.921H608.647V450.295H584.323ZM584.323 433.147V436.622H608.647V433.147H584.323ZM575.938 427.784H617.486V459.36H575.938V427.784ZM583.492 457.17H592.784C592.33 459.788 591.625 462.13 590.668 464.195C589.762 466.26 588.352 468.048 586.438 469.558C584.524 471.069 581.905 472.354 578.582 473.411C575.258 474.519 571.002 475.426 565.815 476.131C565.613 475.375 565.261 474.494 564.757 473.487C564.254 472.479 563.7 471.497 563.095 470.541C562.491 469.634 561.887 468.879 561.282 468.274C565.764 467.871 569.391 467.393 572.16 466.839C574.93 466.235 577.071 465.504 578.582 464.648C580.143 463.792 581.276 462.76 581.981 461.551C582.686 460.292 583.19 458.831 583.492 457.17ZM600.111 457.094H609.101V465.328C609.101 466.335 609.277 466.965 609.629 467.217C610.032 467.418 610.964 467.519 612.425 467.519C612.727 467.519 613.23 467.519 613.935 467.519C614.691 467.519 615.471 467.519 616.277 467.519C617.133 467.519 617.939 467.519 618.695 467.519C619.45 467.519 620.029 467.519 620.432 467.519C621.238 467.519 621.842 467.393 622.245 467.141C622.698 466.839 623 466.209 623.152 465.253C623.353 464.296 623.504 462.81 623.605 460.796C624.209 461.249 624.965 461.702 625.871 462.155C626.828 462.558 627.81 462.936 628.817 463.288C629.875 463.591 630.781 463.817 631.537 463.968C631.235 467.091 630.706 469.483 629.95 471.145C629.195 472.807 628.137 473.94 626.778 474.544C625.418 475.199 623.63 475.526 621.414 475.526C621.011 475.526 620.457 475.526 619.752 475.526C619.097 475.526 618.342 475.526 617.486 475.526C616.63 475.526 615.799 475.526 614.993 475.526C614.187 475.526 613.432 475.526 612.727 475.526C612.072 475.526 611.568 475.526 611.216 475.526C608.194 475.526 605.878 475.199 604.266 474.544C602.705 473.94 601.622 472.882 601.018 471.372C600.413 469.911 600.111 467.947 600.111 465.479V457.094ZM564.455 416.981H629.195V433.676H620.508V424.46H572.765V433.676H564.455V416.981ZM614.691 405.423L624.436 408.369C622.774 410.484 621.112 412.574 619.45 414.639C617.788 416.654 616.277 418.391 614.917 419.852L607.439 417.057C608.295 415.949 609.176 414.74 610.083 413.43C610.989 412.071 611.845 410.711 612.651 409.351C613.457 407.941 614.137 406.632 614.691 405.423ZM568.685 409.502L576.391 406.103C577.7 407.463 579.01 409.024 580.319 410.786C581.679 412.499 582.686 414.035 583.341 415.395L575.031 419.172C574.477 417.862 573.596 416.301 572.387 414.488C571.178 412.625 569.945 410.963 568.685 409.502ZM587.949 407.689L595.881 404.97C596.938 406.43 598.021 408.117 599.129 410.031C600.237 411.894 601.043 413.506 601.546 414.866L593.237 417.963C592.784 416.603 592.053 414.941 591.046 412.977C590.039 411.013 589.006 409.25 587.949 407.689ZM657.826 407.916C659.941 408.319 662.358 408.722 665.078 409.125C667.797 409.477 670.592 409.83 673.463 410.182C676.384 410.535 679.154 410.837 681.772 411.089C684.442 411.29 686.733 411.466 688.647 411.617L687.438 420.456C685.474 420.305 683.157 420.103 680.488 419.852C677.869 419.549 675.125 419.222 672.254 418.87C669.434 418.517 666.639 418.164 663.869 417.812C661.099 417.459 658.606 417.082 656.39 416.679L657.826 407.916ZM691.291 431.938C690.284 432.643 689.377 433.323 688.571 433.978C687.766 434.582 687.035 435.187 686.381 435.791C685.474 436.496 684.416 437.403 683.208 438.511C682.049 439.619 680.841 440.752 679.582 441.91C678.323 443.018 677.19 444.05 676.182 445.007C675.225 445.964 674.52 446.694 674.067 447.198C674.369 447.148 674.823 447.173 675.427 447.273C676.031 447.374 676.535 447.525 676.938 447.727C678.046 448.079 678.952 448.684 679.657 449.54C680.362 450.346 680.967 451.453 681.47 452.864C681.722 453.518 681.949 454.274 682.15 455.13C682.402 455.936 682.654 456.741 682.906 457.547C683.157 458.353 683.409 459.083 683.661 459.738C684.014 460.896 684.618 461.778 685.474 462.382C686.33 462.986 687.489 463.288 688.949 463.288C690.913 463.288 692.777 463.238 694.539 463.137C696.302 462.986 697.964 462.81 699.525 462.609C701.086 462.407 702.496 462.181 703.755 461.929L703.151 471.825C702.144 472.026 700.708 472.202 698.845 472.354C697.032 472.555 695.144 472.706 693.179 472.807C691.266 472.908 689.654 472.958 688.345 472.958C684.769 472.958 681.949 472.479 679.884 471.523C677.869 470.616 676.384 468.929 675.427 466.461C675.225 465.706 674.974 464.85 674.672 463.893C674.369 462.936 674.092 462.004 673.841 461.098C673.639 460.141 673.438 459.36 673.236 458.756C672.833 457.396 672.254 456.464 671.499 455.961C670.743 455.407 669.988 455.13 669.232 455.13C668.427 455.13 667.621 455.407 666.815 455.961C666.009 456.464 665.153 457.195 664.247 458.152C663.743 458.655 663.114 459.31 662.358 460.116C661.653 460.921 660.822 461.828 659.865 462.835C658.959 463.842 658.002 464.925 656.995 466.084C656.038 467.242 655.03 468.451 653.973 469.71C652.915 470.969 651.858 472.278 650.8 473.638L641.886 467.368C642.541 466.763 643.321 466.084 644.228 465.328C645.134 464.522 646.091 463.641 647.099 462.684C647.753 462.029 648.685 461.098 649.894 459.889C651.102 458.63 652.487 457.22 654.048 455.659C655.66 454.097 657.322 452.436 659.034 450.673C660.797 448.86 662.56 447.072 664.322 445.309C666.085 443.547 667.722 441.885 669.232 440.324C670.794 438.712 672.153 437.302 673.312 436.093C672.254 436.144 671.071 436.219 669.761 436.32C668.452 436.37 667.092 436.446 665.682 436.546C664.272 436.597 662.887 436.698 661.527 436.849C660.167 436.949 658.908 437.05 657.75 437.151C656.592 437.252 655.559 437.352 654.653 437.453C653.343 437.554 652.135 437.705 651.027 437.906C649.919 438.057 648.962 438.183 648.156 438.284L647.25 427.859C648.106 427.909 649.189 427.985 650.498 428.086C651.807 428.136 653.142 428.136 654.502 428.086C655.207 428.086 656.365 428.061 657.977 428.01C659.639 427.96 661.552 427.884 663.718 427.784C665.883 427.683 668.074 427.582 670.29 427.481C672.556 427.33 674.672 427.179 676.636 427.028C678.65 426.827 680.262 426.65 681.47 426.499C682.175 426.399 682.956 426.273 683.812 426.122C684.719 425.971 685.373 425.819 685.776 425.668L691.291 431.938Z" fill="white"/>
<rect x="663.5" y="207.074" width="241.428" height="140.214" rx="70.107" fill="#6EE7B7"/>
<rect x="663.5" y="207.074" width="241.428" height="140.214" rx="70.107" stroke="white" stroke-width="5"/>
<path d="M747.954 261.326V265.104H767.746V261.326H747.954ZM747.954 251.581V255.283H767.746V251.581H747.954ZM739.266 245.16H776.886V271.525H739.266V245.16ZM735.413 274.848H779.304V282.252H735.413V274.848ZM733.525 286.482H780.89V294.187H733.525V286.482ZM761.325 281.345H770.465V304.99C770.465 307.055 770.213 308.666 769.71 309.825C769.256 311.033 768.3 311.94 766.839 312.544C765.429 313.199 763.742 313.577 761.778 313.677C759.864 313.828 757.623 313.904 755.054 313.904C754.903 312.695 754.551 311.335 753.997 309.825C753.443 308.314 752.864 306.979 752.259 305.821C753.821 305.871 755.357 305.922 756.868 305.972C758.429 305.972 759.461 305.972 759.965 305.972C760.519 305.922 760.871 305.821 761.022 305.67C761.224 305.468 761.325 305.166 761.325 304.763V281.345ZM738.511 297.964L744.856 293.734C746.468 295.195 748.155 296.857 749.918 298.72C751.68 300.583 753.04 302.245 753.997 303.706L747.274 308.465C746.72 307.508 745.939 306.425 744.932 305.217C743.975 304.008 742.917 302.774 741.759 301.515C740.651 300.206 739.568 299.022 738.511 297.964ZM728.161 259.664L736.093 262.988C734.28 266.111 732.14 269.233 729.672 272.356C727.205 275.478 724.611 278.449 721.891 281.27C719.172 284.039 716.503 286.457 713.884 288.522C713.632 287.817 713.254 286.885 712.751 285.727C712.297 284.518 711.769 283.309 711.164 282.101C710.61 280.892 710.082 279.935 709.578 279.23C711.844 277.618 714.11 275.78 716.377 273.715C718.643 271.6 720.809 269.359 722.873 266.992C724.938 264.575 726.701 262.132 728.161 259.664ZM726.197 243.121L734.809 246.596C733.147 248.912 731.208 251.254 728.992 253.621C726.827 255.938 724.535 258.128 722.118 260.193C719.701 262.258 717.283 264.071 714.866 265.632C714.564 264.927 714.136 264.096 713.582 263.139C713.078 262.183 712.524 261.226 711.92 260.269C711.366 259.312 710.862 258.531 710.409 257.927C712.373 256.718 714.362 255.283 716.377 253.621C718.391 251.959 720.255 250.222 721.967 248.409C723.73 246.545 725.14 244.783 726.197 243.121ZM720.683 276.586L729.068 268.201L729.521 268.352V313.904H720.683V276.586ZM805.819 286.709H838.604V283.385H805.819V286.709ZM805.819 278.097H838.604V274.848H805.819V278.097ZM847.594 269.334V292.299H797.207V269.334H847.594ZM841.399 254.15C840.594 255.61 839.838 256.945 839.133 258.154C838.428 259.312 837.799 260.319 837.245 261.175L829.237 259.438C829.741 258.38 830.244 257.222 830.748 255.963C831.252 254.653 831.655 253.495 831.957 252.488L841.399 254.15ZM811.862 252.488C812.467 253.546 812.996 254.729 813.449 256.038C813.952 257.297 814.33 258.405 814.582 259.362L805.97 261.326C805.769 260.319 805.441 259.136 804.988 257.776C804.585 256.416 804.132 255.207 803.628 254.15L811.862 252.488ZM826.442 242.97V252.11H817.377V242.97H826.442ZM854.922 259.513V266.539H789.275V259.513H854.922ZM850.918 247.049V254.074H792.901V247.049H850.918ZM803.855 297.511C802.797 300.382 801.438 303.152 799.776 305.821C798.164 308.44 796.024 310.656 793.355 312.469L786.254 307.634C788.621 306.173 790.66 304.285 792.372 301.968C794.085 299.652 795.369 297.259 796.225 294.792L803.855 297.511ZM845.252 293.885C846.813 295.144 848.4 296.58 850.011 298.191C851.623 299.803 853.109 301.414 854.468 303.026C855.828 304.637 856.886 306.173 857.641 307.634L850.162 312.015C849.457 310.656 848.45 309.12 847.141 307.407C845.882 305.745 844.472 304.083 842.91 302.421C841.349 300.709 839.788 299.173 838.227 297.813L845.252 293.885ZM818.963 290.561C820.424 291.166 821.935 291.871 823.496 292.677C825.108 293.482 826.618 294.313 828.028 295.169C829.489 295.975 830.672 296.781 831.579 297.587L826.367 302.875C825.51 302.069 824.377 301.238 822.967 300.382C821.607 299.475 820.147 298.594 818.586 297.738C817.024 296.831 815.539 296.051 814.129 295.396L818.963 290.561ZM814.582 303.63C814.582 304.637 814.834 305.267 815.337 305.519C815.891 305.72 817.024 305.821 818.737 305.821C819.14 305.821 819.794 305.821 820.701 305.821C821.607 305.821 822.615 305.821 823.723 305.821C824.831 305.821 825.863 305.821 826.82 305.821C827.827 305.821 828.582 305.821 829.086 305.821C830.043 305.821 830.748 305.695 831.201 305.443C831.655 305.141 831.982 304.562 832.183 303.706C832.435 302.799 832.611 301.465 832.712 299.702C833.619 300.306 834.827 300.885 836.338 301.439C837.899 301.943 839.259 302.296 840.417 302.497C840.115 305.368 839.586 307.558 838.831 309.069C838.076 310.63 836.993 311.688 835.583 312.242C834.223 312.846 832.334 313.149 829.917 313.149C829.514 313.149 828.885 313.149 828.028 313.149C827.223 313.149 826.316 313.149 825.309 313.149C824.302 313.149 823.294 313.149 822.287 313.149C821.28 313.149 820.348 313.149 819.492 313.149C818.686 313.149 818.082 313.149 817.679 313.149C814.506 313.149 812.064 312.872 810.352 312.318C808.639 311.764 807.456 310.782 806.801 309.371C806.146 308.012 805.819 306.148 805.819 303.781V295.774H814.582V303.63Z" fill="white"/>
<rect x="862.5" y="42.0737" width="241.428" height="140.214" rx="70.107" fill="#7C3AED"/>
<rect x="862.5" y="42.0737" width="241.428" height="140.214" rx="70.107" stroke="white" stroke-width="5"/>
<path d="M925.651 99.4236H964.857V107.658H925.651V99.4236ZM911.6 113.097H979.286V121.558H911.6V113.097ZM929.881 119.896H939.701C939.349 123.371 938.77 126.619 937.964 129.641C937.158 132.612 935.874 135.331 934.111 137.799C932.399 140.217 929.982 142.382 926.859 144.296C923.737 146.21 919.708 147.821 914.772 149.131C914.47 148.325 914.017 147.418 913.413 146.411C912.859 145.404 912.229 144.397 911.524 143.389C910.819 142.432 910.139 141.652 909.484 141.048C913.816 140.091 917.265 138.932 919.834 137.573C922.453 136.213 924.417 134.677 925.726 132.964C927.086 131.202 928.043 129.238 928.597 127.072C929.201 124.856 929.629 122.464 929.881 119.896ZM949.371 118.385H958.511V136.817C958.511 138.026 958.688 138.806 959.04 139.159C959.443 139.461 960.325 139.612 961.684 139.612C961.986 139.612 962.465 139.612 963.12 139.612C963.774 139.612 964.505 139.612 965.31 139.612C966.116 139.612 966.872 139.612 967.577 139.612C968.282 139.612 968.836 139.612 969.239 139.612C970.044 139.612 970.649 139.411 971.052 139.008C971.505 138.605 971.807 137.749 971.958 136.439C972.159 135.08 972.311 133.09 972.411 130.472C973.066 130.925 973.872 131.378 974.829 131.831C975.786 132.285 976.768 132.687 977.775 133.04C978.832 133.393 979.764 133.695 980.57 133.947C980.268 137.573 979.739 140.393 978.983 142.407C978.228 144.472 977.145 145.882 975.735 146.638C974.375 147.443 972.487 147.846 970.069 147.846C969.616 147.846 968.936 147.846 968.03 147.846C967.174 147.846 966.217 147.846 965.159 147.846C964.152 147.846 963.195 147.846 962.289 147.846C961.432 147.846 960.778 147.846 960.325 147.846C957.404 147.846 955.137 147.519 953.526 146.864C951.964 146.21 950.882 145.076 950.277 143.465C949.673 141.853 949.371 139.688 949.371 136.968V118.385ZM940.381 78.0451H950.051V91.7939H940.381V78.0451ZM912.959 85.2972H977.85V103.276H968.181V93.909H922.176V103.276H912.959V85.2972ZM992.052 120.198H1050.82V126.77H992.052V120.198ZM1020.76 82.8043H1053.77V89.0743H1020.76V82.8043ZM1019.4 95.4954H1055.81V101.917H1019.4V95.4954ZM1021.14 105.845H1053.62V112.19H1021.14V105.845ZM994.923 130.321H1047.2V136.591H994.923V130.321ZM987.444 141.123H1054.9V147.997H987.444V141.123ZM1016.23 123.748H1025.37V144.447H1016.23V123.748ZM1033.15 77.9696H1041.53V85.9771H1033.15V77.9696ZM1033.15 98.7438H1041.53V118.687H1033.15V98.7438ZM993.865 80.2359H1017.21V96.7041H993.865V90.5852H1009.05V86.2793H993.865V80.2359ZM989.786 80.2359H997.642V89.3765C997.642 91.9953 997.441 94.9415 997.038 98.215C996.686 101.488 995.981 104.737 994.923 107.96C993.916 111.183 992.43 114.079 990.466 116.647C990.164 116.093 989.635 115.388 988.88 114.532C988.174 113.626 987.444 112.795 986.689 112.039C985.933 111.233 985.304 110.679 984.8 110.377C986.311 108.212 987.419 105.895 988.124 103.427C988.829 100.96 989.282 98.492 989.484 96.0242C989.685 93.5062 989.786 91.2147 989.786 89.1499V80.2359ZM1042.44 88.3944L1049.77 89.5276C1049.16 90.837 1048.61 92.0457 1048.1 93.1536C1047.65 94.2112 1047.22 95.1933 1046.82 96.0998L1040.1 95.0422C1040.5 94.0349 1040.93 92.927 1041.38 91.7183C1041.83 90.4593 1042.19 89.3513 1042.44 88.3944ZM1030.35 138.252L1035.11 134.098C1036.22 134.652 1037.35 135.256 1038.51 135.911C1039.72 136.565 1040.85 137.245 1041.91 137.95C1043.02 138.605 1043.95 139.209 1044.71 139.763L1039.87 144.447C1039.12 143.843 1038.18 143.163 1037.08 142.407C1036.02 141.652 1034.88 140.922 1033.68 140.217C1032.52 139.461 1031.41 138.806 1030.35 138.252ZM1024.99 89.8298L1031.49 88.3944C1031.99 89.3513 1032.47 90.4341 1032.92 91.6428C1033.37 92.8011 1033.68 93.8083 1033.83 94.6645L1027.03 96.2509C1026.93 95.3947 1026.68 94.3623 1026.27 93.1536C1025.92 91.9449 1025.49 90.837 1024.99 89.8298ZM1000.82 105.996V111.208H1010.48V105.996H1000.82ZM993.563 100.104H1018.04V117.025H993.563V100.104Z" fill="white"/>
<defs>
<filter id="filter0_d_3799_3808" x="0" y="694.574" width="329.428" height="153.214" filterUnits="userSpaceOnUse" color-interpolation-filters="sRGB">
<feFlood flood-opacity="0" result="BackgroundImageFix"/>
<feColorMatrix in="SourceAlpha" type="matrix" values="0 0 0 0 0 0 0 0 0 0 0 0 0 0 0 0 0 0 127 0" result="hardAlpha"/>
<feOffset dy="4"/>
<feGaussianBlur stdDeviation="2"/>
<feComposite in2="hardAlpha" operator="out"/>
<feColorMatrix type="matrix" values="0 0 0 0 0 0 0 0 0 0 0 0 0 0 0 0 0 0 0.25 0"/>
<feBlend mode="normal" in2="BackgroundImageFix" result="effect1_dropShadow_3799_3808"/>
<feBlend mode="normal" in="SourceGraphic" in2="effect1_dropShadow_3799_3808" result="shape"/>
</filter>
</defs>
</svg>
